TwilioSansMono-Medium.ufo
<glyph name="exclam" format="2">
	<unicode hex="0021"/>
	<advance width="600"/>
	<outline>
		<contour>
			<point x="259" y="212" type="line"/>
			<point x="339" y="212" type="line"/>
			<point x="361" y="547" type="line"/>
			<point x="361" y="684" type="line"/>
			<point x="238" y="684" type="line"/>
			<point x="238" y="548" type="line"/>
		</contour>
		<contour>
			<point x="301" y="-12" type="curve" smooth="yes"/>
			<point x="352" y="-12"/>
			<point x="378" y="8"/>
			<point x="378" y="58" type="curve" smooth="yes"/>
			<point x="378" y="109"/>
			<point x="352" y="129"/>
			<point x="301" y="129" type="curve" smooth="yes"/>
			<point x="248" y="129"/>
			<point x="222" y="109"/>
			<point x="222" y="58" type="curve" smooth="yes"/>
			<point x="222" y="8"/>
			<point x="248" y="-12"/>
		</contour>
	</outline>
</glyph>
<glyph name="dollar" format="2">
	<unicode hex="0024"/>
	<advance width="600"/>
	<outline>
		<contour>
			<point x="186" y="-93" type="line"/>
			<point x="272" y="-93" type="line"/>
			<point x="285" y="-10" type="line"/>
			<point x="294" y="-11"/>
			<point x="303" y="-11"/>
			<point x="313" y="-11" type="curve" smooth="yes"/>
			<point x="454" y="-11"/>
			<point x="551" y="64"/>
			<point x="551" y="207" type="curve" smooth="yes"/>
			<point x="551" y="336"/>
			<point x="457" y="369"/>
			<point x="347" y="388" type="curve"/>
			<point x="381" y="597" type="line"/>
			<point x="436" y="586"/>
			<point x="490" y="565"/>
			<point x="532" y="533" type="curve"/>
			<point x="532" y="633" type="line"/>
			<point x="500" y="655"/>
			<point x="455" y="674"/>
			<point x="399" y="685" type="curve"/>
			<point x="413" y="774" type="line"/>
			<point x="327" y="774" type="line"/>
			<point x="315" y="695" type="line"/>
			<point x="299" y="695" type="line" smooth="yes"/>
			<point x="152" y="695"/>
			<point x="51" y="622"/>
			<point x="51" y="484" type="curve" smooth="yes"/>
			<point x="51" y="351"/>
			<point x="139" y="316"/>
			<point x="252" y="297" type="curve"/>
			<point x="219" y="92" type="line"/>
			<point x="161" y="106"/>
			<point x="107" y="133"/>
			<point x="60" y="172" type="curve"/>
			<point x="60" y="66" type="line"/>
			<point x="99" y="37"/>
			<point x="144" y="14"/>
			<point x="201" y="1" type="curve"/>
		</contour>
		<contour>
			<point x="161" y="496" type="curve" smooth="yes"/>
			<point x="161" y="570"/>
			<point x="217" y="606"/>
			<point x="295" y="606" type="curve" smooth="yes"/>
			<point x="302" y="606" type="line"/>
			<point x="269" y="402" type="line"/>
			<point x="203" y="414"/>
			<point x="161" y="433"/>
		</contour>
		<contour>
			<point x="440" y="191" type="curve" smooth="yes"/>
			<point x="440" y="115"/>
			<point x="389" y="80"/>
			<point x="313" y="80" type="curve" smooth="yes"/>
			<point x="298" y="80" type="line"/>
			<point x="330" y="284" type="line"/>
			<point x="397" y="272"/>
			<point x="440" y="254"/>
		</contour>
	</outline>
</glyph>
<glyph name="ampersand" format="2">
	<unicode hex="0026"/>
	<advance width="600"/>
	<outline>
		<contour>
			<point x="224" y="-14" type="curve" smooth="yes"/>
			<point x="302" y="-14"/>
			<point x="367" y="14"/>
			<point x="418" y="61" type="curve"/>
			<point x="471" y="0" type="line"/>
			<point x="610" y="0" type="line"/>
			<point x="485" y="144" type="line"/>
			<point x="527" y="213"/>
			<point x="555" y="300"/>
			<point x="569" y="394" type="curve"/>
			<point x="466" y="394" type="line"/>
			<point x="456" y="330"/>
			<point x="441" y="271"/>
			<point x="418" y="220" type="curve"/>
			<point x="274" y="386" type="line" smooth="yes"/>
			<point x="237" y="429"/>
			<point x="207" y="461"/>
			<point x="207" y="513" type="curve" smooth="yes"/>
			<point x="207" y="571"/>
			<point x="245" y="606"/>
			<point x="312" y="607" type="curve" smooth="yes"/>
			<point x="376" y="607"/>
			<point x="435" y="583"/>
			<point x="486" y="550" type="curve"/>
			<point x="486" y="649" type="line"/>
			<point x="439" y="677"/>
			<point x="377" y="698"/>
			<point x="306" y="698" type="curve" smooth="yes"/>
			<point x="171" y="698"/>
			<point x="99" y="613"/>
			<point x="99" y="510" type="curve" smooth="yes"/>
			<point x="99" y="465"/>
			<point x="111" y="430"/>
			<point x="131" y="398" type="curve"/>
			<point x="64" y="356"/>
			<point x="13" y="284"/>
			<point x="13" y="186" type="curve" smooth="yes"/>
			<point x="13" y="59"/>
			<point x="97" y="-14"/>
		</contour>
		<contour>
			<point x="120" y="201" type="curve" smooth="yes"/>
			<point x="120" y="261"/>
			<point x="147" y="301"/>
			<point x="185" y="328" type="curve"/>
			<point x="186" y="328"/>
			<point x="186" y="327"/>
			<point x="187" y="326" type="curve" smooth="yes"/>
			<point x="359" y="129" type="line"/>
			<point x="326" y="96"/>
			<point x="287" y="77"/>
			<point x="240" y="77" type="curve" smooth="yes"/>
			<point x="164" y="77"/>
			<point x="120" y="125"/>
		</contour>
	</outline>
</glyph>
<glyph name="quotesingle" format="2">
	<unicode hex="0027"/>
	<advance width="600"/>
	<outline>
		<contour>
			<point x="260" y="488" type="line"/>
			<point x="339" y="488" type="line"/>
			<point x="365" y="750" type="line"/>
			<point x="235" y="750" type="line"/>
		</contour>
	</outline>
</glyph>
<glyph name="comma" format="2">
	<unicode hex="002C"/>
	<advance width="600"/>
	<outline>
		<contour>
			<point x="251" y="140" type="line"/>
			<point x="199" y="-175" type="line"/>
			<point x="278" y="-175" type="line"/>
			<point x="402" y="140" type="line"/>
		</contour>
	</outline>
</glyph>
<glyph name="one" format="2">
	<unicode hex="0031"/>
	<advance width="600"/>
	<outline>
		<contour>
			<point x="57" y="0" type="line"/>
			<point x="565" y="0" type="line"/>
			<point x="565" y="99" type="line"/>
			<point x="381" y="99" type="line"/>
			<point x="381" y="684" type="line"/>
			<point x="265" y="684" type="line"/>
			<point x="61" y="523" type="line"/>
			<point x="61" y="410" type="line"/>
			<point x="268" y="571" type="line"/>
			<point x="268" y="99" type="line"/>
			<point x="57" y="99" type="line"/>
		</contour>
	</outline>
</glyph>
<glyph name="two" format="2">
	<unicode hex="0032"/>
	<advance width="600"/>
	<outline>
		<contour>
			<point x="68" y="0" type="line"/>
			<point x="529" y="0" type="line"/>
			<point x="529" y="100" type="line"/>
			<point x="229" y="100" type="line"/>
			<point x="310" y="160" type="line" smooth="yes"/>
			<point x="424" y="243"/>
			<point x="515" y="331"/>
			<point x="515" y="477" type="curve" smooth="yes"/>
			<point x="515" y="605"/>
			<point x="449" y="698"/>
			<point x="289" y="698" type="curve" smooth="yes"/>
			<point x="192" y="698"/>
			<point x="115" y="661"/>
			<point x="70" y="624" type="curve"/>
			<point x="70" y="518" type="line"/>
			<point x="129" y="571"/>
			<point x="195" y="602"/>
			<point x="267" y="602" type="curve" smooth="yes"/>
			<point x="362" y="602"/>
			<point x="400" y="548"/>
			<point x="400" y="466" type="curve" smooth="yes"/>
			<point x="400" y="350"/>
			<point x="314" y="280"/>
			<point x="209" y="198" type="curve" smooth="yes"/>
			<point x="68" y="87" type="line"/>
		</contour>
	</outline>
</glyph>
<glyph name="four" format="2">
	<unicode hex="0034"/>
	<advance width="600"/>
	<outline>
		<contour>
			<point x="367" y="0" type="line"/>
			<point x="478" y="0" type="line"/>
			<point x="478" y="141" type="line"/>
			<point x="552" y="141" type="line"/>
			<point x="552" y="233" type="line"/>
			<point x="478" y="233" type="line"/>
			<point x="478" y="686" type="line"/>
			<point x="316" y="686" type="line"/>
			<point x="33" y="235" type="line"/>
			<point x="33" y="142" type="line"/>
			<point x="367" y="142" type="line"/>
		</contour>
		<contour>
			<point x="140" y="233" type="line"/>
			<point x="367" y="600" type="line"/>
			<point x="367" y="233" type="line"/>
		</contour>
	</outline>
</glyph>
<glyph name="six" format="2">
	<unicode hex="0036"/>
	<advance width="600"/>
	<outline>
		<contour>
			<point x="304" y="-14" type="curve" smooth="yes"/>
			<point x="463" y="-14"/>
			<point x="549" y="93"/>
			<point x="549" y="239" type="curve" smooth="yes"/>
			<point x="549" y="362"/>
			<point x="489" y="448"/>
			<point x="351" y="448" type="curve" smooth="yes"/>
			<point x="270" y="448"/>
			<point x="206" y="412"/>
			<point x="168" y="330" type="curve"/>
			<point x="173" y="509"/>
			<point x="206" y="606"/>
			<point x="354" y="606" type="curve" smooth="yes"/>
			<point x="417" y="606"/>
			<point x="495" y="582"/>
			<point x="534" y="550" type="curve"/>
			<point x="534" y="648" type="line"/>
			<point x="496" y="675"/>
			<point x="417" y="698"/>
			<point x="342" y="698" type="curve" smooth="yes"/>
			<point x="108" y="698"/>
			<point x="49" y="518"/>
			<point x="49" y="324" type="curve" smooth="yes"/>
			<point x="49" y="310" type="line" smooth="yes"/>
			<point x="49" y="124"/>
			<point x="101" y="-14"/>
		</contour>
		<contour>
			<point x="304" y="77" type="curve" smooth="yes"/>
			<point x="218" y="77"/>
			<point x="168" y="135"/>
			<point x="168" y="228" type="curve" smooth="yes"/>
			<point x="168" y="314"/>
			<point x="222" y="365"/>
			<point x="306" y="365" type="curve" smooth="yes"/>
			<point x="390" y="365"/>
			<point x="434" y="321"/>
			<point x="434" y="228" type="curve" smooth="yes"/>
			<point x="434" y="127"/>
			<point x="383" y="77"/>
		</contour>
	</outline>
</glyph>
<glyph name="seven" format="2">
	<unicode hex="0037"/>
	<advance width="600"/>
	<outline>
		<contour>
			<point x="140" y="0" type="line"/>
			<point x="263" y="0" type="line"/>
			<point x="552" y="576" type="line"/>
			<point x="552" y="684" type="line"/>
			<point x="58" y="684" type="line"/>
			<point x="58" y="467" type="line"/>
			<point x="158" y="467" type="line"/>
			<point x="158" y="596" type="line"/>
			<point x="442" y="596" type="line"/>
		</contour>
	</outline>
</glyph>
<glyph name="nine" format="2">
	<unicode hex="0039"/>
	<advance width="600"/>
	<outline>
		<contour>
			<point x="263" y="-14" type="curve" smooth="yes"/>
			<point x="493" y="-14"/>
			<point x="551" y="167"/>
			<point x="551" y="363" type="curve" smooth="yes"/>
			<point x="551" y="375" type="line" smooth="yes"/>
			<point x="551" y="563"/>
			<point x="499" y="698"/>
			<point x="298" y="698" type="curve" smooth="yes"/>
			<point x="140" y="698"/>
			<point x="51" y="592"/>
			<point x="51" y="451" type="curve" smooth="yes"/>
			<point x="51" y="323"/>
			<point x="114" y="233"/>
			<point x="255" y="233" type="curve" smooth="yes"/>
			<point x="335" y="233"/>
			<point x="397" y="272"/>
			<point x="432" y="353" type="curve"/>
			<point x="428" y="170"/>
			<point x="392" y="79"/>
			<point x="251" y="79" type="curve" smooth="yes"/>
			<point x="186" y="79"/>
			<point x="107" y="108"/>
			<point x="66" y="145" type="curve"/>
			<point x="66" y="43" type="line"/>
			<point x="106" y="13"/>
			<point x="184" y="-14"/>
		</contour>
		<contour>
			<point x="295" y="319" type="curve" smooth="yes"/>
			<point x="211" y="319"/>
			<point x="166" y="364"/>
			<point x="166" y="457" type="curve" smooth="yes"/>
			<point x="166" y="558"/>
			<point x="217" y="607"/>
			<point x="299" y="607" type="curve" smooth="yes"/>
			<point x="387" y="607"/>
			<point x="432" y="546"/>
			<point x="432" y="456" type="curve" smooth="yes"/>
			<point x="431" y="371"/>
			<point x="379" y="319"/>
		</contour>
	</outline>
</glyph>
<glyph name="less" format="2">
	<unicode hex="003C"/>
	<advance width="600"/>
	<outline>
		<contour>
			<point x="529" y="29" type="line"/>
			<point x="529" y="139" type="line"/>
			<point x="162" y="299" type="line"/>
			<point x="529" y="460" type="line"/>
			<point x="529" y="569" type="line"/>
			<point x="71" y="360" type="line"/>
			<point x="71" y="238" type="line"/>
		</contour>
	</outline>
</glyph>
<glyph name="A" format="2">
	<unicode hex="0041"/>
	<advance width="600"/>
	<outline>
		<contour>
			<point x="18" y="0" type="line"/>
			<point x="134" y="0" type="line"/>
			<point x="178" y="161" type="line"/>
			<point x="421" y="161" type="line"/>
			<point x="465" y="0" type="line"/>
			<point x="582" y="0" type="line"/>
			<point x="377" y="686" type="line"/>
			<point x="221" y="686" type="line"/>
		</contour>
		<contour>
			<point x="203" y="254" type="line"/>
			<point x="298" y="604" type="line"/>
			<point x="395" y="254" type="line"/>
		</contour>
	</outline>
	<anchor name="ogonek" x="582" y="0"/>
	<anchor name="bottom" x="325" y="0"/>
	<anchor name="top" x="300" y="684"/>
</glyph>
<glyph name="E" format="2">
	<unicode hex="0045"/>
	<advance width="600"/>
	<outline>
		<contour>
			<point x="84" y="684" type="line"/>
			<point x="84" y="0" type="line"/>
			<point x="537" y="0" type="line"/>
			<point x="537" y="94" type="line"/>
			<point x="197" y="94" type="line"/>
			<point x="197" y="297" type="line"/>
			<point x="494" y="297" type="line"/>
			<point x="494" y="390" type="line"/>
			<point x="197" y="390" type="line"/>
			<point x="197" y="591" type="line"/>
			<point x="531" y="591" type="line"/>
			<point x="531" y="684" type="line"/>
		</contour>
	</outline>
	<anchor name="ogonek" x="537" y="0"/>
	<anchor name="bottom" x="316" y="0"/>
	<anchor name="top" x="308" y="684"/>
</glyph>
<glyph name="I" format="2">
	<unicode hex="0049"/>
	<advance width="600"/>
	<outline>
		<contour>
			<point x="78" y="0" type="line"/>
			<point x="522" y="0" type="line"/>
			<point x="522" y="91" type="line"/>
			<point x="357" y="91" type="line"/>
			<point x="357" y="594" type="line"/>
			<point x="522" y="594" type="line"/>
			<point x="522" y="684" type="line"/>
			<point x="78" y="684" type="line"/>
			<point x="78" y="594" type="line"/>
			<point x="243" y="594" type="line"/>
			<point x="243" y="91" type="line"/>
			<point x="78" y="91" type="line"/>
		</contour>
	</outline>
	<anchor name="ogonek" x="522" y="0"/>
	<anchor name="bottom" x="301" y="0"/>
	<anchor name="top" x="300" y="684"/>
</glyph>
<glyph name="K" format="2">
	<unicode hex="004B"/>
	<advance width="600"/>
	<outline>
		<contour>
			<point x="72" y="0" type="line"/>
			<point x="185" y="0" type="line"/>
			<point x="185" y="187" type="line"/>
			<point x="284" y="325" type="line"/>
			<point x="449" y="0" type="line"/>
			<point x="578" y="0" type="line"/>
			<point x="371" y="404" type="line"/>
			<point x="562" y="684" type="line"/>
			<point x="433" y="684" type="line"/>
			<point x="185" y="319" type="line"/>
			<point x="185" y="684" type="line"/>
			<point x="72" y="684" type="line"/>
		</contour>
	</outline>
	<anchor name="top" x="328" y="684"/>
	<anchor name="bottom" x="312" y="0"/>
</glyph>
<glyph name="O" format="2">
	<unicode hex="004F"/>
	<advance width="600"/>
	<outline>
		<contour>
			<point x="300" y="-14" type="curve" smooth="yes"/>
			<point x="457" y="-14"/>
			<point x="550" y="104"/>
			<point x="550" y="335" type="curve" smooth="yes"/>
			<point x="550" y="349" type="line" smooth="yes"/>
			<point x="550" y="580"/>
			<point x="457" y="698"/>
			<point x="300" y="698" type="curve" smooth="yes"/>
			<point x="143" y="698"/>
			<point x="50" y="580"/>
			<point x="50" y="349" type="curve" smooth="yes"/>
			<point x="50" y="335" type="line" smooth="yes"/>
			<point x="50" y="104"/>
			<point x="143" y="-14"/>
		</contour>
		<contour>
			<point x="300" y="79" type="curve" smooth="yes"/>
			<point x="216" y="79"/>
			<point x="167" y="154"/>
			<point x="167" y="338" type="curve" smooth="yes"/>
			<point x="167" y="345" type="line" smooth="yes"/>
			<point x="167" y="531"/>
			<point x="216" y="605"/>
			<point x="300" y="605" type="curve" smooth="yes"/>
			<point x="384" y="605"/>
			<point x="433" y="531"/>
			<point x="433" y="345" type="curve" smooth="yes"/>
			<point x="433" y="338" type="line" smooth="yes"/>
			<point x="433" y="154"/>
			<point x="384" y="79"/>
		</contour>
	</outline>
	<anchor name="center" x="305" y="349"/>
	<anchor name="bottom" x="301" y="0"/>
	<anchor name="top" x="301" y="684"/>
</glyph>
<glyph name="Q" format="2">
	<unicode hex="0051"/>
	<advance width="600"/>
	<outline>
		<contour>
			<point x="343" y="-74" type="curve" smooth="yes"/>
			<point x="493" y="-122" type="line"/>
			<point x="538" y="-33" type="line"/>
			<point x="359" y="18" type="line"/>
			<point x="498" y="45"/>
			<point x="550" y="186"/>
			<point x="550" y="349" type="curve" smooth="yes"/>
			<point x="550" y="365" type="line" smooth="yes"/>
			<point x="550" y="580"/>
			<point x="458" y="698"/>
			<point x="301" y="698" type="curve" smooth="yes"/>
			<point x="143" y="698"/>
			<point x="50" y="580"/>
			<point x="50" y="350" type="curve" smooth="yes"/>
			<point x="50" y="334" type="line" smooth="yes"/>
			<point x="50" y="115"/>
			<point x="125" y="-5"/>
		</contour>
		<contour>
			<point x="299" y="79" type="curve" smooth="yes"/>
			<point x="216" y="79"/>
			<point x="168" y="157"/>
			<point x="168" y="337" type="curve" smooth="yes"/>
			<point x="168" y="349" type="line" smooth="yes"/>
			<point x="168" y="531"/>
			<point x="216" y="605"/>
			<point x="300" y="605" type="curve" smooth="yes"/>
			<point x="384" y="605"/>
			<point x="432" y="529"/>
			<point x="432" y="355" type="curve" smooth="yes"/>
			<point x="432" y="342" type="line" smooth="yes"/>
			<point x="432" y="166"/>
			<point x="380" y="79"/>
		</contour>
	</outline>
	<anchor name="top" x="283" y="684"/>
	<anchor name="bottom" x="290" y="0"/>
</glyph>
<glyph name="R" format="2">
	<unicode hex="0052"/>
	<advance width="600"/>
	<outline>
		<contour>
			<point x="70" y="0" type="line"/>
			<point x="182" y="0" type="line"/>
			<point x="182" y="256" type="line"/>
			<point x="297" y="256" type="line" smooth="yes"/>
			<point x="364" y="256"/>
			<point x="389" y="230"/>
			<point x="404" y="163" type="curve" smooth="yes"/>
			<point x="441" y="0" type="line"/>
			<point x="563" y="0" type="line"/>
			<point x="514" y="189" type="line" smooth="yes"/>
			<point x="497" y="258"/>
			<point x="465" y="293"/>
			<point x="405" y="304" type="curve"/>
			<point x="489" y="320"/>
			<point x="551" y="383"/>
			<point x="551" y="487" type="curve" smooth="yes"/>
			<point x="551" y="602"/>
			<point x="481" y="684"/>
			<point x="339" y="684" type="curve" smooth="yes"/>
			<point x="70" y="684" type="line"/>
		</contour>
		<contour>
			<point x="314" y="592" type="line" smooth="yes"/>
			<point x="400" y="592"/>
			<point x="437" y="543"/>
			<point x="437" y="473" type="curve" smooth="yes"/>
			<point x="437" y="398"/>
			<point x="400" y="347"/>
			<point x="314" y="347" type="curve" smooth="yes"/>
			<point x="182" y="347" type="line"/>
			<point x="182" y="592" type="line"/>
		</contour>
	</outline>
	<anchor name="top" x="285" y="684"/>
	<anchor name="bottom" x="313" y="0"/>
</glyph>
<glyph name="S" format="2">
	<unicode hex="0053"/>
	<advance width="600"/>
	<outline>
		<contour>
			<point x="308" y="-14" type="curve" smooth="yes"/>
			<point x="448" y="-14"/>
			<point x="545" y="61"/>
			<point x="545" y="203" type="curve" smooth="yes"/>
			<point x="545" y="349"/>
			<point x="432" y="373"/>
			<point x="310" y="396" type="curve" smooth="yes"/>
			<point x="220" y="412"/>
			<point x="170" y="431"/>
			<point x="170" y="500" type="curve" smooth="yes"/>
			<point x="170" y="571"/>
			<point x="224" y="607"/>
			<point x="299" y="607" type="curve" smooth="yes"/>
			<point x="383" y="607"/>
			<point x="470" y="579"/>
			<point x="527" y="536" type="curve"/>
			<point x="527" y="639" type="line"/>
			<point x="475" y="673"/>
			<point x="392" y="698"/>
			<point x="302" y="698" type="curve" smooth="yes"/>
			<point x="158" y="698"/>
			<point x="57" y="623"/>
			<point x="57" y="486" type="curve" smooth="yes"/>
			<point x="57" y="339"/>
			<point x="159" y="311"/>
			<point x="283" y="290" type="curve" smooth="yes"/>
			<point x="370" y="275"/>
			<point x="432" y="262"/>
			<point x="432" y="187" type="curve" smooth="yes"/>
			<point x="432" y="114"/>
			<point x="381" y="79"/>
			<point x="306" y="79" type="curve" smooth="yes"/>
			<point x="221" y="79"/>
			<point x="137" y="111"/>
			<point x="65" y="169" type="curve"/>
			<point x="65" y="60" type="line"/>
			<point x="123" y="20"/>
			<point x="198" y="-14"/>
		</contour>
	</outline>
	<anchor name="top" x="307" y="684"/>
	<anchor name="bottom" x="310" y="0"/>
</glyph>
<glyph name="T" format="2">
	<unicode hex="0054"/>
	<advance width="600"/>
	<outline>
		<contour>
			<point x="243" y="0" type="line"/>
			<point x="356" y="0" type="line"/>
			<point x="356" y="587" type="line"/>
			<point x="560" y="587" type="line"/>
			<point x="560" y="684" type="line"/>
			<point x="40" y="684" type="line"/>
			<point x="40" y="587" type="line"/>
			<point x="243" y="587" type="line"/>
		</contour>
	</outline>
	<anchor name="center" x="299" y="351"/>
	<anchor name="bottom" x="299" y="0"/>
	<anchor name="top" x="300" y="684"/>
</glyph>
<glyph name="V" format="2">
	<unicode hex="0056"/>
	<advance width="600"/>
	<outline>
		<contour>
			<point x="220" y="-1" type="line"/>
			<point x="380" y="-1" type="line"/>
			<point x="576" y="684" type="line"/>
			<point x="458" y="684" type="line"/>
			<point x="300" y="99" type="line"/>
			<point x="142" y="684" type="line"/>
			<point x="24" y="684" type="line"/>
		</contour>
	</outline>
	<anchor name="overlap" x="308" y="684"/>
	<anchor name="ogonek" x="604" y="0"/>
	<anchor name="top" x="311" y="684"/>
	<anchor name="bottom" x="315" y="0"/>
</glyph>
<glyph name="Z" format="2">
	<unicode hex="005A"/>
	<advance width="600"/>
	<outline>
		<contour>
			<point x="56" y="0" type="line"/>
			<point x="544" y="0" type="line"/>
			<point x="544" y="94" type="line"/>
			<point x="195" y="94" type="line"/>
			<point x="543" y="588" type="line"/>
			<point x="543" y="684" type="line"/>
			<point x="72" y="684" type="line"/>
			<point x="72" y="591" type="line"/>
			<point x="417" y="591" type="line"/>
			<point x="56" y="88" type="line"/>
		</contour>
	</outline>
	<anchor name="top" x="305" y="684"/>
	<anchor name="bottom" x="300" y="0"/>
</glyph>
<glyph name="bracketleft" format="2">
	<unicode hex="005B"/>
	<advance width="600"/>
	<outline>
		<contour>
			<point x="490" y="-81" type="line"/>
			<point x="289" y="-81" type="line"/>
			<point x="289" y="710" type="line"/>
			<point x="490" y="710" type="line"/>
			<point x="490" y="792" type="line"/>
			<point x="185" y="792" type="line"/>
			<point x="185" y="-163" type="line"/>
			<point x="490" y="-163" type="line"/>
		</contour>
	</outline>
</glyph>
<glyph name="bracketright" format="2">
	<unicode hex="005D"/>
	<advance width="600"/>
	<outline>
		<contour>
			<point x="110" y="-163" type="line"/>
			<point x="415" y="-163" type="line"/>
			<point x="415" y="792" type="line"/>
			<point x="110" y="792" type="line"/>
			<point x="110" y="710" type="line"/>
			<point x="311" y="710" type="line"/>
			<point x="311" y="-81" type="line"/>
			<point x="110" y="-81" type="line"/>
		</contour>
	</outline>
</glyph>
<glyph name="grave" format="2">
	<unicode hex="0060"/>
	<advance width="600"/>
	<outline>
		<contour>
			<point x="188" y="750" type="line"/>
			<point x="294" y="603" type="line"/>
			<point x="382" y="603" type="line"/>
			<point x="312" y="750" type="line"/>
		</contour>
	</outline>
	<anchor name="_top" x="336" y="523"/>
</glyph>
<glyph name="a" format="2">
	<unicode hex="0061"/>
	<advance width="600"/>
	<outline>
		<contour>
			<point x="228" y="-14" type="curve" smooth="yes"/>
			<point x="306" y="-14"/>
			<point x="366" y="27"/>
			<point x="401" y="100" type="curve"/>
			<point x="401" y="0" type="line"/>
			<point x="508" y="0" type="line"/>
			<point x="508" y="347" type="line" smooth="yes"/>
			<point x="508" y="469"/>
			<point x="431" y="537"/>
			<point x="290" y="537" type="curve" smooth="yes"/>
			<point x="210" y="537"/>
			<point x="139" y="513"/>
			<point x="88" y="483" type="curve"/>
			<point x="88" y="387" type="line"/>
			<point x="146" y="429"/>
			<point x="218" y="447"/>
			<point x="275" y="447" type="curve" smooth="yes"/>
			<point x="351" y="447"/>
			<point x="398" y="409"/>
			<point x="398" y="337" type="curve" smooth="yes"/>
			<point x="398" y="328" type="line"/>
			<point x="288" y="312" type="line" smooth="yes"/>
			<point x="145" y="292"/>
			<point x="76" y="229"/>
			<point x="76" y="131" type="curve" smooth="yes"/>
			<point x="76" y="41"/>
			<point x="140" y="-14"/>
		</contour>
		<contour>
			<point x="273" y="69" type="curve" smooth="yes"/>
			<point x="223" y="69"/>
			<point x="182" y="96"/>
			<point x="182" y="146" type="curve" smooth="yes"/>
			<point x="182" y="205"/>
			<point x="224" y="230"/>
			<point x="311" y="243" type="curve" smooth="yes"/>
			<point x="398" y="256" type="line"/>
			<point x="398" y="194" type="line" smooth="yes"/>
			<point x="398" y="113"/>
			<point x="333" y="69"/>
		</contour>
	</outline>
	<anchor name="ogonek" x="508" y="0"/>
	<anchor name="bottom" x="296" y="0"/>
	<anchor name="top" x="295" y="523"/>
</glyph>
<glyph name="c" format="2">
	<unicode hex="0063"/>
	<advance width="600"/>
	<outline>
		<contour>
			<point x="362" y="-12" type="curve" smooth="yes"/>
			<point x="427" y="-12"/>
			<point x="479" y="3"/>
			<point x="511" y="23" type="curve"/>
			<point x="511" y="110" type="line"/>
			<point x="479" y="92"/>
			<point x="431" y="78"/>
			<point x="380" y="78" type="curve" smooth="yes"/>
			<point x="270" y="78"/>
			<point x="202" y="142"/>
			<point x="202" y="259" type="curve" smooth="yes"/>
			<point x="202" y="266" type="line" smooth="yes"/>
			<point x="202" y="381"/>
			<point x="268" y="445"/>
			<point x="383" y="445" type="curve" smooth="yes"/>
			<point x="427" y="445"/>
			<point x="475" y="435"/>
			<point x="511" y="414" type="curve"/>
			<point x="511" y="504" type="line"/>
			<point x="479" y="521"/>
			<point x="425" y="535"/>
			<point x="368" y="535" type="curve" smooth="yes"/>
			<point x="199" y="535"/>
			<point x="88" y="429"/>
			<point x="88" y="268" type="curve" smooth="yes"/>
			<point x="88" y="255" type="line" smooth="yes"/>
			<point x="88" y="90"/>
			<point x="189" y="-12"/>
		</contour>
	</outline>
	<anchor name="top" x="367" y="523"/>
	<anchor name="bottom" x="351" y="0"/>
</glyph>
<glyph name="e" format="2">
	<unicode hex="0065"/>
	<advance width="600"/>
	<outline>
		<contour>
			<point x="341" y="-14" type="curve" smooth="yes"/>
			<point x="413" y="-14"/>
			<point x="473" y="1"/>
			<point x="518" y="27" type="curve"/>
			<point x="518" y="114" type="line"/>
			<point x="474" y="90"/>
			<point x="422" y="76"/>
			<point x="364" y="76" type="curve" smooth="yes"/>
			<point x="258" y="76"/>
			<point x="182" y="126"/>
			<point x="176" y="231" type="curve"/>
			<point x="535" y="231" type="line"/>
			<point x="535" y="281" type="line" smooth="yes"/>
			<point x="535" y="450"/>
			<point x="446" y="537"/>
			<point x="305" y="537" type="curve" smooth="yes"/>
			<point x="168" y="537"/>
			<point x="64" y="434"/>
			<point x="64" y="269" type="curve" smooth="yes"/>
			<point x="64" y="256" type="line" smooth="yes"/>
			<point x="64" y="80"/>
			<point x="170" y="-14"/>
		</contour>
		<contour>
			<point x="305" y="456" type="curve" smooth="yes"/>
			<point x="374" y="456"/>
			<point x="423" y="406"/>
			<point x="428" y="307" type="curve"/>
			<point x="174" y="307" type="line"/>
			<point x="181" y="398"/>
			<point x="232" y="456"/>
		</contour>
	</outline>
	<anchor name="ogonek" x="452" y="0"/>
	<anchor name="top" x="305" y="523"/>
</glyph>
<glyph name="f" format="2">
	<unicode hex="0066"/>
	<advance width="600"/>
	<outline>
		<contour>
			<point x="55" y="0" type="line"/>
			<point x="523" y="0" type="line"/>
			<point x="523" y="89" type="line"/>
			<point x="328" y="89" type="line"/>
			<point x="328" y="434" type="line"/>
			<point x="527" y="434" type="line"/>
			<point x="527" y="523" type="line"/>
			<point x="328" y="523" type="line"/>
			<point x="328" y="596" type="line" smooth="yes"/>
			<point x="328" y="652"/>
			<point x="363" y="674"/>
			<point x="420" y="674" type="curve" smooth="yes"/>
			<point x="457" y="674"/>
			<point x="499" y="667"/>
			<point x="521" y="655" type="curve"/>
			<point x="521" y="738" type="line"/>
			<point x="495" y="750"/>
			<point x="450" y="760"/>
			<point x="397" y="760" type="curve" smooth="yes"/>
			<point x="292" y="760"/>
			<point x="217" y="712"/>
			<point x="217" y="604" type="curve" smooth="yes"/>
			<point x="217" y="523" type="line"/>
			<point x="59" y="523" type="line"/>
			<point x="59" y="434" type="line"/>
			<point x="217" y="434" type="line"/>
			<point x="217" y="89" type="line"/>
			<point x="55" y="89" type="line"/>
		</contour>
	</outline>
</glyph>
<glyph name="i" format="2">
	<unicode hex="0069"/>
	<advance width="600"/>
	<outline>
		<contour>
			<point x="318" y="623" type="curve" smooth="yes"/>
			<point x="373" y="623"/>
			<point x="393" y="643"/>
			<point x="393" y="685" type="curve" smooth="yes"/>
			<point x="393" y="726"/>
			<point x="371" y="747"/>
			<point x="318" y="747" type="curve" smooth="yes"/>
			<point x="267" y="747"/>
			<point x="245" y="727"/>
			<point x="245" y="685" type="curve" smooth="yes"/>
			<point x="245" y="643"/>
			<point x="265" y="623"/>
		</contour>
		<contour>
			<point x="81" y="0" type="line"/>
			<point x="549" y="0" type="line"/>
			<point x="549" y="89" type="line"/>
			<point x="376" y="89" type="line"/>
			<point x="376" y="523" type="line"/>
			<point x="82" y="523" type="line"/>
			<point x="82" y="434" type="line"/>
			<point x="265" y="434" type="line"/>
			<point x="265" y="89" type="line"/>
			<point x="81" y="89" type="line"/>
		</contour>
	</outline>
	<anchor name="ogonek" x="546" y="0"/>
</glyph>
<glyph name="l" format="2">
	<unicode hex="006C"/>
	<advance width="600"/>
	<outline>
		<contour>
			<point x="71" y="0" type="line"/>
			<point x="539" y="0" type="line"/>
			<point x="539" y="89" type="line"/>
			<point x="365" y="89" type="line"/>
			<point x="365" y="750" type="line"/>
			<point x="72" y="750" type="line"/>
			<point x="72" y="661" type="line"/>
			<point x="254" y="661" type="line"/>
			<point x="254" y="89" type="line"/>
			<point x="71" y="89" type="line"/>
		</contour>
	</outline>
	<anchor name="center" x="307" y="373"/>
	<anchor name="caron" x="474" y="750"/>
	<anchor name="top" x="309" y="730"/>
	<anchor name="bottom" x="309" y="0"/>
</glyph>
<glyph name="n" format="2">
	<unicode hex="006E"/>
	<advance width="600"/>
	<outline>
		<contour>
			<point x="84" y="0" type="line"/>
			<point x="195" y="0" type="line"/>
			<point x="195" y="306" type="line" smooth="yes"/>
			<point x="195" y="333"/>
			<point x="199" y="358"/>
			<point x="211" y="379" type="curve" smooth="yes"/>
			<point x="229" y="416"/>
			<point x="260" y="445"/>
			<point x="311" y="445" type="curve" smooth="yes"/>
			<point x="375" y="445"/>
			<point x="410" y="402"/>
			<point x="410" y="322" type="curve" smooth="yes"/>
			<point x="410" y="0" type="line"/>
			<point x="521" y="0" type="line"/>
			<point x="521" y="347" type="line" smooth="yes"/>
			<point x="521" y="474"/>
			<point x="462" y="537"/>
			<point x="363" y="537" type="curve" smooth="yes"/>
			<point x="283" y="537"/>
			<point x="226" y="489"/>
			<point x="191" y="415" type="curve"/>
			<point x="191" y="523" type="line"/>
			<point x="84" y="523" type="line"/>
		</contour>
	</outline>
	<anchor name="top" x="308" y="523"/>
	<anchor name="bottom" x="303" y="0"/>
</glyph>
<glyph name="o" format="2">
	<unicode hex="006F"/>
	<advance width="600"/>
	<outline>
		<contour>
			<point x="300" y="-14" type="curve" smooth="yes"/>
			<point x="442" y="-14"/>
			<point x="542" y="85"/>
			<point x="542" y="255" type="curve" smooth="yes"/>
			<point x="542" y="269" type="line" smooth="yes"/>
			<point x="542" y="435"/>
			<point x="446" y="537"/>
			<point x="300" y="537" type="curve" smooth="yes"/>
			<point x="157" y="537"/>
			<point x="58" y="436"/>
			<point x="58" y="269" type="curve" smooth="yes"/>
			<point x="58" y="255" type="line" smooth="yes"/>
			<point x="58" y="85"/>
			<point x="156" y="-14"/>
		</contour>
		<contour>
			<point x="300" y="75" type="curve" smooth="yes"/>
			<point x="222" y="75"/>
			<point x="172" y="133"/>
			<point x="172" y="258" type="curve" smooth="yes"/>
			<point x="172" y="265" type="line" smooth="yes"/>
			<point x="172" y="391"/>
			<point x="222" y="449"/>
			<point x="300" y="449" type="curve" smooth="yes"/>
			<point x="377" y="449"/>
			<point x="428" y="391"/>
			<point x="428" y="265" type="curve" smooth="yes"/>
			<point x="428" y="258" type="line" smooth="yes"/>
			<point x="428" y="133"/>
			<point x="378" y="75"/>
		</contour>
	</outline>
	<anchor name="center" x="299" y="269"/>
	<anchor name="bottom" x="297" y="-6"/>
	<anchor name="top" x="301" y="523"/>
</glyph>
<glyph name="p" format="2">
	<unicode hex="0070"/>
	<advance width="600"/>
	<outline>
		<contour>
			<point x="74" y="-194" type="line"/>
			<point x="185" y="-194" type="line"/>
			<point x="185" y="97" type="line"/>
			<point x="221" y="22"/>
			<point x="274" y="-14"/>
			<point x="349" y="-14" type="curve" smooth="yes"/>
			<point x="464" y="-14"/>
			<point x="546" y="84"/>
			<point x="546" y="258" type="curve" smooth="yes"/>
			<point x="546" y="268" type="line" smooth="yes"/>
			<point x="546" y="437"/>
			<point x="472" y="537"/>
			<point x="357" y="537" type="curve" smooth="yes"/>
			<point x="275" y="537"/>
			<point x="216" y="488"/>
			<point x="182" y="415" type="curve"/>
			<point x="182" y="523" type="line"/>
			<point x="74" y="523" type="line"/>
		</contour>
		<contour>
			<point x="307" y="75" type="curve" smooth="yes"/>
			<point x="229" y="75"/>
			<point x="180" y="137"/>
			<point x="180" y="259" type="curve" smooth="yes"/>
			<point x="180" y="265" type="line" smooth="yes"/>
			<point x="180" y="388"/>
			<point x="234" y="449"/>
			<point x="309" y="449" type="curve" smooth="yes"/>
			<point x="384" y="449"/>
			<point x="432" y="389"/>
			<point x="432" y="265" type="curve" smooth="yes"/>
			<point x="432" y="259" type="line" smooth="yes"/>
			<point x="432" y="136"/>
			<point x="385" y="75"/>
		</contour>
	</outline>
	<anchor name="top" x="353" y="523"/>
	<anchor name="bottom" x="186" y="-82"/>
</glyph>
<glyph name="r" format="2">
	<unicode hex="0072"/>
	<advance width="600"/>
	<outline>
		<contour>
			<point x="70" y="0" type="line"/>
			<point x="505" y="0" type="line"/>
			<point x="505" y="89" type="line"/>
			<point x="319" y="89" type="line"/>
			<point x="319" y="255" type="line" smooth="yes"/>
			<point x="319" y="343"/>
			<point x="372" y="426"/>
			<point x="467" y="426" type="curve" smooth="yes"/>
			<point x="495" y="426"/>
			<point x="524" y="420"/>
			<point x="541" y="413" type="curve"/>
			<point x="541" y="521" type="line"/>
			<point x="529" y="528"/>
			<point x="509" y="532"/>
			<point x="488" y="532" type="curve" smooth="yes"/>
			<point x="396" y="532"/>
			<point x="348" y="472"/>
			<point x="316" y="377" type="curve"/>
			<point x="316" y="523" type="line"/>
			<point x="73" y="523" type="line"/>
			<point x="73" y="434" type="line"/>
			<point x="207" y="434" type="line"/>
			<point x="207" y="89" type="line"/>
			<point x="70" y="89" type="line"/>
		</contour>
	</outline>
	<anchor name="top" x="338" y="523"/>
	<anchor name="bottom" x="264" y="0"/>
</glyph>
<glyph name="s" format="2">
	<unicode hex="0073"/>
	<advance width="600"/>
	<outline>
		<contour>
			<point x="301" y="-14" type="curve" smooth="yes"/>
			<point x="444" y="-14"/>
			<point x="517" y="57"/>
			<point x="517" y="159" type="curve" smooth="yes"/>
			<point x="517" y="269"/>
			<point x="429" y="293"/>
			<point x="310" y="313" type="curve" smooth="yes"/>
			<point x="237" y="326"/>
			<point x="190" y="334"/>
			<point x="190" y="385" type="curve" smooth="yes"/>
			<point x="190" y="426"/>
			<point x="224" y="453"/>
			<point x="296" y="453" type="curve" smooth="yes"/>
			<point x="375" y="453"/>
			<point x="453" y="430"/>
			<point x="508" y="391" type="curve"/>
			<point x="508" y="487" type="line"/>
			<point x="454" y="518"/>
			<point x="385" y="537"/>
			<point x="296" y="537" type="curve" smooth="yes"/>
			<point x="173" y="537"/>
			<point x="83" y="477"/>
			<point x="83" y="370" type="curve" smooth="yes"/>
			<point x="83" y="257"/>
			<point x="163" y="231"/>
			<point x="288" y="212" type="curve" smooth="yes"/>
			<point x="367" y="200"/>
			<point x="410" y="190"/>
			<point x="410" y="143" type="curve" smooth="yes"/>
			<point x="410" y="98"/>
			<point x="373" y="72"/>
			<point x="304" y="72" type="curve" smooth="yes"/>
			<point x="234" y="72"/>
			<point x="152" y="93"/>
			<point x="91" y="137" type="curve"/>
			<point x="91" y="42" type="line"/>
			<point x="141" y="9"/>
			<point x="219" y="-14"/>
		</contour>
	</outline>
	<anchor name="top" x="308" y="523"/>
	<anchor name="bottom" x="304" y="0"/>
</glyph>
<glyph name="t" format="2">
	<unicode hex="0074"/>
	<advance width="600"/>
	<outline>
		<contour>
			<point x="381" y="-12" type="curve" smooth="yes"/>
			<point x="433" y="-12"/>
			<point x="482" y="1"/>
			<point x="510" y="16" type="curve"/>
			<point x="510" y="99" type="line"/>
			<point x="484" y="86"/>
			<point x="442" y="78"/>
			<point x="411" y="78" type="curve" smooth="yes"/>
			<point x="347" y="78"/>
			<point x="308" y="105"/>
			<point x="308" y="182" type="curve" smooth="yes"/>
			<point x="308" y="434" type="line"/>
			<point x="514" y="434" type="line"/>
			<point x="514" y="523" type="line"/>
			<point x="308" y="523" type="line"/>
			<point x="308" y="692" type="line"/>
			<point x="211" y="692" type="line"/>
			<point x="204" y="584" type="line" smooth="yes"/>
			<point x="200" y="526"/>
			<point x="169" y="518"/>
			<point x="138" y="518" type="curve" smooth="yes"/>
			<point x="56" y="518" type="line"/>
			<point x="56" y="434" type="line"/>
			<point x="197" y="434" type="line"/>
			<point x="197" y="166" type="line" smooth="yes"/>
			<point x="197" y="36"/>
			<point x="264" y="-12"/>
		</contour>
	</outline>
	<anchor name="caron" x="438" y="780"/>
	<anchor name="bottom" x="349" y="0"/>
	<anchor name="center" x="285" y="287"/>
</glyph>
<glyph name="x" format="2">
	<unicode hex="0078"/>
	<advance width="600"/>
	<outline>
		<contour>
			<point x="52" y="0" type="line"/>
			<point x="176" y="0" type="line"/>
			<point x="297" y="200" type="line"/>
			<point x="423" y="0" type="line"/>
			<point x="548" y="0" type="line"/>
			<point x="370" y="276" type="line"/>
			<point x="538" y="523" type="line"/>
			<point x="416" y="523" type="line"/>
			<point x="301" y="345" type="line"/>
			<point x="188" y="523" type="line"/>
			<point x="63" y="523" type="line"/>
			<point x="231" y="272" type="line"/>
		</contour>
	</outline>
	<anchor name="top" x="331" y="523"/>
	<anchor name="bottom" x="335" y="0"/>
</glyph>
<glyph name="y" format="2">
	<unicode hex="0079"/>
	<advance width="600"/>
	<outline>
		<contour>
			<point x="173" y="-204" type="curve" smooth="yes"/>
			<point x="263" y="-204"/>
			<point x="321" y="-160"/>
			<point x="355" y="-52" type="curve" smooth="yes"/>
			<point x="546" y="523" type="line"/>
			<point x="430" y="523" type="line"/>
			<point x="300" y="85" type="line"/>
			<point x="171" y="523" type="line"/>
			<point x="54" y="523" type="line"/>
			<point x="218" y="7" type="line"/>
			<point x="274" y="7" type="line"/>
			<point x="261" y="-29" type="line" smooth="yes"/>
			<point x="244" y="-96"/>
			<point x="211" y="-119"/>
			<point x="156" y="-119" type="curve" smooth="yes"/>
			<point x="130" y="-119"/>
			<point x="106" y="-116"/>
			<point x="90" y="-110" type="curve"/>
			<point x="90" y="-192" type="line"/>
			<point x="111" y="-199"/>
			<point x="135" y="-204"/>
		</contour>
	</outline>
	<anchor name="top" x="301" y="523"/>
	<anchor name="bottom" x="265" y="-87"/>
</glyph>
<glyph name="braceleft" format="2">
	<unicode hex="007B"/>
	<advance width="600"/>
	<outline>
		<contour>
			<point x="115" y="265" type="line"/>
			<point x="182" y="265" type="line" smooth="yes"/>
			<point x="247" y="265"/>
			<point x="269" y="228"/>
			<point x="269" y="199" type="curve" smooth="yes"/>
			<point x="269" y="132"/>
			<point x="166" y="72"/>
			<point x="166" y="-22" type="curve" smooth="yes"/>
			<point x="166" y="-100"/>
			<point x="221" y="-163"/>
			<point x="336" y="-163" type="curve" smooth="yes"/>
			<point x="496" y="-163" type="line"/>
			<point x="496" y="-81" type="line"/>
			<point x="371" y="-81" type="line" smooth="yes"/>
			<point x="311" y="-81"/>
			<point x="278" y="-57"/>
			<point x="278" y="-9" type="curve" smooth="yes"/>
			<point x="278" y="59"/>
			<point x="380" y="114"/>
			<point x="380" y="203" type="curve" smooth="yes"/>
			<point x="380" y="258"/>
			<point x="328" y="302"/>
			<point x="258" y="313" type="curve"/>
			<point x="328" y="324"/>
			<point x="380" y="369"/>
			<point x="380" y="424" type="curve" smooth="yes"/>
			<point x="380" y="513"/>
			<point x="278" y="569"/>
			<point x="278" y="639" type="curve" smooth="yes"/>
			<point x="278" y="688"/>
			<point x="314" y="710"/>
			<point x="368" y="710" type="curve" smooth="yes"/>
			<point x="496" y="710" type="line"/>
			<point x="496" y="792" type="line"/>
			<point x="336" y="792" type="line" smooth="yes"/>
			<point x="225" y="792"/>
			<point x="166" y="728"/>
			<point x="166" y="652" type="curve" smooth="yes"/>
			<point x="166" y="557"/>
			<point x="269" y="496"/>
			<point x="269" y="428" type="curve" smooth="yes"/>
			<point x="269" y="398"/>
			<point x="247" y="362"/>
			<point x="182" y="362" type="curve" smooth="yes"/>
			<point x="115" y="362" type="line"/>
		</contour>
	</outline>
</glyph>
<glyph name="braceright" format="2">
	<unicode hex="007D"/>
	<advance width="600"/>
	<outline>
		<contour>
			<point x="104" y="-163" type="line"/>
			<point x="264" y="-163" type="line" smooth="yes"/>
			<point x="379" y="-163"/>
			<point x="434" y="-101"/>
			<point x="434" y="-22" type="curve" smooth="yes"/>
			<point x="434" y="72"/>
			<point x="331" y="132"/>
			<point x="331" y="199" type="curve" smooth="yes"/>
			<point x="331" y="228"/>
			<point x="353" y="265"/>
			<point x="419" y="265" type="curve" smooth="yes"/>
			<point x="485" y="265" type="line"/>
			<point x="485" y="362" type="line"/>
			<point x="419" y="362" type="line" smooth="yes"/>
			<point x="353" y="362"/>
			<point x="331" y="399"/>
			<point x="331" y="428" type="curve" smooth="yes"/>
			<point x="331" y="496"/>
			<point x="434" y="557"/>
			<point x="434" y="652" type="curve" smooth="yes"/>
			<point x="434" y="729"/>
			<point x="375" y="792"/>
			<point x="264" y="792" type="curve" smooth="yes"/>
			<point x="104" y="792" type="line"/>
			<point x="104" y="710" type="line"/>
			<point x="233" y="710" type="line" smooth="yes"/>
			<point x="287" y="710"/>
			<point x="323" y="688"/>
			<point x="323" y="639" type="curve" smooth="yes"/>
			<point x="323" y="569"/>
			<point x="220" y="513"/>
			<point x="220" y="424" type="curve" smooth="yes"/>
			<point x="220" y="368"/>
			<point x="272" y="324"/>
			<point x="342" y="313" type="curve"/>
			<point x="272" y="302"/>
			<point x="220" y="258"/>
			<point x="220" y="203" type="curve" smooth="yes"/>
			<point x="220" y="114"/>
			<point x="323" y="59"/>
			<point x="323" y="-9" type="curve" smooth="yes"/>
			<point x="323" y="-57"/>
			<point x="289" y="-81"/>
			<point x="229" y="-81" type="curve" smooth="yes"/>
			<point x="104" y="-81" type="line"/>
		</contour>
	</outline>
</glyph>
<glyph name="asciitilde" format="2">
	<unicode hex="007E"/>
	<advance width="600"/>
	<outline>
		<contour>
			<point x="64" y="203" type="curve"/>
			<point x="153" y="203" type="line"/>
			<point x="153" y="276"/>
			<point x="164" y="317"/>
			<point x="206" y="317" type="curve" smooth="yes"/>
			<point x="268" y="317"/>
			<point x="304" y="199"/>
			<point x="404" y="199" type="curve" smooth="yes"/>
			<point x="486" y="199"/>
			<point x="536" y="253"/>
			<point x="536" y="410" type="curve"/>
			<point x="447" y="410" type="line"/>
			<point x="447" y="333"/>
			<point x="435" y="299"/>
			<point x="397" y="299" type="curve" smooth="yes"/>
			<point x="338" y="299"/>
			<point x="294" y="417"/>
			<point x="193" y="417" type="curve" smooth="yes"/>
			<point x="103" y="417"/>
			<point x="64" y="343"/>
		</contour>
	</outline>
</glyph>
<glyph name="cent" format="2">
	<unicode hex="00A2"/>
	<advance width="600"/>
	<outline>
		<contour>
			<point x="302" y="-93" type="line"/>
			<point x="387" y="-93" type="line"/>
			<point x="393" y="-11" type="line"/>
			<point x="443" y="-7"/>
			<point x="484" y="6"/>
			<point x="511" y="23" type="curve"/>
			<point x="511" y="110" type="line"/>
			<point x="482" y="94"/>
			<point x="441" y="81"/>
			<point x="397" y="78" type="curve"/>
			<point x="424" y="442" type="line"/>
			<point x="455" y="438"/>
			<point x="486" y="429"/>
			<point x="511" y="414" type="curve"/>
			<point x="511" y="504" type="line"/>
			<point x="491" y="515"/>
			<point x="463" y="524"/>
			<point x="431" y="530" type="curve"/>
			<point x="437" y="615" type="line"/>
			<point x="351" y="615" type="line"/>
			<point x="346" y="534" type="line"/>
			<point x="189" y="525"/>
			<point x="88" y="422"/>
			<point x="88" y="268" type="curve" smooth="yes"/>
			<point x="88" y="255" type="line" smooth="yes"/>
			<point x="88" y="108"/>
			<point x="168" y="11"/>
			<point x="308" y="-8" type="curve"/>
		</contour>
		<contour>
			<point x="202" y="259" type="curve" smooth="yes"/>
			<point x="202" y="266" type="line" smooth="yes"/>
			<point x="202" y="366"/>
			<point x="252" y="428"/>
			<point x="341" y="442" type="curve"/>
			<point x="316" y="87" type="line"/>
			<point x="244" y="108"/>
			<point x="202" y="167"/>
		</contour>
	</outline>
</glyph>
<glyph name="section" format="2">
	<unicode hex="00A7"/>
	<advance width="600"/>
	<outline>
		<contour>
			<point x="310" y="-85" type="curve" smooth="yes"/>
			<point x="426" y="-85"/>
			<point x="500" y="-19"/>
			<point x="500" y="84" type="curve" smooth="yes"/>
			<point x="500" y="150"/>
			<point x="471" y="189"/>
			<point x="414" y="214" type="curve"/>
			<point x="481" y="232"/>
			<point x="520" y="271"/>
			<point x="520" y="332" type="curve" smooth="yes"/>
			<point x="520" y="422"/>
			<point x="429" y="446"/>
			<point x="317" y="461" type="curve" smooth="yes"/>
			<point x="244" y="471"/>
			<point x="196" y="485"/>
			<point x="196" y="540" type="curve" smooth="yes"/>
			<point x="196" y="588"/>
			<point x="228" y="620"/>
			<point x="304" y="620" type="curve" smooth="yes"/>
			<point x="371" y="620"/>
			<point x="442" y="602"/>
			<point x="491" y="570" type="curve"/>
			<point x="491" y="655" type="line"/>
			<point x="450" y="679"/>
			<point x="383" y="698"/>
			<point x="302" y="698" type="curve" smooth="yes"/>
			<point x="185" y="698"/>
			<point x="100" y="636"/>
			<point x="100" y="528" type="curve" smooth="yes"/>
			<point x="100" y="462"/>
			<point x="130" y="421"/>
			<point x="190" y="397" type="curve"/>
			<point x="117" y="376"/>
			<point x="80" y="336"/>
			<point x="80" y="279" type="curve" smooth="yes"/>
			<point x="80" y="180"/>
			<point x="180" y="165"/>
			<point x="286" y="151" type="curve" smooth="yes"/>
			<point x="356" y="142"/>
			<point x="403" y="132"/>
			<point x="403" y="74" type="curve" smooth="yes"/>
			<point x="403" y="26"/>
			<point x="369" y="-5"/>
			<point x="303" y="-5" type="curve" smooth="yes"/>
			<point x="239" y="-5"/>
			<point x="166" y="18"/>
			<point x="104" y="55" type="curve"/>
			<point x="104" y="-30" type="line"/>
			<point x="149" y="-56"/>
			<point x="214" y="-85"/>
		</contour>
		<contour>
			<point x="323" y="237" type="curve" smooth="yes"/>
			<point x="254" y="244"/>
			<point x="165" y="255"/>
			<point x="165" y="314" type="curve" smooth="yes"/>
			<point x="165" y="362"/>
			<point x="216" y="382"/>
			<point x="276" y="375" type="curve" smooth="yes"/>
			<point x="348" y="369"/>
			<point x="435" y="356"/>
			<point x="435" y="298" type="curve" smooth="yes"/>
			<point x="435" y="250"/>
			<point x="384" y="230"/>
		</contour>
	</outline>
</glyph>
<glyph name="ordfeminine" format="2">
	<unicode hex="00AA"/>
	<advance width="600"/>
	<outline>
		<contour>
			<point x="232" y="224" type="curve" smooth="yes"/>
			<point x="307" y="224"/>
			<point x="360" y="266"/>
			<point x="388" y="328" type="curve"/>
			<point x="388" y="235" type="line"/>
			<point x="479" y="235" type="line"/>
			<point x="479" y="531" type="line" smooth="yes"/>
			<point x="479" y="642"/>
			<point x="406" y="696"/>
			<point x="283" y="696" type="curve" smooth="yes"/>
			<point x="203" y="696"/>
			<point x="143" y="671"/>
			<point x="111" y="648" type="curve"/>
			<point x="111" y="567" type="line"/>
			<point x="158" y="605"/>
			<point x="216" y="623"/>
			<point x="274" y="623" type="curve" smooth="yes"/>
			<point x="348" y="623"/>
			<point x="385" y="591"/>
			<point x="385" y="524" type="curve" smooth="yes"/>
			<point x="385" y="514" type="line"/>
			<point x="304" y="503" type="line" smooth="yes"/>
			<point x="162" y="483"/>
			<point x="100" y="427"/>
			<point x="100" y="346" type="curve" smooth="yes"/>
			<point x="100" y="268"/>
			<point x="153" y="224"/>
		</contour>
		<contour>
			<point x="269" y="292" type="curve" smooth="yes"/>
			<point x="225" y="292"/>
			<point x="191" y="313"/>
			<point x="191" y="358" type="curve" smooth="yes"/>
			<point x="191" y="406"/>
			<point x="224" y="434"/>
			<point x="310" y="447" type="curve" smooth="yes"/>
			<point x="385" y="458" type="line"/>
			<point x="385" y="409" type="line" smooth="yes"/>
			<point x="385" y="329"/>
			<point x="325" y="292"/>
		</contour>
	</outline>
	<anchor name="ogonek" x="433" y="235"/>
	<anchor name="top" x="250" y="685"/>
	<anchor name="right" x="448" y="235"/>
	<anchor name="bottom" x="250" y="233"/>
</glyph>
<glyph name="guillemetleft" format="2">
	<unicode hex="00AB"/>
	<advance width="600"/>
	<outline>
		<contour>
			<point x="328" y="77" type="line"/>
			<point x="170" y="287" type="line"/>
			<point x="328" y="497" type="line"/>
			<point x="211" y="497" type="line"/>
			<point x="53" y="287" type="line"/>
			<point x="211" y="77" type="line"/>
		</contour>
		<contour>
			<point x="543" y="77" type="line"/>
			<point x="385" y="288" type="line"/>
			<point x="543" y="497" type="line"/>
			<point x="427" y="497" type="line"/>
			<point x="268" y="287" type="line"/>
			<point x="427" y="77" type="line"/>
		</contour>
	</outline>
</glyph>
<glyph name="acute" format="2">
	<unicode hex="00B4"/>
	<advance width="600"/>
	<outline>
		<contour>
			<point x="411" y="750" type="line"/>
			<point x="286" y="750" type="line"/>
			<point x="217" y="603" type="line"/>
			<point x="306" y="603" type="line"/>
		</contour>
	</outline>
	<anchor name="_top" x="262" y="523"/>
</glyph>
<glyph name="mu" format="2">
	<unicode hex="00B5"/>
	<advance width="600"/>
	<outline>
		<contour>
			<point x="516" y="523" type="line"/>
			<point x="405" y="523" type="line"/>
			<point x="405" y="215" type="line" smooth="yes"/>
			<point x="405" y="188"/>
			<point x="403" y="160"/>
			<point x="391" y="139" type="curve" smooth="yes"/>
			<point x="372" y="103"/>
			<point x="340" y="76"/>
			<point x="289" y="76" type="curve" smooth="yes"/>
			<point x="225" y="76"/>
			<point x="190" y="120"/>
			<point x="190" y="199" type="curve" smooth="yes"/>
			<point x="190" y="523" type="line"/>
			<point x="79" y="523" type="line"/>
			<point x="79" y="-190" type="line"/>
			<point x="190" y="-190" type="line"/>
			<point x="190" y="-7" type="line"/>
			<point x="206" y="-12"/>
			<point x="223" y="-14"/>
			<point x="243" y="-14" type="curve" smooth="yes"/>
			<point x="318" y="-14"/>
			<point x="374" y="33"/>
			<point x="410" y="106" type="curve"/>
			<point x="410" y="0" type="line"/>
			<point x="516" y="0" type="line"/>
		</contour>
	</outline>
	<anchor name="ogonek" x="541" y="0"/>
	<anchor name="bottom" x="308" y="0"/>
	<anchor name="top" x="298" y="546"/>
</glyph>
<glyph name="paragraph" format="2">
	<unicode hex="00B6"/>
	<advance width="600"/>
	<outline>
		<contour>
			<point x="298" y="0" type="line"/>
			<point x="384" y="0" type="line"/>
			<point x="384" y="601" type="line"/>
			<point x="454" y="601" type="line"/>
			<point x="454" y="0" type="line"/>
			<point x="540" y="0" type="line"/>
			<point x="540" y="684" type="line"/>
			<point x="272" y="684" type="line"/>
			<point x="118" y="684"/>
			<point x="37" y="597"/>
			<point x="37" y="458" type="curve" smooth="yes"/>
			<point x="37" y="326"/>
			<point x="113" y="244"/>
			<point x="261" y="244" type="curve" smooth="yes"/>
			<point x="298" y="244" type="line"/>
		</contour>
	</outline>
</glyph>
<glyph name="ordmasculine" format="2">
	<unicode hex="00BA"/>
	<advance width="600"/>
	<outline>
		<contour>
			<point x="301" y="227" type="curve" smooth="yes"/>
			<point x="428" y="227"/>
			<point x="519" y="315"/>
			<point x="519" y="461" type="curve" smooth="yes"/>
			<point x="519" y="609"/>
			<point x="426" y="696"/>
			<point x="301" y="696" type="curve" smooth="yes"/>
			<point x="173" y="696"/>
			<point x="81" y="609"/>
			<point x="81" y="461" type="curve" smooth="yes"/>
			<point x="81" y="314"/>
			<point x="175" y="227"/>
		</contour>
		<contour>
			<point x="301" y="300" type="curve" smooth="yes"/>
			<point x="228" y="300"/>
			<point x="175" y="353"/>
			<point x="175" y="461" type="curve" smooth="yes"/>
			<point x="175" y="569"/>
			<point x="226" y="624"/>
			<point x="301" y="624" type="curve" smooth="yes"/>
			<point x="374" y="624"/>
			<point x="424" y="571"/>
			<point x="424" y="461" type="curve" smooth="yes"/>
			<point x="424" y="355"/>
			<point x="376" y="300"/>
		</contour>
	</outline>
</glyph>
<glyph name="guillemetright" format="2">
	<unicode hex="00BB"/>
	<advance width="600"/>
	<outline>
		<contour>
			<point x="272" y="77" type="line"/>
			<point x="389" y="77" type="line"/>
			<point x="547" y="287" type="line"/>
			<point x="389" y="497" type="line"/>
			<point x="272" y="497" type="line"/>
			<point x="430" y="287" type="line"/>
		</contour>
		<contour>
			<point x="57" y="77" type="line"/>
			<point x="173" y="77" type="line"/>
			<point x="332" y="287" type="line"/>
			<point x="173" y="497" type="line"/>
			<point x="57" y="497" type="line"/>
			<point x="215" y="288" type="line"/>
		</contour>
	</outline>
</glyph>
<glyph name="multiply" format="2">
	<unicode hex="00D7"/>
	<advance width="600"/>
	<outline>
		<contour>
			<point x="148" y="84" type="line"/>
			<point x="300" y="238" type="line"/>
			<point x="451" y="85" type="line"/>
			<point x="517" y="153" type="line"/>
			<point x="367" y="305" type="line"/>
			<point x="519" y="460" type="line"/>
			<point x="452" y="527" type="line"/>
			<point x="300" y="373" type="line"/>
			<point x="149" y="526" type="line"/>
			<point x="83" y="458" type="line"/>
			<point x="233" y="306" type="line"/>
			<point x="81" y="152" type="line"/>
		</contour>
	</outline>
</glyph>
<glyph name="Thorn" format="2">
	<unicode hex="00DE"/>
	<advance width="600"/>
	<outline>
		<contour>
			<point x="77" y="684" type="line"/>
			<point x="77" y="0" type="line"/>
			<point x="189" y="0" type="line"/>
			<point x="189" y="121" type="line"/>
			<point x="335" y="121" type="line" smooth="yes"/>
			<point x="478" y="121"/>
			<point x="567" y="216"/>
			<point x="567" y="359" type="curve" smooth="yes"/>
			<point x="567" y="500"/>
			<point x="477" y="589"/>
			<point x="335" y="589" type="curve" smooth="yes"/>
			<point x="189" y="589" type="line"/>
			<point x="189" y="684" type="line"/>
		</contour>
		<contour>
			<point x="317" y="497" type="line" smooth="yes"/>
			<point x="408" y="497"/>
			<point x="453" y="441"/>
			<point x="453" y="357" type="curve" smooth="yes"/>
			<point x="453" y="274"/>
			<point x="409" y="214"/>
			<point x="317" y="214" type="curve" smooth="yes"/>
			<point x="189" y="214" type="line"/>
			<point x="189" y="497" type="line"/>
		</contour>
	</outline>
</glyph>
<glyph name="germandbls" format="2">
	<unicode hex="00DF"/>
	<advance width="600"/>
	<outline>
		<contour>
			<point x="339" y="-9" type="curve" smooth="yes"/>
			<point x="465" y="-9"/>
			<point x="557" y="69"/>
			<point x="557" y="195" type="curve" smooth="yes"/>
			<point x="557" y="304"/>
			<point x="494" y="365"/>
			<point x="387" y="379" type="curve"/>
			<point x="477" y="398"/>
			<point x="533" y="474"/>
			<point x="532" y="564" type="curve" smooth="yes"/>
			<point x="531" y="681"/>
			<point x="458" y="760"/>
			<point x="308" y="760" type="curve" smooth="yes"/>
			<point x="133" y="760"/>
			<point x="62" y="649"/>
			<point x="62" y="522" type="curve" smooth="yes"/>
			<point x="62" y="0" type="line"/>
			<point x="173" y="0" type="line"/>
			<point x="173" y="525" type="line" smooth="yes"/>
			<point x="173" y="604"/>
			<point x="209" y="671"/>
			<point x="300" y="671" type="curve" smooth="yes"/>
			<point x="380" y="671"/>
			<point x="421" y="626"/>
			<point x="421" y="550" type="curve" smooth="yes"/>
			<point x="421" y="480"/>
			<point x="384" y="419"/>
			<point x="296" y="419" type="curve" smooth="yes"/>
			<point x="225" y="419" type="line"/>
			<point x="225" y="328" type="line"/>
			<point x="295" y="328" type="line" smooth="yes"/>
			<point x="390" y="328"/>
			<point x="441" y="292"/>
			<point x="441" y="199" type="curve" smooth="yes"/>
			<point x="441" y="122"/>
			<point x="394" y="75"/>
			<point x="319" y="75" type="curve" smooth="yes"/>
			<point x="281" y="75"/>
			<point x="252" y="84"/>
			<point x="229" y="98" type="curve"/>
			<point x="229" y="15" type="line"/>
			<point x="251" y="3"/>
			<point x="288" y="-9"/>
		</contour>
	</outline>
</glyph>
<glyph name="ae" format="2">
	<unicode hex="00E6"/>
	<advance width="600"/>
	<outline>
		<contour>
			<point x="138" y="-14" type="curve" smooth="yes"/>
			<point x="201" y="-14"/>
			<point x="244" y="21"/>
			<point x="265" y="108" type="curve"/>
			<point x="292" y="32"/>
			<point x="345" y="-14"/>
			<point x="438" y="-14" type="curve" smooth="yes"/>
			<point x="501" y="-14"/>
			<point x="543" y="6"/>
			<point x="568" y="26" type="curve"/>
			<point x="568" y="110" type="line"/>
			<point x="535" y="86"/>
			<point x="496" y="72"/>
			<point x="457" y="72" type="curve" smooth="yes"/>
			<point x="377" y="72"/>
			<point x="340" y="121"/>
			<point x="338" y="232" type="curve"/>
			<point x="585" y="232" type="line"/>
			<point x="585" y="281" type="line" smooth="yes"/>
			<point x="585" y="453"/>
			<point x="532" y="537"/>
			<point x="426" y="537" type="curve" smooth="yes"/>
			<point x="375" y="537"/>
			<point x="334" y="513"/>
			<point x="305" y="469" type="curve"/>
			<point x="281" y="514"/>
			<point x="241" y="537"/>
			<point x="171" y="537" type="curve" smooth="yes"/>
			<point x="107" y="537"/>
			<point x="56" y="512"/>
			<point x="25" y="488" type="curve"/>
			<point x="25" y="398" type="line"/>
			<point x="60" y="427"/>
			<point x="110" y="451"/>
			<point x="159" y="451" type="curve" smooth="yes"/>
			<point x="222" y="451"/>
			<point x="243" y="416"/>
			<point x="243" y="344" type="curve" smooth="yes"/>
			<point x="243" y="324" type="line"/>
			<point x="188" y="313" type="line" smooth="yes"/>
			<point x="70" y="289"/>
			<point x="15" y="231"/>
			<point x="15" y="129" type="curve" smooth="yes"/>
			<point x="15" y="42"/>
			<point x="62" y="-14"/>
		</contour>
		<contour>
			<point x="420" y="457" type="curve" smooth="yes"/>
			<point x="466" y="457"/>
			<point x="488" y="409"/>
			<point x="490" y="303" type="curve"/>
			<point x="337" y="303" type="line"/>
			<point x="340" y="406"/>
			<point x="367" y="457"/>
		</contour>
		<contour>
			<point x="107" y="140" type="curve" smooth="yes"/>
			<point x="107" y="201"/>
			<point x="135" y="231"/>
			<point x="198" y="244" type="curve" smooth="yes"/>
			<point x="243" y="253" type="line"/>
			<point x="243" y="170" type="line" smooth="yes"/>
			<point x="243" y="100"/>
			<point x="212" y="64"/>
			<point x="171" y="64" type="curve" smooth="yes"/>
			<point x="132" y="64"/>
			<point x="107" y="92"/>
		</contour>
	</outline>
	<anchor name="top" x="302" y="523"/>
</glyph>
<glyph name="dcaron" format="2">
	<unicode hex="010F"/>
	<advance width="600"/>
	<outline>
		<contour>
			<point x="233" y="-13" type="curve" smooth="yes"/>
			<point x="305" y="-13"/>
			<point x="362" y="35"/>
			<point x="397" y="109" type="curve"/>
			<point x="397" y="0" type="line"/>
			<point x="498" y="0" type="line"/>
			<point x="498" y="750" type="line"/>
			<point x="393" y="750" type="line"/>
			<point x="393" y="426" type="line"/>
			<point x="362" y="493"/>
			<point x="313" y="537"/>
			<point x="239" y="537" type="curve" smooth="yes"/>
			<point x="129" y="537"/>
			<point x="52" y="437"/>
			<point x="52" y="268" type="curve" smooth="yes"/>
			<point x="52" y="255" type="line" smooth="yes"/>
			<point x="52" y="90"/>
			<point x="116" y="-13"/>
		</contour>
		<contour>
			<point x="549" y="568" type="line"/>
			<point x="610" y="568" type="line"/>
			<point x="668" y="750" type="line"/>
			<point x="568" y="750" type="line"/>
		</contour>
		<contour>
			<point x="276" y="73" type="curve" smooth="yes"/>
			<point x="206" y="73"/>
			<point x="160" y="131"/>
			<point x="160" y="257" type="curve" smooth="yes"/>
			<point x="160" y="264" type="line" smooth="yes"/>
			<point x="160" y="388"/>
			<point x="206" y="449"/>
			<point x="278" y="449" type="curve" smooth="yes"/>
			<point x="349" y="449"/>
			<point x="398" y="388"/>
			<point x="398" y="263" type="curve" smooth="yes"/>
			<point x="398" y="259" type="line" smooth="yes"/>
			<point x="398" y="131"/>
			<point x="345" y="73"/>
		</contour>
	</outline>
</glyph>
<glyph name="Dcroat" format="2">
	<unicode hex="0110"/>
	<advance width="600"/>
	<outline>
		<contour>
			<point x="65" y="0" type="line"/>
			<point x="288" y="0" type="line" smooth="yes"/>
			<point x="457" y="0"/>
			<point x="558" y="105"/>
			<point x="558" y="335" type="curve" smooth="yes"/>
			<point x="558" y="349" type="line" smooth="yes"/>
			<point x="558" y="580"/>
			<point x="453" y="684"/>
			<point x="284" y="684" type="curve" smooth="yes"/>
			<point x="65" y="684" type="line"/>
			<point x="65" y="378" type="line"/>
			<point x="4" y="378" type="line"/>
			<point x="4" y="303" type="line"/>
			<point x="65" y="303" type="line"/>
		</contour>
		<contour>
			<point x="268" y="591" type="line" smooth="yes"/>
			<point x="380" y="591"/>
			<point x="440" y="519"/>
			<point x="440" y="349" type="curve" smooth="yes"/>
			<point x="440" y="336" type="line" smooth="yes"/>
			<point x="440" y="166"/>
			<point x="386" y="94"/>
			<point x="271" y="94" type="curve" smooth="yes"/>
			<point x="178" y="94" type="line"/>
			<point x="178" y="303" type="line"/>
			<point x="316" y="303" type="line"/>
			<point x="316" y="378" type="line"/>
			<point x="178" y="378" type="line"/>
			<point x="178" y="591" type="line"/>
		</contour>
	</outline>
</glyph>
<glyph name="Hbar" format="2">
	<unicode hex="0126"/>
	<advance width="600"/>
	<outline>
		<contour>
			<point x="68" y="0" type="line"/>
			<point x="180" y="0" type="line"/>
			<point x="180" y="288" type="line"/>
			<point x="420" y="288" type="line"/>
			<point x="420" y="0" type="line"/>
			<point x="532" y="0" type="line"/>
			<point x="532" y="489" type="line"/>
			<point x="600" y="489" type="line"/>
			<point x="600" y="560" type="line"/>
			<point x="532" y="560" type="line"/>
			<point x="532" y="684" type="line"/>
			<point x="420" y="684" type="line"/>
			<point x="420" y="560" type="line"/>
			<point x="180" y="560" type="line"/>
			<point x="180" y="684" type="line"/>
			<point x="68" y="684" type="line"/>
			<point x="68" y="560" type="line"/>
			<point x="0" y="560" type="line"/>
			<point x="0" y="489" type="line"/>
			<point x="68" y="489" type="line"/>
		</contour>
		<contour>
			<point x="180" y="382" type="line"/>
			<point x="180" y="489" type="line"/>
			<point x="420" y="489" type="line"/>
			<point x="420" y="382" type="line"/>
		</contour>
	</outline>
	<anchor name="center" x="300" y="528"/>
	<anchor name="bottom" x="290" y="0"/>
	<anchor name="top" x="300" y="684"/>
</glyph>
<glyph name="dotlessi" format="2">
	<unicode hex="0131"/>
	<advance width="600"/>
	<outline>
		<contour>
			<point x="81" y="0" type="line"/>
			<point x="549" y="0" type="line"/>
			<point x="549" y="89" type="line"/>
			<point x="376" y="89" type="line"/>
			<point x="376" y="523" type="line"/>
			<point x="82" y="523" type="line"/>
			<point x="82" y="434" type="line"/>
			<point x="265" y="434" type="line"/>
			<point x="265" y="89" type="line"/>
			<point x="81" y="89" type="line"/>
		</contour>
	</outline>
	<anchor name="ogonek" x="549" y="0"/>
	<anchor name="top" x="321" y="523"/>
</glyph>
<glyph name="IJ" format="2">
	<unicode hex="0132"/>
	<advance width="600"/>
	<outline>
		<contour>
			<point x="264" y="-12" type="curve" smooth="yes"/>
			<point x="408" y="-12"/>
			<point x="512" y="55"/>
			<point x="512" y="223" type="curve" smooth="yes"/>
			<point x="512" y="684" type="line"/>
			<point x="401" y="684" type="line"/>
			<point x="401" y="237" type="line" smooth="yes"/>
			<point x="401" y="129"/>
			<point x="348" y="82"/>
			<point x="250" y="82" type="curve" smooth="yes"/>
			<point x="190" y="82"/>
			<point x="130" y="98"/>
			<point x="86" y="120" type="curve"/>
			<point x="86" y="24" type="line"/>
			<point x="130" y="1"/>
			<point x="185" y="-12"/>
		</contour>
		<contour>
			<point x="87" y="212" type="line"/>
			<point x="196" y="212" type="line"/>
			<point x="196" y="684" type="line"/>
			<point x="87" y="684" type="line"/>
		</contour>
	</outline>
</glyph>
<glyph name="ij" format="2">
	<unicode hex="0133"/>
	<advance width="600"/>
	<outline>
		<contour>
			<point x="157" y="623" type="curve" smooth="yes"/>
			<point x="211" y="623"/>
			<point x="231" y="643"/>
			<point x="231" y="685" type="curve" smooth="yes"/>
			<point x="231" y="726"/>
			<point x="210" y="747"/>
			<point x="157" y="747" type="curve" smooth="yes"/>
			<point x="105" y="747"/>
			<point x="84" y="727"/>
			<point x="84" y="685" type="curve" smooth="yes"/>
			<point x="84" y="643"/>
			<point x="104" y="623"/>
		</contour>
		<contour>
			<point x="442" y="623" type="curve" smooth="yes"/>
			<point x="496" y="623"/>
			<point x="516" y="643"/>
			<point x="516" y="685" type="curve" smooth="yes"/>
			<point x="516" y="726"/>
			<point x="495" y="747"/>
			<point x="442" y="747" type="curve" smooth="yes"/>
			<point x="391" y="747"/>
			<point x="369" y="727"/>
			<point x="369" y="685" type="curve" smooth="yes"/>
			<point x="369" y="643"/>
			<point x="389" y="623"/>
		</contour>
		<contour>
			<point x="286" y="-204" type="curve" smooth="yes"/>
			<point x="397" y="-204"/>
			<point x="498" y="-160"/>
			<point x="498" y="-13" type="curve" smooth="yes"/>
			<point x="498" y="523" type="line"/>
			<point x="387" y="523" type="line"/>
			<point x="387" y="-2" type="line" smooth="yes"/>
			<point x="387" y="-81"/>
			<point x="353" y="-113"/>
			<point x="270" y="-113" type="curve" smooth="yes"/>
			<point x="224" y="-113"/>
			<point x="183" y="-103"/>
			<point x="157" y="-94" type="curve"/>
			<point x="157" y="-183" type="line"/>
			<point x="185" y="-195"/>
			<point x="238" y="-204"/>
		</contour>
		<contour>
			<point x="102" y="0" type="line"/>
			<point x="213" y="0" type="line"/>
			<point x="213" y="523" type="line"/>
			<point x="102" y="523" type="line"/>
		</contour>
	</outline>
</glyph>
<glyph name="Ldot" format="2">
	<unicode hex="013F"/>
	<advance width="600"/>
	<outline>
		<contour>
			<point x="93" y="0" type="line"/>
			<point x="544" y="0" type="line"/>
			<point x="544" y="103" type="line"/>
			<point x="206" y="103" type="line"/>
			<point x="206" y="684" type="line"/>
			<point x="93" y="684" type="line"/>
		</contour>
		<contour>
			<point x="448" y="330" type="curve" smooth="yes"/>
			<point x="499" y="330"/>
			<point x="528" y="352"/>
			<point x="528" y="414" type="curve" smooth="yes"/>
			<point x="528" y="475"/>
			<point x="499" y="497"/>
			<point x="448" y="497" type="curve" smooth="yes"/>
			<point x="398" y="497"/>
			<point x="370" y="475"/>
			<point x="370" y="414" type="curve" smooth="yes"/>
			<point x="370" y="352"/>
			<point x="398" y="330"/>
		</contour>
	</outline>
</glyph>
<glyph name="Eng" format="2">
	<unicode hex="014A"/>
	<advance width="600"/>
	<outline>
		<contour>
			<point x="332" y="-210" type="curve" smooth="yes"/>
			<point x="448" y="-210"/>
			<point x="533" y="-149"/>
			<point x="533" y="-14" type="curve" smooth="yes"/>
			<point x="533" y="684" type="line"/>
			<point x="435" y="684" type="line"/>
			<point x="435" y="373" type="line" smooth="yes"/>
			<point x="435" y="273"/>
			<point x="439" y="212"/>
			<point x="449" y="132" type="curve"/>
			<point x="441" y="132" type="line"/>
			<point x="203" y="684" type="line"/>
			<point x="67" y="684" type="line"/>
			<point x="67" y="0" type="line"/>
			<point x="165" y="0" type="line"/>
			<point x="165" y="312" type="line" smooth="yes"/>
			<point x="165" y="403"/>
			<point x="159" y="472"/>
			<point x="152" y="552" type="curve"/>
			<point x="160" y="552" type="line"/>
			<point x="397" y="0" type="line"/>
			<point x="430" y="0" type="line"/>
			<point x="430" y="-8" type="line" smooth="yes"/>
			<point x="430" y="-85"/>
			<point x="390" y="-126"/>
			<point x="312" y="-126" type="curve" smooth="yes"/>
			<point x="277" y="-126"/>
			<point x="246" y="-119"/>
			<point x="224" y="-112" type="curve"/>
			<point x="224" y="-196" type="line"/>
			<point x="249" y="-203"/>
			<point x="282" y="-210"/>
		</contour>
	</outline>
	<anchor name="top" x="343" y="720"/>
	<anchor name="bottom" x="301" y="0"/>
</glyph>
<glyph name="eng" format="2">
	<unicode hex="014B"/>
	<advance width="600"/>
	<outline>
		<contour>
			<point x="362" y="-208" type="curve" smooth="yes"/>
			<point x="450" y="-208"/>
			<point x="521" y="-167"/>
			<point x="521" y="-50" type="curve" smooth="yes"/>
			<point x="521" y="347" type="line" smooth="yes"/>
			<point x="521" y="475"/>
			<point x="462" y="537"/>
			<point x="363" y="537" type="curve" smooth="yes"/>
			<point x="281" y="537"/>
			<point x="225" y="488"/>
			<point x="190" y="412" type="curve"/>
			<point x="190" y="523" type="line"/>
			<point x="84" y="523" type="line"/>
			<point x="84" y="0" type="line"/>
			<point x="195" y="0" type="line"/>
			<point x="195" y="305" type="line" smooth="yes"/>
			<point x="195" y="333"/>
			<point x="199" y="359"/>
			<point x="211" y="379" type="curve" smooth="yes"/>
			<point x="230" y="416"/>
			<point x="260" y="445"/>
			<point x="311" y="445" type="curve" smooth="yes"/>
			<point x="375" y="445"/>
			<point x="410" y="402"/>
			<point x="410" y="322" type="curve" smooth="yes"/>
			<point x="410" y="-44" type="line" smooth="yes"/>
			<point x="410" y="-92"/>
			<point x="386" y="-119"/>
			<point x="335" y="-119" type="curve" smooth="yes"/>
			<point x="317" y="-119"/>
			<point x="297" y="-115"/>
			<point x="286" y="-112" type="curve"/>
			<point x="286" y="-197" type="line"/>
			<point x="303" y="-202"/>
			<point x="332" y="-208"/>
		</contour>
	</outline>
</glyph>
<glyph name="oe" format="2">
	<unicode hex="0153"/>
	<advance width="600"/>
	<outline>
		<contour>
			<point x="148" y="-14" type="curve" smooth="yes"/>
			<point x="206" y="-14"/>
			<point x="250" y="24"/>
			<point x="270" y="124" type="curve"/>
			<point x="292" y="38"/>
			<point x="346" y="-14"/>
			<point x="439" y="-14" type="curve" smooth="yes"/>
			<point x="502" y="-14"/>
			<point x="545" y="6"/>
			<point x="571" y="25" type="curve"/>
			<point x="571" y="109" type="line"/>
			<point x="537" y="85"/>
			<point x="498" y="72"/>
			<point x="457" y="72" type="curve" smooth="yes"/>
			<point x="387" y="72"/>
			<point x="351" y="117"/>
			<point x="348" y="232" type="curve"/>
			<point x="588" y="232" type="line"/>
			<point x="588" y="281" type="line" smooth="yes"/>
			<point x="588" y="453"/>
			<point x="532" y="536"/>
			<point x="431" y="536" type="curve" smooth="yes"/>
			<point x="376" y="536"/>
			<point x="334" y="509"/>
			<point x="306" y="457" type="curve"/>
			<point x="281" y="507"/>
			<point x="239" y="536"/>
			<point x="182" y="536" type="curve" smooth="yes"/>
			<point x="66" y="536"/>
			<point x="12" y="438"/>
			<point x="12" y="263" type="curve" smooth="yes"/>
			<point x="12" y="249" type="line" smooth="yes"/>
			<point x="12" y="87"/>
			<point x="54" y="-14"/>
		</contour>
		<contour>
			<point x="425" y="457" type="curve" smooth="yes"/>
			<point x="471" y="457"/>
			<point x="492" y="408"/>
			<point x="494" y="303" type="curve"/>
			<point x="347" y="303" type="line"/>
			<point x="350" y="407"/>
			<point x="377" y="457"/>
		</contour>
		<contour>
			<point x="180" y="73" type="curve" smooth="yes"/>
			<point x="131" y="73"/>
			<point x="110" y="131"/>
			<point x="110" y="259" type="curve" smooth="yes"/>
			<point x="110" y="266" type="line" smooth="yes"/>
			<point x="110" y="398"/>
			<point x="131" y="455"/>
			<point x="181" y="455" type="curve" smooth="yes"/>
			<point x="233" y="455"/>
			<point x="253" y="395"/>
			<point x="253" y="266" type="curve" smooth="yes"/>
			<point x="253" y="259" type="line" smooth="yes"/>
			<point x="253" y="134"/>
			<point x="231" y="73"/>
		</contour>
	</outline>
</glyph>
<glyph name="Scedilla" format="2">
	<unicode hex="015E"/>
	<advance width="600"/>
	<outline>
		<contour>
			<point x="289" y="-224" type="curve" smooth="yes"/>
			<point x="363" y="-224"/>
			<point x="409" y="-189"/>
			<point x="409" y="-125" type="curve" smooth="yes"/>
			<point x="409" y="-77"/>
			<point x="378" y="-48"/>
			<point x="318" y="-46" type="curve"/>
			<point x="334" y="-13" type="line"/>
			<point x="460" y="-4"/>
			<point x="545" y="70"/>
			<point x="545" y="203" type="curve" smooth="yes"/>
			<point x="545" y="349"/>
			<point x="432" y="373"/>
			<point x="310" y="396" type="curve" smooth="yes"/>
			<point x="220" y="412"/>
			<point x="170" y="431"/>
			<point x="170" y="500" type="curve" smooth="yes"/>
			<point x="170" y="571"/>
			<point x="224" y="607"/>
			<point x="299" y="607" type="curve" smooth="yes"/>
			<point x="383" y="607"/>
			<point x="470" y="579"/>
			<point x="527" y="536" type="curve"/>
			<point x="527" y="639" type="line"/>
			<point x="475" y="673"/>
			<point x="392" y="698"/>
			<point x="302" y="698" type="curve" smooth="yes"/>
			<point x="158" y="698"/>
			<point x="57" y="623"/>
			<point x="57" y="486" type="curve" smooth="yes"/>
			<point x="57" y="339"/>
			<point x="159" y="311"/>
			<point x="283" y="290" type="curve" smooth="yes"/>
			<point x="370" y="275"/>
			<point x="432" y="262"/>
			<point x="432" y="187" type="curve" smooth="yes"/>
			<point x="432" y="114"/>
			<point x="381" y="79"/>
			<point x="306" y="79" type="curve" smooth="yes"/>
			<point x="221" y="79"/>
			<point x="137" y="111"/>
			<point x="65" y="169" type="curve"/>
			<point x="65" y="60" type="line"/>
			<point x="117" y="24"/>
			<point x="181" y="-6"/>
			<point x="272" y="-13" type="curve"/>
			<point x="238" y="-92" type="line"/>
			<point x="245" y="-90"/>
			<point x="259" y="-89"/>
			<point x="274" y="-89" type="curve" smooth="yes"/>
			<point x="309" y="-89"/>
			<point x="333" y="-97"/>
			<point x="333" y="-125" type="curve" smooth="yes"/>
			<point x="333" y="-154"/>
			<point x="312" y="-165"/>
			<point x="274" y="-165" type="curve" smooth="yes"/>
			<point x="254" y="-165"/>
			<point x="230" y="-159"/>
			<point x="205" y="-148" type="curve"/>
			<point x="205" y="-206" type="line"/>
			<point x="224" y="-216"/>
			<point x="258" y="-224"/>
		</contour>
	</outline>
</glyph>
<glyph name="scedilla" format="2">
	<unicode hex="015F"/>
	<advance width="600"/>
	<outline>
		<contour>
			<point x="283" y="-224" type="curve" smooth="yes"/>
			<point x="357" y="-224"/>
			<point x="403" y="-189"/>
			<point x="403" y="-125" type="curve" smooth="yes"/>
			<point x="403" y="-77"/>
			<point x="372" y="-48"/>
			<point x="312" y="-46" type="curve"/>
			<point x="328" y="-13" type="line"/>
			<point x="453" y="-4"/>
			<point x="517" y="64"/>
			<point x="517" y="159" type="curve" smooth="yes"/>
			<point x="517" y="269"/>
			<point x="429" y="293"/>
			<point x="310" y="313" type="curve" smooth="yes"/>
			<point x="237" y="326"/>
			<point x="190" y="334"/>
			<point x="190" y="385" type="curve" smooth="yes"/>
			<point x="190" y="426"/>
			<point x="224" y="453"/>
			<point x="296" y="453" type="curve" smooth="yes"/>
			<point x="375" y="453"/>
			<point x="453" y="430"/>
			<point x="508" y="391" type="curve"/>
			<point x="508" y="487" type="line"/>
			<point x="454" y="518"/>
			<point x="385" y="537"/>
			<point x="296" y="537" type="curve" smooth="yes"/>
			<point x="173" y="537"/>
			<point x="83" y="477"/>
			<point x="83" y="370" type="curve" smooth="yes"/>
			<point x="83" y="257"/>
			<point x="163" y="231"/>
			<point x="288" y="212" type="curve" smooth="yes"/>
			<point x="367" y="200"/>
			<point x="410" y="190"/>
			<point x="410" y="143" type="curve" smooth="yes"/>
			<point x="410" y="98"/>
			<point x="373" y="72"/>
			<point x="304" y="72" type="curve" smooth="yes"/>
			<point x="234" y="72"/>
			<point x="152" y="93"/>
			<point x="91" y="137" type="curve"/>
			<point x="91" y="42" type="line"/>
			<point x="134" y="14"/>
			<point x="197" y="-7"/>
			<point x="267" y="-13" type="curve"/>
			<point x="232" y="-92" type="line"/>
			<point x="239" y="-90"/>
			<point x="253" y="-89"/>
			<point x="268" y="-89" type="curve" smooth="yes"/>
			<point x="303" y="-89"/>
			<point x="327" y="-97"/>
			<point x="327" y="-125" type="curve" smooth="yes"/>
			<point x="327" y="-154"/>
			<point x="306" y="-165"/>
			<point x="268" y="-165" type="curve" smooth="yes"/>
			<point x="248" y="-165"/>
			<point x="224" y="-159"/>
			<point x="199" y="-148" type="curve"/>
			<point x="199" y="-206" type="line"/>
			<point x="218" y="-216"/>
			<point x="252" y="-224"/>
		</contour>
	</outline>
</glyph>
<glyph name="Oslashacute" format="2">
	<unicode hex="01FE"/>
	<advance width="600"/>
	<outline>
		<contour>
			<point x="258" y="746" type="line"/>
			<point x="345" y="746" type="line"/>
			<point x="439" y="884" type="line"/>
			<point x="317" y="884" type="line"/>
		</contour>
		<contour>
			<point x="300" y="-14" type="curve" smooth="yes"/>
			<point x="457" y="-14"/>
			<point x="550" y="104"/>
			<point x="550" y="335" type="curve" smooth="yes"/>
			<point x="550" y="349" type="line" smooth="yes"/>
			<point x="550" y="452"/>
			<point x="532" y="532"/>
			<point x="498" y="589" type="curve"/>
			<point x="570" y="708" type="line"/>
			<point x="478" y="708" type="line"/>
			<point x="444" y="652" type="line"/>
			<point x="405" y="682"/>
			<point x="357" y="698"/>
			<point x="300" y="698" type="curve" smooth="yes"/>
			<point x="143" y="698"/>
			<point x="50" y="580"/>
			<point x="50" y="349" type="curve" smooth="yes"/>
			<point x="50" y="335" type="line" smooth="yes"/>
			<point x="50" y="232"/>
			<point x="68" y="152"/>
			<point x="103" y="94" type="curve"/>
			<point x="30" y="-24" type="line"/>
			<point x="122" y="-24" type="line"/>
			<point x="156" y="32" type="line"/>
			<point x="195" y="2"/>
			<point x="243" y="-14"/>
		</contour>
		<contour>
			<point x="167" y="338" type="curve" smooth="yes"/>
			<point x="167" y="345" type="line" smooth="yes"/>
			<point x="167" y="531"/>
			<point x="216" y="605"/>
			<point x="300" y="605" type="curve" smooth="yes"/>
			<point x="337" y="605"/>
			<point x="367" y="591"/>
			<point x="390" y="558" type="curve"/>
			<point x="178" y="212" type="line"/>
			<point x="171" y="246"/>
			<point x="167" y="288"/>
		</contour>
		<contour>
			<point x="300" y="79" type="curve" smooth="yes"/>
			<point x="263" y="79"/>
			<point x="232" y="94"/>
			<point x="210" y="126" type="curve"/>
			<point x="423" y="472" type="line"/>
			<point x="429" y="437"/>
			<point x="433" y="395"/>
			<point x="433" y="345" type="curve" smooth="yes"/>
			<point x="433" y="338" type="line" smooth="yes"/>
			<point x="433" y="154"/>
			<point x="384" y="79"/>
		</contour>
	</outline>
</glyph>
<glyph name="caron" format="2">
	<unicode hex="02C7"/>
	<advance width="600"/>
	<outline>
		<contour>
			<point x="474" y="750" type="line"/>
			<point x="373" y="750" type="line"/>
			<point x="301" y="653" type="line"/>
			<point x="227" y="750" type="line"/>
			<point x="126" y="750" type="line"/>
			<point x="242" y="603" type="line"/>
			<point x="359" y="603" type="line"/>
		</contour>
	</outline>
	<anchor name="_top" x="302" y="523"/>
</glyph>
<glyph name="dotaccent" format="2">
	<unicode hex="02D9"/>
	<advance width="600"/>
	<outline>
		<contour>
			<point x="299" y="616" type="curve" smooth="yes"/>
			<point x="354" y="616"/>
			<point x="374" y="636"/>
			<point x="374" y="678" type="curve" smooth="yes"/>
			<point x="374" y="719"/>
			<point x="353" y="740"/>
			<point x="299" y="740" type="curve" smooth="yes"/>
			<point x="248" y="740"/>
			<point x="226" y="720"/>
			<point x="226" y="678" type="curve" smooth="yes"/>
			<point x="226" y="636"/>
			<point x="246" y="616"/>
		</contour>
	</outline>
	<anchor name="_top" x="300" y="523"/>
</glyph>
<glyph name="ring" format="2">
	<unicode hex="02DA"/>
	<advance width="600"/>
	<outline>
		<contour>
			<point x="300" y="592" type="curve" smooth="yes"/>
			<point x="379" y="592"/>
			<point x="427" y="634"/>
			<point x="427" y="713" type="curve" smooth="yes"/>
			<point x="427" y="793"/>
			<point x="376" y="833"/>
			<point x="301" y="833" type="curve" smooth="yes"/>
			<point x="227" y="833"/>
			<point x="173" y="795"/>
			<point x="173" y="712" type="curve" smooth="yes"/>
			<point x="173" y="630"/>
			<point x="222" y="592"/>
		</contour>
		<contour>
			<point x="300" y="646" type="curve" smooth="yes"/>
			<point x="257" y="646"/>
			<point x="234" y="670"/>
			<point x="234" y="712" type="curve" smooth="yes"/>
			<point x="234" y="754"/>
			<point x="257" y="779"/>
			<point x="301" y="779" type="curve" smooth="yes"/>
			<point x="343" y="779"/>
			<point x="366" y="754"/>
			<point x="366" y="712" type="curve" smooth="yes"/>
			<point x="366" y="670"/>
			<point x="344" y="646"/>
		</contour>
	</outline>
	<anchor name="_top" x="300" y="523"/>
</glyph>
<glyph name="ogonek" format="2">
	<unicode hex="02DB"/>
	<advance width="600"/>
	<outline>
		<contour>
			<point x="321" y="-203" type="curve" smooth="yes"/>
			<point x="351" y="-203"/>
			<point x="377" y="-198"/>
			<point x="391" y="-192" type="curve"/>
			<point x="391" y="-121" type="line"/>
			<point x="383" y="-124"/>
			<point x="367" y="-126"/>
			<point x="350" y="-126" type="curve" smooth="yes"/>
			<point x="319" y="-126"/>
			<point x="296" y="-114"/>
			<point x="296" y="-81" type="curve" smooth="yes"/>
			<point x="296" y="-51"/>
			<point x="319" y="-21"/>
			<point x="382" y="0" type="curve"/>
			<point x="304" y="0" type="line"/>
			<point x="242" y="-22"/>
			<point x="206" y="-66"/>
			<point x="206" y="-114" type="curve" smooth="yes"/>
			<point x="206" y="-174"/>
			<point x="246" y="-203"/>
		</contour>
	</outline>
	<anchor name="_ogonek" x="382" y="0"/>
</glyph>
<glyph name="pi" format="2">
	<unicode hex="03C0"/>
	<advance width="600"/>
	<outline>
		<contour>
			<point x="100" y="0" type="line"/>
			<point x="204" y="0" type="line"/>
			<point x="204" y="435" type="line"/>
			<point x="380" y="435" type="line"/>
			<point x="380" y="115" type="line" smooth="yes"/>
			<point x="380" y="30"/>
			<point x="417" y="-12"/>
			<point x="504" y="-12" type="curve" smooth="yes"/>
			<point x="531" y="-12"/>
			<point x="558" y="-6"/>
			<point x="573" y="-1" type="curve"/>
			<point x="573" y="76" type="line"/>
			<point x="566" y="74"/>
			<point x="553" y="72"/>
			<point x="540" y="72" type="curve" smooth="yes"/>
			<point x="504" y="72"/>
			<point x="485" y="88"/>
			<point x="485" y="126" type="curve" smooth="yes"/>
			<point x="485" y="435" type="line"/>
			<point x="573" y="435" type="line"/>
			<point x="573" y="523" type="line"/>
			<point x="16" y="523" type="line"/>
			<point x="16" y="435" type="line"/>
			<point x="100" y="435" type="line"/>
		</contour>
	</outline>
</glyph>
<glyph name="endash" format="2">
	<unicode hex="2013"/>
	<advance width="600"/>
	<outline>
		<contour>
			<point x="540" y="348" type="line"/>
			<point x="60" y="348" type="line"/>
			<point x="60" y="246" type="line"/>
			<point x="540" y="246" type="line"/>
		</contour>
	</outline>
</glyph>
<glyph name="quoteright" format="2">
	<unicode hex="2019"/>
	<advance width="600"/>
	<outline>
		<contour>
			<point x="258" y="750" type="line"/>
			<point x="208" y="458" type="line"/>
			<point x="283" y="458" type="line"/>
			<point x="395" y="750" type="line"/>
		</contour>
	</outline>
</glyph>
<glyph name="bullet" format="2">
	<unicode hex="2022"/>
	<advance width="600"/>
	<outline>
		<contour>
			<point x="300" y="148" type="curve" smooth="yes"/>
			<point x="386" y="148"/>
			<point x="434" y="188"/>
			<point x="434" y="289" type="curve" smooth="yes"/>
			<point x="434" y="390"/>
			<point x="386" y="428"/>
			<point x="300" y="428" type="curve" smooth="yes"/>
			<point x="213" y="428"/>
			<point x="166" y="390"/>
			<point x="166" y="289" type="curve" smooth="yes"/>
			<point x="166" y="188"/>
			<point x="213" y="148"/>
		</contour>
	</outline>
</glyph>
<glyph name="ellipsis" format="2">
	<unicode hex="2026"/>
	<advance width="600"/>
	<outline>
		<contour>
			<point x="113" y="-12" type="curve" smooth="yes"/>
			<point x="152" y="-12"/>
			<point x="173" y="7"/>
			<point x="173" y="63" type="curve" smooth="yes"/>
			<point x="173" y="120"/>
			<point x="152" y="138"/>
			<point x="113" y="138" type="curve" smooth="yes"/>
			<point x="73" y="138"/>
			<point x="51" y="120"/>
			<point x="51" y="63" type="curve" smooth="yes"/>
			<point x="51" y="7"/>
			<point x="73" y="-12"/>
		</contour>
		<contour>
			<point x="299" y="-12" type="curve" smooth="yes"/>
			<point x="340" y="-12"/>
			<point x="361" y="8"/>
			<point x="361" y="63" type="curve" smooth="yes"/>
			<point x="361" y="119"/>
			<point x="340" y="138"/>
			<point x="299" y="138" type="curve" smooth="yes"/>
			<point x="260" y="138"/>
			<point x="239" y="119"/>
			<point x="239" y="63" type="curve" smooth="yes"/>
			<point x="239" y="8"/>
			<point x="260" y="-12"/>
		</contour>
		<contour>
			<point x="488" y="-12" type="curve" smooth="yes"/>
			<point x="527" y="-12"/>
			<point x="549" y="8"/>
			<point x="549" y="63" type="curve" smooth="yes"/>
			<point x="549" y="119"/>
			<point x="527" y="138"/>
			<point x="488" y="138" type="curve" smooth="yes"/>
			<point x="448" y="138"/>
			<point x="426" y="119"/>
			<point x="426" y="63" type="curve" smooth="yes"/>
			<point x="426" y="8"/>
			<point x="448" y="-12"/>
		</contour>
	</outline>
</glyph>
<glyph name="guilsinglleft" format="2">
	<unicode hex="2039"/>
	<advance width="600"/>
	<outline>
		<contour>
			<point x="331" y="77" type="line"/>
			<point x="470" y="77" type="line"/>
			<point x="258" y="289" type="line"/>
			<point x="470" y="497" type="line"/>
			<point x="331" y="497" type="line"/>
			<point x="118" y="287" type="line"/>
		</contour>
	</outline>
</glyph>
<glyph name="Euro" format="2">
	<unicode hex="20AC"/>
	<advance width="600"/>
	<outline>
		<contour>
			<point x="25" y="235" type="line"/>
			<point x="107" y="235" type="line"/>
			<point x="136" y="72"/>
			<point x="237" y="-12"/>
			<point x="392" y="-12" type="curve" smooth="yes"/>
			<point x="464" y="-12"/>
			<point x="517" y="3"/>
			<point x="555" y="28" type="curve"/>
			<point x="555" y="121" type="line"/>
			<point x="514" y="95"/>
			<point x="465" y="85"/>
			<point x="414" y="85" type="curve" smooth="yes"/>
			<point x="317" y="85"/>
			<point x="252" y="133"/>
			<point x="227" y="235" type="curve"/>
			<point x="454" y="235" type="line"/>
			<point x="454" y="307" type="line"/>
			<point x="217" y="307" type="line"/>
			<point x="216" y="318"/>
			<point x="216" y="329"/>
			<point x="216" y="340" type="curve" smooth="yes"/>
			<point x="216" y="347" type="line" smooth="yes"/>
			<point x="216" y="357"/>
			<point x="216" y="367"/>
			<point x="217" y="377" type="curve"/>
			<point x="454" y="377" type="line"/>
			<point x="454" y="448" type="line"/>
			<point x="227" y="448" type="line"/>
			<point x="252" y="550"/>
			<point x="319" y="602"/>
			<point x="419" y="601" type="curve" smooth="yes"/>
			<point x="469" y="601"/>
			<point x="515" y="590"/>
			<point x="553" y="568" type="curve"/>
			<point x="553" y="664" type="line"/>
			<point x="516" y="683"/>
			<point x="461" y="695"/>
			<point x="404" y="695" type="curve" smooth="yes"/>
			<point x="246" y="695"/>
			<point x="138" y="607"/>
			<point x="108" y="448" type="curve"/>
			<point x="25" y="448" type="line"/>
			<point x="25" y="377" type="line"/>
			<point x="100" y="377" type="line"/>
			<point x="99" y="369"/>
			<point x="99" y="360"/>
			<point x="99" y="351" type="curve" smooth="yes"/>
			<point x="99" y="337" type="line" smooth="yes"/>
			<point x="99" y="327"/>
			<point x="99" y="317"/>
			<point x="100" y="307" type="curve"/>
			<point x="25" y="307" type="line"/>
		</contour>
	</outline>
</glyph>
<glyph name="servicemark" format="2">
	<unicode hex="2120"/>
	<advance width="600"/>
	<outline>
		<contour>
			<point x="140" y="337" type="curve" smooth="yes"/>
			<point x="208" y="337"/>
			<point x="256" y="378"/>
			<point x="256" y="448" type="curve" smooth="yes"/>
			<point x="256" y="517"/>
			<point x="203" y="533"/>
			<point x="147" y="544" type="curve" smooth="yes"/>
			<point x="107" y="551"/>
			<point x="83" y="561"/>
			<point x="83" y="591" type="curve" smooth="yes"/>
			<point x="83" y="620"/>
			<point x="103" y="639"/>
			<point x="142" y="639" type="curve" smooth="yes"/>
			<point x="185" y="639"/>
			<point x="224" y="623"/>
			<point x="251" y="602" type="curve"/>
			<point x="251" y="660" type="line"/>
			<point x="231" y="672"/>
			<point x="196" y="689"/>
			<point x="144" y="689" type="curve" smooth="yes"/>
			<point x="71" y="689"/>
			<point x="24" y="649"/>
			<point x="24" y="582" type="curve" smooth="yes"/>
			<point x="24" y="509"/>
			<point x="77" y="495"/>
			<point x="133" y="486" type="curve" smooth="yes"/>
			<point x="177" y="478"/>
			<point x="196" y="468"/>
			<point x="196" y="437" type="curve" smooth="yes"/>
			<point x="196" y="408"/>
			<point x="174" y="388"/>
			<point x="140" y="388" type="curve" smooth="yes"/>
			<point x="100" y="388"/>
			<point x="59" y="405"/>
			<point x="29" y="428" type="curve"/>
			<point x="29" y="370" type="line"/>
			<point x="51" y="354"/>
			<point x="87" y="337"/>
		</contour>
		<contour>
			<point x="293" y="342" type="line"/>
			<point x="347" y="342" type="line"/>
			<point x="347" y="492" type="line" smooth="yes"/>
			<point x="347" y="538"/>
			<point x="345" y="581"/>
			<point x="340" y="622" type="curve"/>
			<point x="345" y="622" type="line"/>
			<point x="399" y="432" type="line"/>
			<point x="452" y="432" type="line"/>
			<point x="506" y="622" type="line"/>
			<point x="511" y="622" type="line"/>
			<point x="506" y="581"/>
			<point x="505" y="539"/>
			<point x="505" y="492" type="curve" smooth="yes"/>
			<point x="505" y="342" type="line"/>
			<point x="559" y="342" type="line"/>
			<point x="559" y="684" type="line"/>
			<point x="476" y="684" type="line"/>
			<point x="426" y="495" type="line"/>
			<point x="424" y="495" type="line"/>
			<point x="375" y="684" type="line"/>
			<point x="293" y="684" type="line"/>
		</contour>
	</outline>
</glyph>
<glyph name="ohm" format="2">
	<unicode hex="2126"/>
	<advance width="600"/>
	<outline>
		<contour>
			<point x="48" y="0" type="line"/>
			<point x="276" y="0" type="line"/>
			<point x="276" y="95" type="line"/>
			<point x="203" y="173"/>
			<point x="164" y="258"/>
			<point x="164" y="389" type="curve" smooth="yes"/>
			<point x="164" y="396" type="line" smooth="yes"/>
			<point x="164" y="546"/>
			<point x="215" y="605"/>
			<point x="301" y="605" type="curve" smooth="yes"/>
			<point x="386" y="605"/>
			<point x="435" y="546"/>
			<point x="435" y="396" type="curve" smooth="yes"/>
			<point x="435" y="389" type="line" smooth="yes"/>
			<point x="435" y="260"/>
			<point x="395" y="172"/>
			<point x="323" y="95" type="curve"/>
			<point x="323" y="0" type="line"/>
			<point x="550" y="0" type="line"/>
			<point x="550" y="94" type="line"/>
			<point x="436" y="94" type="line"/>
			<point x="495" y="157"/>
			<point x="551" y="256"/>
			<point x="551" y="387" type="curve" smooth="yes"/>
			<point x="551" y="401" type="line" smooth="yes"/>
			<point x="551" y="592"/>
			<point x="460" y="698"/>
			<point x="301" y="698" type="curve" smooth="yes"/>
			<point x="145" y="698"/>
			<point x="49" y="594"/>
			<point x="49" y="401" type="curve" smooth="yes"/>
			<point x="49" y="387" type="line" smooth="yes"/>
			<point x="49" y="255"/>
			<point x="94" y="163"/>
			<point x="161" y="94" type="curve"/>
			<point x="48" y="94" type="line"/>
		</contour>
	</outline>
</glyph>
<glyph name="arrowright" format="2">
	<unicode hex="2192"/>
	<advance width="600"/>
	<outline>
		<contour>
			<point x="240" y="580" type="line"/>
			<point x="423" y="400" type="line"/>
			<point x="37" y="400" type="line"/>
			<point x="37" y="308" type="line"/>
			<point x="424" y="308" type="line"/>
			<point x="242" y="129" type="line"/>
			<point x="359" y="129" type="line"/>
			<point x="584" y="354" type="line"/>
			<point x="357" y="580" type="line"/>
		</contour>
	</outline>
</glyph>
<glyph name="arrowdown" format="2">
	<unicode hex="2193"/>
	<advance width="600"/>
	<outline>
		<contour>
			<point x="525" y="322" type="line"/>
			<point x="346" y="141" type="line"/>
			<point x="346" y="684" type="line"/>
			<point x="254" y="684" type="line"/>
			<point x="254" y="142" type="line"/>
			<point x="75" y="322" type="line"/>
			<point x="75" y="205" type="line"/>
			<point x="300" y="-19" type="line"/>
			<point x="525" y="207" type="line"/>
		</contour>
	</outline>
</glyph>
<glyph name="uni2196" format="2">
	<unicode hex="2196"/>
	<advance width="600"/>
	<outline>
		<contour>
			<point x="520" y="70" type="line"/>
			<point x="585" y="134" type="line"/>
			<point x="191" y="528" type="line"/>
			<point x="461" y="527" type="line"/>
			<point x="379" y="610" type="line"/>
			<point x="45" y="610" type="line"/>
			<point x="45" y="274" type="line"/>
			<point x="126" y="193" type="line"/>
			<point x="125" y="464" type="line"/>
		</contour>
	</outline>
</glyph>
<glyph name="uni2197" format="2">
	<unicode hex="2197"/>
	<advance width="600"/>
	<outline>
		<contour>
			<point x="80" y="70" type="line"/>
			<point x="474" y="465" type="line"/>
			<point x="472" y="193" type="line"/>
			<point x="555" y="276" type="line"/>
			<point x="555" y="610" type="line"/>
			<point x="220" y="610" type="line"/>
			<point x="139" y="528" type="line"/>
			<point x="412" y="531" type="line"/>
			<point x="15" y="134" type="line"/>
		</contour>
	</outline>
</glyph>
<glyph name="uni2198" format="2">
	<unicode hex="2198"/>
	<advance width="600"/>
	<outline>
		<contour>
			<point x="221" y="70" type="line"/>
			<point x="555" y="70" type="line"/>
			<point x="555" y="405" type="line"/>
			<point x="474" y="487" type="line"/>
			<point x="475" y="216" type="line"/>
			<point x="80" y="610" type="line"/>
			<point x="15" y="544" type="line"/>
			<point x="410" y="151" type="line"/>
			<point x="139" y="152" type="line"/>
		</contour>
	</outline>
</glyph>
<glyph name="uni2199" format="2">
	<unicode hex="2199"/>
	<advance width="600"/>
	<outline>
		<contour>
			<point x="45" y="70" type="line"/>
			<point x="380" y="70" type="line"/>
			<point x="461" y="151" type="line"/>
			<point x="189" y="149" type="line"/>
			<point x="585" y="544" type="line"/>
			<point x="520" y="610" type="line"/>
			<point x="126" y="214" type="line"/>
			<point x="128" y="486" type="line"/>
			<point x="45" y="404" type="line"/>
		</contour>
	</outline>
</glyph>
<glyph name="infinity" format="2">
	<unicode hex="221E"/>
	<advance width="600"/>
	<outline>
		<contour>
			<point x="170" y="592" type="curve" smooth="yes"/>
			<point x="71" y="592"/>
			<point x="25" y="501"/>
			<point x="25" y="334" type="curve" smooth="yes"/>
			<point x="25" y="168"/>
			<point x="71" y="75"/>
			<point x="169" y="75" type="curve" smooth="yes"/>
			<point x="245" y="75"/>
			<point x="285" y="136"/>
			<point x="301" y="203" type="curve"/>
			<point x="316" y="136"/>
			<point x="352" y="74"/>
			<point x="431" y="74" type="curve" smooth="yes"/>
			<point x="531" y="74"/>
			<point x="575" y="166"/>
			<point x="575" y="332" type="curve" smooth="yes"/>
			<point x="575" y="497"/>
			<point x="532" y="591"/>
			<point x="431" y="591" type="curve" smooth="yes"/>
			<point x="360" y="591"/>
			<point x="318" y="541"/>
			<point x="301" y="467" type="curve"/>
			<point x="286" y="532"/>
			<point x="246" y="592"/>
		</contour>
		<contour>
			<point x="184" y="161" type="curve" smooth="yes"/>
			<point x="133" y="161"/>
			<point x="113" y="216"/>
			<point x="113" y="333" type="curve" smooth="yes"/>
			<point x="113" y="453"/>
			<point x="134" y="506"/>
			<point x="184" y="506" type="curve" smooth="yes"/>
			<point x="232" y="506"/>
			<point x="253" y="454"/>
			<point x="253" y="333" type="curve" smooth="yes"/>
			<point x="253" y="215"/>
			<point x="233" y="161"/>
		</contour>
		<contour>
			<point x="416" y="160" type="curve" smooth="yes"/>
			<point x="367" y="160"/>
			<point x="348" y="213"/>
			<point x="348" y="333" type="curve" smooth="yes"/>
			<point x="348" y="456"/>
			<point x="369" y="506"/>
			<point x="416" y="506" type="curve" smooth="yes"/>
			<point x="466" y="506"/>
			<point x="488" y="454"/>
			<point x="488" y="333" type="curve" smooth="yes"/>
			<point x="488" y="211"/>
			<point x="466" y="160"/>
		</contour>
	</outline>
</glyph>
<glyph name="integral" format="2">
	<unicode hex="222B"/>
	<advance width="600"/>
	<outline>
		<contour>
			<point x="162" y="-204" type="curve" smooth="yes"/>
			<point x="262" y="-204"/>
			<point x="345" y="-158"/>
			<point x="345" y="-20" type="curve" smooth="yes"/>
			<point x="345" y="503" type="line" smooth="yes"/>
			<point x="345" y="582"/>
			<point x="384" y="609"/>
			<point x="441" y="609" type="curve" smooth="yes"/>
			<point x="469" y="609"/>
			<point x="495" y="604"/>
			<point x="514" y="599" type="curve"/>
			<point x="514" y="680" type="line"/>
			<point x="492" y="691"/>
			<point x="458" y="697"/>
			<point x="419" y="697" type="curve" smooth="yes"/>
			<point x="310" y="697"/>
			<point x="235" y="642"/>
			<point x="235" y="511" type="curve" smooth="yes"/>
			<point x="235" y="-14" type="line" smooth="yes"/>
			<point x="235" y="-89"/>
			<point x="207" y="-120"/>
			<point x="140" y="-120" type="curve" smooth="yes"/>
			<point x="114" y="-120"/>
			<point x="88" y="-115"/>
			<point x="62" y="-107" type="curve"/>
			<point x="62" y="-187" type="line"/>
			<point x="83" y="-197"/>
			<point x="122" y="-204"/>
		</contour>
	</outline>
</glyph>
<glyph name="approxequal" format="2">
	<unicode hex="2248"/>
	<advance width="600"/>
	<outline>
		<contour>
			<point x="174" y="383" type="curve" smooth="yes"/>
			<point x="242" y="383"/>
			<point x="332" y="327"/>
			<point x="427" y="327" type="curve" smooth="yes"/>
			<point x="469" y="327"/>
			<point x="513" y="343"/>
			<point x="529" y="368" type="curve"/>
			<point x="529" y="470" type="line"/>
			<point x="499" y="431"/>
			<point x="460" y="420"/>
			<point x="419" y="422" type="curve" smooth="yes"/>
			<point x="366" y="424"/>
			<point x="253" y="478"/>
			<point x="173" y="478" type="curve" smooth="yes"/>
			<point x="131" y="478"/>
			<point x="87" y="463"/>
			<point x="71" y="438" type="curve"/>
			<point x="71" y="335" type="line"/>
			<point x="95" y="368"/>
			<point x="136" y="383"/>
		</contour>
		<contour>
			<point x="174" y="164" type="curve" smooth="yes"/>
			<point x="242" y="164"/>
			<point x="332" y="108"/>
			<point x="427" y="108" type="curve" smooth="yes"/>
			<point x="470" y="108"/>
			<point x="513" y="124"/>
			<point x="529" y="149" type="curve"/>
			<point x="529" y="251" type="line"/>
			<point x="500" y="215"/>
			<point x="462" y="201"/>
			<point x="419" y="203" type="curve" smooth="yes"/>
			<point x="370" y="205"/>
			<point x="251" y="259"/>
			<point x="170" y="259" type="curve" smooth="yes"/>
			<point x="128" y="259"/>
			<point x="87" y="243"/>
			<point x="71" y="219" type="curve"/>
			<point x="71" y="116" type="line"/>
			<point x="95" y="149"/>
			<point x="137" y="164"/>
		</contour>
	</outline>
</glyph>
<glyph name="notequal" format="2">
	<unicode hex="2260"/>
	<advance width="600"/>
	<outline>
		<contour>
			<point x="121" y="62" type="line"/>
			<point x="206" y="62" type="line"/>
			<point x="251" y="138" type="line"/>
			<point x="529" y="138" type="line"/>
			<point x="529" y="233" type="line"/>
			<point x="307" y="233" type="line"/>
			<point x="379" y="355" type="line"/>
			<point x="529" y="355" type="line"/>
			<point x="529" y="450" type="line"/>
			<point x="435" y="450" type="line"/>
			<point x="479" y="524" type="line"/>
			<point x="394" y="524" type="line"/>
			<point x="350" y="450" type="line"/>
			<point x="71" y="450" type="line"/>
			<point x="71" y="355" type="line"/>
			<point x="294" y="355" type="line"/>
			<point x="222" y="233" type="line"/>
			<point x="71" y="233" type="line"/>
			<point x="71" y="138" type="line"/>
			<point x="166" y="138" type="line"/>
		</contour>
	</outline>
</glyph>
<glyph name="lessequal" format="2">
	<unicode hex="2264"/>
	<advance width="600"/>
	<outline>
		<contour>
			<point x="529" y="143" type="line"/>
			<point x="529" y="247" type="line"/>
			<point x="162" y="386" type="line"/>
			<point x="529" y="524" type="line"/>
			<point x="529" y="630" type="line"/>
			<point x="71" y="447" type="line"/>
			<point x="71" y="324" type="line"/>
		</contour>
		<contour>
			<point x="71" y="0" type="line"/>
			<point x="529" y="0" type="line"/>
			<point x="529" y="95" type="line"/>
			<point x="71" y="95" type="line"/>
		</contour>
	</outline>
</glyph>
<glyph name="greaterequal" format="2">
	<unicode hex="2265"/>
	<advance width="600"/>
	<outline>
		<contour>
			<point x="71" y="143" type="line"/>
			<point x="529" y="324" type="line"/>
			<point x="529" y="447" type="line"/>
			<point x="71" y="630" type="line"/>
			<point x="71" y="524" type="line"/>
			<point x="438" y="386" type="line"/>
			<point x="71" y="247" type="line"/>
		</contour>
		<contour>
			<point x="71" y="0" type="line"/>
			<point x="529" y="0" type="line"/>
			<point x="529" y="95" type="line"/>
			<point x="71" y="95" type="line"/>
		</contour>
	</outline>
</glyph>
<glyph name="lozenge" format="2">
	<unicode hex="25CA"/>
	<advance width="600"/>
	<outline>
		<contour>
			<point x="230" y="0" type="line"/>
			<point x="369" y="0" type="line"/>
			<point x="573" y="342" type="line"/>
			<point x="369" y="684" type="line"/>
			<point x="229" y="684" type="line"/>
			<point x="27" y="342" type="line"/>
		</contour>
		<contour>
			<point x="148" y="342" type="line"/>
			<point x="299" y="606" type="line"/>
			<point x="452" y="342" type="line"/>
			<point x="300" y="78" type="line"/>
		</contour>
	</outline>
</glyph>
<glyph name="anglebracketleft" format="2">
	<unicode hex="3008"/>
	<advance width="600"/>
	<outline>
		<contour>
			<point x="414" y="-163" type="line"/>
			<point x="534" y="-163" type="line"/>
			<point x="244" y="317" type="line"/>
			<point x="538" y="792" type="line"/>
			<point x="417" y="792" type="line"/>
			<point x="126" y="316" type="line"/>
		</contour>
	</outline>
</glyph>
<glyph name="anglebracketright" format="2">
	<unicode hex="3009"/>
	<advance width="600"/>
	<outline>
		<contour>
			<point x="62" y="-163" type="line"/>
			<point x="183" y="-163" type="line"/>
			<point x="474" y="314" type="line"/>
			<point x="186" y="792" type="line"/>
			<point x="66" y="792" type="line"/>
			<point x="356" y="314" type="line"/>
		</contour>
	</outline>
</glyph>
<glyph name="Anocross" format="2">
	<advance width="600"/>
	<outline>
		<contour>
			<point x="18" y="0" type="line"/>
			<point x="134" y="0" type="line"/>
			<point x="298" y="604" type="line"/>
			<point x="465" y="0" type="line"/>
			<point x="582" y="0" type="line"/>
			<point x="377" y="686" type="line"/>
			<point x="221" y="686" type="line"/>
		</contour>
	</outline>
	<anchor name="ogonek" x="582" y="0"/>
	<anchor name="bottom" x="325" y="0"/>
	<anchor name="top" x="300" y="684"/>
</glyph>
<glyph name="acute.cap" format="2">
	<advance width="600"/>
	<outline>
		<contour>
			<point x="209" y="746" type="line"/>
			<point x="296" y="746" type="line"/>
			<point x="390" y="884" type="line"/>
			<point x="268" y="884" type="line"/>
		</contour>
	</outline>
	<anchor name="_top" x="252" y="684"/>
</glyph>
<glyph name="ampersand_ampersand.cLig" format="2">
	<advance width="600"/>
	<outline>
		<contour>
			<point x="-302" y="-14" type="curve" smooth="yes"/>
			<point x="-215" y="-14"/>
			<point x="-143" y="17"/>
			<point x="-84" y="82" type="curve"/>
			<point x="-50" y="22"/>
			<point x="17" y="-14"/>
			<point x="105" y="-14" type="curve" smooth="yes"/>
			<point x="193" y="-14"/>
			<point x="264" y="19"/>
			<point x="319" y="75" type="curve"/>
			<point x="392" y="0" type="line"/>
			<point x="521" y="0" type="line"/>
			<point x="378" y="151" type="line"/>
			<point x="419" y="219"/>
			<point x="446" y="303"/>
			<point x="459" y="394" type="curve"/>
			<point x="365" y="394" type="line"/>
			<point x="355" y="329"/>
			<point x="338" y="269"/>
			<point x="314" y="218" type="curve"/>
			<point x="154" y="386" type="line" smooth="yes"/>
			<point x="114" y="427"/>
			<point x="87" y="461"/>
			<point x="87" y="513" type="curve" smooth="yes"/>
			<point x="87" y="571"/>
			<point x="127" y="607"/>
			<point x="196" y="607" type="curve" smooth="yes"/>
			<point x="253" y="607"/>
			<point x="308" y="585"/>
			<point x="344" y="563" type="curve"/>
			<point x="344" y="660" type="line"/>
			<point x="311" y="679"/>
			<point x="253" y="698"/>
			<point x="190" y="698" type="curve" smooth="yes"/>
			<point x="52" y="698"/>
			<point x="-18" y="617"/>
			<point x="-18" y="514" type="curve" smooth="yes"/>
			<point x="-18" y="470"/>
			<point x="-6" y="434"/>
			<point x="14" y="402" type="curve"/>
			<point x="-44" y="367"/>
			<point x="-92" y="311"/>
			<point x="-106" y="234" type="curve"/>
			<point x="-252" y="386" type="line" smooth="yes"/>
			<point x="-291" y="427"/>
			<point x="-318" y="461"/>
			<point x="-318" y="513" type="curve" smooth="yes"/>
			<point x="-318" y="571"/>
			<point x="-279" y="607"/>
			<point x="-211" y="607" type="curve" smooth="yes"/>
			<point x="-157" y="607"/>
			<point x="-107" y="586"/>
			<point x="-74" y="565" type="curve"/>
			<point x="-74" y="663" type="line"/>
			<point x="-104" y="680"/>
			<point x="-157" y="698"/>
			<point x="-218" y="698" type="curve" smooth="yes"/>
			<point x="-353" y="698"/>
			<point x="-423" y="617"/>
			<point x="-423" y="514" type="curve" smooth="yes"/>
			<point x="-423" y="469"/>
			<point x="-411" y="433"/>
			<point x="-391" y="401" type="curve"/>
			<point x="-460" y="359"/>
			<point x="-513" y="287"/>
			<point x="-513" y="187" type="curve" smooth="yes"/>
			<point x="-513" y="60"/>
			<point x="-429" y="-14"/>
		</contour>
		<contour>
			<point x="-10" y="201" type="curve" smooth="yes"/>
			<point x="-10" y="263"/>
			<point x="22" y="310"/>
			<point x="67" y="337" type="curve"/>
			<point x="70" y="333"/>
			<point x="73" y="330"/>
			<point x="77" y="326" type="curve" smooth="yes"/>
			<point x="261" y="136" type="line"/>
			<point x="224" y="97"/>
			<point x="178" y="73"/>
			<point x="122" y="73" type="curve" smooth="yes"/>
			<point x="39" y="73"/>
			<point x="-10" y="128"/>
		</contour>
		<contour>
			<point x="-414" y="201" type="curve" smooth="yes"/>
			<point x="-414" y="263"/>
			<point x="-382" y="309"/>
			<point x="-338" y="336" type="curve"/>
			<point x="-335" y="332"/>
			<point x="-332" y="329"/>
			<point x="-329" y="326" type="curve" smooth="yes"/>
			<point x="-146" y="141" type="line"/>
			<point x="-181" y="98"/>
			<point x="-227" y="73"/>
			<point x="-285" y="73" type="curve" smooth="yes"/>
			<point x="-365" y="73"/>
			<point x="-414" y="122"/>
		</contour>
	</outline>
</glyph>
<glyph name="asciicircum_equal.cLig" format="2">
	<advance width="600"/>
	<outline>
		<contour>
			<point x="-453" y="355" type="line"/>
			<point x="-351" y="355" type="line"/>
			<point x="-222" y="615" type="line"/>
			<point x="-93" y="355" type="line"/>
			<point x="419" y="355" type="line"/>
			<point x="419" y="450" type="line"/>
			<point x="-39" y="450" type="line"/>
			<point x="-39" y="447" type="line"/>
			<point x="-172" y="701" type="line"/>
			<point x="-275" y="701" type="line"/>
		</contour>
		<contour>
			<point x="-39" y="138" type="line"/>
			<point x="419" y="138" type="line"/>
			<point x="419" y="233" type="line"/>
			<point x="-39" y="233" type="line"/>
		</contour>
	</outline>
</glyph>
<glyph name="asciitilde_asciitilde.cLig" format="2">
	<advance width="600"/>
	<outline>
		<contour>
			<point x="-102" y="203" type="curve"/>
			<point x="18" y="203"/>
			<point x="20" y="328"/>
			<point x="100" y="328" type="curve"/>
			<point x="176" y="328"/>
			<point x="192" y="203"/>
			<point x="316" y="203" type="curve"/>
			<point x="413" y="203"/>
			<point x="471" y="285"/>
			<point x="485" y="423" type="curve"/>
			<point x="394" y="423" type="line"/>
			<point x="385" y="350"/>
			<point x="360" y="305"/>
			<point x="312" y="304" type="curve"/>
			<point x="232" y="305"/>
			<point x="226" y="428"/>
			<point x="102" y="428" type="curve"/>
			<point x="-25" y="428"/>
			<point x="-23" y="304"/>
			<point x="-101" y="304" type="curve"/>
			<point x="-174" y="304"/>
			<point x="-187" y="428"/>
			<point x="-306" y="428" type="curve"/>
			<point x="-410" y="428"/>
			<point x="-471" y="347"/>
			<point x="-485" y="209" type="curve"/>
			<point x="-394" y="209" type="line"/>
			<point x="-386" y="283"/>
			<point x="-359" y="327"/>
			<point x="-306" y="327" type="curve"/>
			<point x="-229" y="327"/>
			<point x="-218" y="203"/>
		</contour>
	</outline>
</glyph>
<glyph name="asciitilde_asciitilde_asciitilde.rem" format="2">
	<advance width="600"/>
	<outline>
		<contour>
			<point x="-609" y="202" type="curve"/>
			<point x="-499" y="202"/>
			<point x="-484" y="327"/>
			<point x="-408" y="327" type="curve" smooth="yes"/>
			<point x="-332" y="327"/>
			<point x="-305" y="202"/>
			<point x="-193" y="202" type="curve" smooth="yes"/>
			<point x="-79" y="202"/>
			<point x="-67" y="327"/>
			<point x="12" y="327" type="curve"/>
			<point x="90" y="327"/>
			<point x="114" y="202"/>
			<point x="228" y="202" type="curve"/>
			<point x="326" y="202"/>
			<point x="389" y="283"/>
			<point x="405" y="423" type="curve"/>
			<point x="312" y="423" type="line"/>
			<point x="302" y="354"/>
			<point x="278" y="306"/>
			<point x="221" y="306" type="curve"/>
			<point x="144" y="306"/>
			<point x="133" y="429"/>
			<point x="12" y="429" type="curve"/>
			<point x="-104" y="429"/>
			<point x="-119" y="306"/>
			<point x="-193" y="306" type="curve" smooth="yes"/>
			<point x="-272" y="306"/>
			<point x="-285" y="429"/>
			<point x="-405" y="429" type="curve" smooth="yes"/>
			<point x="-522" y="429"/>
			<point x="-534" y="306"/>
			<point x="-608" y="306" type="curve"/>
			<point x="-689" y="306"/>
			<point x="-713" y="429"/>
			<point x="-823" y="429" type="curve" smooth="yes"/>
			<point x="-925" y="429"/>
			<point x="-990" y="349"/>
			<point x="-1005" y="209" type="curve"/>
			<point x="-911" y="209" type="line"/>
			<point x="-902" y="275"/>
			<point x="-880" y="326"/>
			<point x="-822" y="326" type="curve" smooth="yes"/>
			<point x="-744" y="326"/>
			<point x="-728" y="202"/>
		</contour>
	</outline>
</glyph>
<glyph name="asciitilde_asciitilde_greater.cLig" format="2">
	<advance width="600"/>
	<outline>
		<contour>
			<point x="92" y="627" type="line"/>
			<point x="334" y="363" type="line"/>
			<point x="-9" y="363" type="line"/>
			<point x="-39" y="409"/>
			<point x="-80" y="430"/>
			<point x="-124" y="430" type="curve" smooth="yes"/>
			<point x="-240" y="430"/>
			<point x="-245" y="297"/>
			<point x="-326" y="297" type="curve" smooth="yes"/>
			<point x="-402" y="297"/>
			<point x="-415" y="428"/>
			<point x="-527" y="428" type="curve" smooth="yes"/>
			<point x="-641" y="428"/>
			<point x="-652" y="297"/>
			<point x="-726" y="297" type="curve"/>
			<point x="-803" y="297"/>
			<point x="-816" y="428"/>
			<point x="-936" y="428" type="curve" smooth="yes"/>
			<point x="-1029" y="428"/>
			<point x="-1096" y="353"/>
			<point x="-1114" y="215" type="curve"/>
			<point x="-1022" y="215" type="line"/>
			<point x="-1012" y="285"/>
			<point x="-980" y="325"/>
			<point x="-932" y="325" type="curve" smooth="yes"/>
			<point x="-854" y="325"/>
			<point x="-842" y="196"/>
			<point x="-727" y="196" type="curve"/>
			<point x="-612" y="196"/>
			<point x="-609" y="325"/>
			<point x="-529" y="325" type="curve" smooth="yes"/>
			<point x="-451" y="325"/>
			<point x="-444" y="196"/>
			<point x="-328" y="196" type="curve" smooth="yes"/>
			<point x="-211" y="196"/>
			<point x="-211" y="329"/>
			<point x="-131" y="329" type="curve" smooth="yes"/>
			<point x="-93" y="329"/>
			<point x="-71" y="305"/>
			<point x="-52" y="262" type="curve"/>
			<point x="335" y="262" type="line"/>
			<point x="96" y="-2" type="line"/>
			<point x="226" y="-2" type="line"/>
			<point x="502" y="312" type="line"/>
			<point x="223" y="627" type="line"/>
		</contour>
	</outline>
</glyph>
<glyph name="asciitilde_at.cLig" format="2">
	<advance width="600"/>
	<outline>
		<contour>
			<point x="376" y="-16" type="curve"/>
			<point x="484" y="-16"/>
			<point x="541" y="80"/>
			<point x="541" y="289" type="curve" smooth="yes"/>
			<point x="541" y="303" type="line" smooth="yes"/>
			<point x="541" y="555"/>
			<point x="444" y="698"/>
			<point x="202" y="698" type="curve" smooth="yes"/>
			<point x="-36" y="698"/>
			<point x="-127" y="583"/>
			<point x="-169" y="381" type="curve" smooth="yes"/>
			<point x="-182" y="322"/>
			<point x="-195" y="293"/>
			<point x="-234" y="293" type="curve" smooth="yes"/>
			<point x="-288" y="293"/>
			<point x="-311" y="414"/>
			<point x="-419" y="414" type="curve" smooth="yes"/>
			<point x="-511" y="414"/>
			<point x="-550" y="343"/>
			<point x="-550" y="202" type="curve"/>
			<point x="-462" y="202" type="line"/>
			<point x="-462" y="276"/>
			<point x="-450" y="315"/>
			<point x="-409" y="315" type="curve" smooth="yes"/>
			<point x="-354" y="315"/>
			<point x="-325" y="192"/>
			<point x="-223" y="192" type="curve" smooth="yes"/>
			<point x="-141" y="192"/>
			<point x="-99" y="241"/>
			<point x="-78" y="352" type="curve" smooth="yes"/>
			<point x="-47" y="526"/>
			<point x="29" y="611"/>
			<point x="197" y="611" type="curve" smooth="yes"/>
			<point x="384" y="611"/>
			<point x="445" y="497"/>
			<point x="445" y="312" type="curve" smooth="yes"/>
			<point x="445" y="285" type="line" smooth="yes"/>
			<point x="445" y="115"/>
			<point x="421" y="64"/>
			<point x="383" y="64" type="curve" smooth="yes"/>
			<point x="353" y="64"/>
			<point x="344" y="88"/>
			<point x="344" y="144" type="curve"/>
			<point x="344" y="481" type="line"/>
			<point x="254" y="481" type="line"/>
			<point x="254" y="398" type="line"/>
			<point x="234" y="454"/>
			<point x="200" y="492"/>
			<point x="137" y="492" type="curve" smooth="yes"/>
			<point x="50" y="491"/>
			<point x="-9" y="414"/>
			<point x="-9" y="272" type="curve" smooth="yes"/>
			<point x="-9" y="142"/>
			<point x="43" y="63"/>
			<point x="136" y="62" type="curve" smooth="yes"/>
			<point x="204" y="62"/>
			<point x="239" y="105"/>
			<point x="255" y="166" type="curve"/>
			<point x="255" y="126" type="line" smooth="yes"/>
			<point x="255" y="24"/>
			<point x="300" y="-16"/>
		</contour>
		<contour>
			<point x="165" y="142" type="curve" smooth="yes"/>
			<point x="114" y="142"/>
			<point x="88" y="187"/>
			<point x="88" y="277" type="curve" smooth="yes"/>
			<point x="88" y="367"/>
			<point x="115" y="410"/>
			<point x="168" y="410" type="curve" smooth="yes"/>
			<point x="218" y="410"/>
			<point x="252" y="363"/>
			<point x="252" y="275" type="curve" smooth="yes"/>
			<point x="252" y="183"/>
			<point x="220" y="142"/>
		</contour>
	</outline>
</glyph>
<glyph name="asciitilde_greater.cLig" format="2">
	<advance width="600"/>
	<outline>
		<contour>
			<point x="94" y="629" type="line"/>
			<point x="335" y="365" type="line"/>
			<point x="-107" y="365" type="line"/>
			<point x="-113" y="321"/>
			<point x="-134" y="295"/>
			<point x="-166" y="295" type="curve" smooth="yes"/>
			<point x="-233" y="295"/>
			<point x="-257" y="422"/>
			<point x="-370" y="422" type="curve" smooth="yes"/>
			<point x="-451" y="422"/>
			<point x="-504" y="369"/>
			<point x="-504" y="212" type="curve"/>
			<point x="-415" y="212" type="line"/>
			<point x="-415" y="288"/>
			<point x="-399" y="320"/>
			<point x="-359" y="320" type="curve"/>
			<point x="-292" y="320"/>
			<point x="-261" y="194"/>
			<point x="-157" y="194" type="curve" smooth="yes"/>
			<point x="-105" y="194"/>
			<point x="-68" y="218"/>
			<point x="-47" y="264" type="curve"/>
			<point x="336" y="264" type="line"/>
			<point x="97" y="0" type="line"/>
			<point x="228" y="0" type="line"/>
			<point x="503" y="314" type="line"/>
			<point x="225" y="629" type="line"/>
		</contour>
	</outline>
</glyph>
<glyph name="aster_comp" format="2">
	<advance width="600"/>
	<outline>
		<contour>
			<point x="243" y="529" type="curve" smooth="yes"/>
			<point x="213" y="312" type="line"/>
			<point x="321" y="312" type="line"/>
			<point x="290" y="529" type="line" smooth="yes"/>
			<point x="288" y="540"/>
			<point x="284" y="547"/>
			<point x="277" y="550" type="curve"/>
			<point x="284" y="553"/>
			<point x="288" y="560"/>
			<point x="290" y="571" type="curve" smooth="yes"/>
			<point x="320" y="787" type="line"/>
			<point x="212" y="787" type="line"/>
			<point x="243" y="571" type="line" smooth="yes"/>
			<point x="245" y="560"/>
			<point x="249" y="553"/>
			<point x="256" y="550" type="curve"/>
			<point x="249" y="547"/>
			<point x="244" y="540"/>
		</contour>
	</outline>
	<guideline x="227.0863309353" y="633.2805755396" angle="90" identifier="54PxHYazxO"/>
	<guideline x="266.1366906475" y="648.8633093525" angle="0" identifier="Cnqam7gnZ3"/>
</glyph>
<glyph name="asterisk_large.rem" format="2">
	<advance width="600"/>
	<outline>
		<contour>
			<point x="482" y="153" type="line"/>
			<point x="537" y="248" type="line"/>
			<point x="356" y="321" type="line"/>
			<point x="538" y="394" type="line"/>
			<point x="483" y="490" type="line"/>
			<point x="328" y="368" type="line"/>
			<point x="355" y="563" type="line"/>
			<point x="245" y="563" type="line"/>
			<point x="272" y="369" type="line"/>
			<point x="117" y="490" type="line"/>
			<point x="62" y="395" type="line"/>
			<point x="245" y="321" type="line"/>
			<point x="63" y="247" type="line"/>
			<point x="118" y="151" type="line"/>
			<point x="272" y="273" type="line"/>
			<point x="246" y="78" type="line"/>
			<point x="356" y="78" type="line"/>
			<point x="328" y="273" type="line"/>
		</contour>
	</outline>
</glyph>
<glyph name="asterisk_slash.cLig" format="2">
	<advance width="600"/>
	<outline>
		<contour>
			<point x="372" y="792" type="line"/>
			<point x="8" y="-163" type="line"/>
			<point x="117" y="-163" type="line"/>
			<point x="482" y="792" type="line"/>
		</contour>
		<contour>
			<point x="-67" y="153" type="line"/>
			<point x="-12" y="248" type="line"/>
			<point x="-193" y="321" type="line"/>
			<point x="-11" y="394" type="line"/>
			<point x="-66" y="490" type="line"/>
			<point x="-221" y="368" type="line"/>
			<point x="-194" y="563" type="line"/>
			<point x="-304" y="563" type="line"/>
			<point x="-277" y="369" type="line"/>
			<point x="-432" y="490" type="line"/>
			<point x="-487" y="395" type="line"/>
			<point x="-304" y="321" type="line"/>
			<point x="-486" y="247" type="line"/>
			<point x="-431" y="151" type="line"/>
			<point x="-277" y="273" type="line"/>
			<point x="-303" y="78" type="line"/>
			<point x="-193" y="78" type="line"/>
			<point x="-221" y="273" type="line"/>
		</contour>
	</outline>
</glyph>
<glyph name="backslash_backslash.rem" format="2">
	<advance width="600"/>
	<outline>
		<contour>
			<point x="-110" y="-163" type="line"/>
			<point x="1" y="-163" type="line"/>
			<point x="-364" y="792" type="line"/>
			<point x="-475" y="792" type="line"/>
		</contour>
		<contour>
			<point x="364" y="-163" type="line"/>
			<point x="475" y="-163" type="line"/>
			<point x="110" y="792" type="line"/>
			<point x="-1" y="792" type="line"/>
		</contour>
	</outline>
</glyph>
<glyph name="backslash_slash.cLig" format="2">
	<advance width="600"/>
	<outline>
		<contour>
			<point x="-79" y="-163" type="line"/>
			<point x="78" y="-163" type="line"/>
			<point x="443" y="792" type="line"/>
			<point x="333" y="792" type="line"/>
			<point x="0" y="-80" type="line"/>
			<point x="-333" y="792" type="line"/>
			<point x="-444" y="792" type="line"/>
		</contour>
	</outline>
</glyph>
<glyph name="bar_bar_equal.fina" format="2">
	<advance width="600"/>
	<outline>
		<contour>
			<point x="-600" y="158" type="line"/>
			<point x="-122" y="158" type="line"/>
			<point x="-122" y="-55" type="line"/>
			<point x="-18" y="-55" type="line"/>
			<point x="-18" y="684" type="line"/>
			<point x="-122" y="684" type="line"/>
			<point x="-122" y="471" type="line"/>
			<point x="-600" y="471" type="line"/>
			<point x="-600" y="375" type="line"/>
			<point x="-122" y="375" type="line"/>
			<point x="-122" y="254" type="line"/>
			<point x="-600" y="254" type="line"/>
		</contour>
		<contour>
			<point x="258" y="684" type="line"/>
			<point x="258" y="-55" type="line"/>
			<point x="362" y="-55" type="line"/>
			<point x="362" y="684" type="line"/>
		</contour>
	</outline>
</glyph>
<glyph name="bar_equal.med" format="2">
	<advance width="600"/>
	<outline>
		<contour>
			<point x="0" y="158" type="line"/>
			<point x="248" y="158" type="line"/>
			<point x="248" y="-55" type="line"/>
			<point x="352" y="-55" type="line"/>
			<point x="352" y="158" type="line"/>
			<point x="600" y="158" type="line"/>
			<point x="600" y="254" type="line"/>
			<point x="352" y="254" type="line"/>
			<point x="352" y="375" type="line"/>
			<point x="600" y="375" type="line"/>
			<point x="600" y="471" type="line"/>
			<point x="352" y="471" type="line"/>
			<point x="352" y="684" type="line"/>
			<point x="248" y="684" type="line"/>
			<point x="248" y="471" type="line"/>
			<point x="0" y="471" type="line"/>
			<point x="0" y="375" type="line"/>
			<point x="248" y="375" type="line"/>
			<point x="248" y="254" type="line"/>
			<point x="0" y="254" type="line"/>
		</contour>
	</outline>
</glyph>
<glyph name="bar_equal.rem" format="2">
	<advance width="600"/>
	<outline>
		<contour>
			<point x="-365" y="684" type="line"/>
			<point x="-365" y="-55" type="line"/>
			<point x="-260" y="-55" type="line"/>
			<point x="-260" y="158" type="line"/>
			<point x="432" y="158" type="line"/>
			<point x="432" y="254" type="line"/>
			<point x="-260" y="254" type="line"/>
			<point x="-260" y="375" type="line"/>
			<point x="432" y="375" type="line"/>
			<point x="432" y="471" type="line"/>
			<point x="-260" y="471" type="line"/>
			<point x="-260" y="684" type="line"/>
		</contour>
	</outline>
</glyph>
<glyph name="braceleft_braceleft_numbersign.cLig" format="2">
	<advance width="600"/>
	<outline>
		<contour>
			<point x="-611" y="-163" type="line"/>
			<point x="-611" y="-81" type="line"/>
			<point x="-754" y="-81" type="line" smooth="yes"/>
			<point x="-813" y="-81"/>
			<point x="-846" y="-54"/>
			<point x="-846" y="-6" type="curve"/>
			<point x="-846" y="70"/>
			<point x="-751" y="118"/>
			<point x="-751" y="210" type="curve" smooth="yes"/>
			<point x="-751" y="264"/>
			<point x="-803" y="304"/>
			<point x="-874" y="315" type="curve"/>
			<point x="-800" y="327"/>
			<point x="-751" y="368"/>
			<point x="-751" y="422" type="curve" smooth="yes"/>
			<point x="-751" y="511"/>
			<point x="-846" y="564"/>
			<point x="-846" y="633" type="curve" smooth="yes"/>
			<point x="-846" y="683"/>
			<point x="-811" y="709"/>
			<point x="-750" y="709" type="curve" smooth="yes"/>
			<point x="-423" y="709" type="line"/>
			<point x="-478" y="692"/>
			<point x="-497" y="652"/>
			<point x="-497" y="616" type="curve" smooth="yes"/>
			<point x="-497" y="534"/>
			<point x="-407" y="485"/>
			<point x="-407" y="423" type="curve" smooth="yes"/>
			<point x="-407" y="394"/>
			<point x="-427" y="362"/>
			<point x="-493" y="362" type="curve" smooth="yes"/>
			<point x="-567" y="362" type="line"/>
			<point x="-567" y="266" type="line"/>
			<point x="-492" y="266" type="line" smooth="yes"/>
			<point x="-421" y="266"/>
			<point x="-401" y="230"/>
			<point x="-401" y="201" type="curve" smooth="yes"/>
			<point x="-401" y="127"/>
			<point x="-497" y="72"/>
			<point x="-497" y="-20" type="curve"/>
			<point x="-497" y="-100"/>
			<point x="-445" y="-163"/>
			<point x="-326" y="-163" type="curve" smooth="yes"/>
			<point x="-142" y="-163" type="line"/>
			<point x="-142" y="-81" type="line"/>
			<point x="-291" y="-81" type="line" smooth="yes"/>
			<point x="-351" y="-81"/>
			<point x="-384" y="-56"/>
			<point x="-384" y="-7" type="curve"/>
			<point x="-384" y="63"/>
			<point x="-290" y="116"/>
			<point x="-290" y="206" type="curve" smooth="yes"/>
			<point x="-290" y="263"/>
			<point x="-341" y="303"/>
			<point x="-409" y="315" type="curve"/>
			<point x="-342" y="328"/>
			<point x="-289" y="366"/>
			<point x="-289" y="424" type="curve" smooth="yes"/>
			<point x="-289" y="510"/>
			<point x="-384" y="564"/>
			<point x="-384" y="633" type="curve" smooth="yes"/>
			<point x="-384" y="683"/>
			<point x="-347" y="709"/>
			<point x="-286" y="709" type="curve" smooth="yes"/>
			<point x="-129" y="709" type="line"/>
			<point x="-129" y="791" type="line"/>
			<point x="-789" y="791" type="line" smooth="yes"/>
			<point x="-899" y="791"/>
			<point x="-960" y="724"/>
			<point x="-960" y="648" type="curve" smooth="yes"/>
			<point x="-960" y="552"/>
			<point x="-864" y="496"/>
			<point x="-864" y="427" type="curve" smooth="yes"/>
			<point x="-864" y="398"/>
			<point x="-885" y="361"/>
			<point x="-951" y="361" type="curve" smooth="yes"/>
			<point x="-1028" y="361" type="line"/>
			<point x="-1028" y="266" type="line"/>
			<point x="-951" y="266" type="line" smooth="yes"/>
			<point x="-886" y="266"/>
			<point x="-864" y="230"/>
			<point x="-864" y="201" type="curve" smooth="yes"/>
			<point x="-864" y="130"/>
			<point x="-960" y="77"/>
			<point x="-960" y="-20" type="curve"/>
			<point x="-960" y="-101"/>
			<point x="-904" y="-163"/>
			<point x="-789" y="-163" type="curve" smooth="yes"/>
		</contour>
		<contour>
			<point x="-130" y="249" type="line"/>
			<point x="-130" y="163" type="line"/>
			<point x="-6" y="163" type="line"/>
			<point x="-22" y="0" type="line"/>
			<point x="68" y="0" type="line"/>
			<point x="83" y="163" type="line"/>
			<point x="212" y="163" type="line"/>
			<point x="196" y="0" type="line"/>
			<point x="284" y="0" type="line"/>
			<point x="300" y="163" type="line"/>
			<point x="410" y="163" type="line"/>
			<point x="410" y="249" type="line"/>
			<point x="308" y="249" type="line"/>
			<point x="327" y="444" type="line"/>
			<point x="434" y="444" type="line"/>
			<point x="434" y="531" type="line"/>
			<point x="335" y="531" type="line"/>
			<point x="350" y="684" type="line"/>
			<point x="261" y="684" type="line"/>
			<point x="246" y="531" type="line"/>
			<point x="118" y="531" type="line"/>
			<point x="132" y="684" type="line"/>
			<point x="44" y="684" type="line"/>
			<point x="29" y="531" type="line"/>
			<point x="-130" y="531" type="line"/>
			<point x="-130" y="444" type="line"/>
			<point x="21" y="444" type="line"/>
			<point x="2" y="249" type="line"/>
		</contour>
		<contour>
			<point x="91" y="249" type="line"/>
			<point x="110" y="444" type="line"/>
			<point x="238" y="444" type="line"/>
			<point x="220" y="249" type="line"/>
		</contour>
	</outline>
</glyph>
<glyph name="braceleft_hyphen.rem" format="2">
	<advance width="600"/>
	<outline>
		<contour>
			<point x="-7" y="792" type="line"/>
			<point x="-168" y="792" type="line" smooth="yes"/>
			<point x="-282" y="792"/>
			<point x="-338" y="734"/>
			<point x="-338" y="656" type="curve" smooth="yes"/>
			<point x="-338" y="564"/>
			<point x="-239" y="500"/>
			<point x="-239" y="434" type="curve" smooth="yes"/>
			<point x="-239" y="400"/>
			<point x="-258" y="364"/>
			<point x="-324" y="364" type="curve" smooth="yes"/>
			<point x="-400" y="364" type="line"/>
			<point x="-400" y="267" type="line"/>
			<point x="-324" y="267" type="line" smooth="yes"/>
			<point x="-258" y="267"/>
			<point x="-239" y="232"/>
			<point x="-239" y="201" type="curve" smooth="yes"/>
			<point x="-239" y="134"/>
			<point x="-338" y="68"/>
			<point x="-338" y="-27" type="curve" smooth="yes"/>
			<point x="-338" y="-104"/>
			<point x="-278" y="-163"/>
			<point x="-168" y="-163" type="curve" smooth="yes"/>
			<point x="-7" y="-163" type="line"/>
			<point x="-7" y="-81" type="line"/>
			<point x="-135" y="-81" type="line" smooth="yes"/>
			<point x="-189" y="-81"/>
			<point x="-224" y="-60"/>
			<point x="-224" y="-13" type="curve" smooth="yes"/>
			<point x="-224" y="53"/>
			<point x="-127" y="108"/>
			<point x="-127" y="185" type="curve" smooth="yes"/>
			<point x="-127" y="228"/>
			<point x="-159" y="255"/>
			<point x="-204" y="268" type="curve"/>
			<point x="432" y="268" type="line"/>
			<point x="432" y="361" type="line"/>
			<point x="-204" y="361" type="line"/>
			<point x="-158" y="376"/>
			<point x="-127" y="404"/>
			<point x="-127" y="447" type="curve" smooth="yes"/>
			<point x="-127" y="526"/>
			<point x="-224" y="576"/>
			<point x="-224" y="641" type="curve" smooth="yes"/>
			<point x="-224" y="687"/>
			<point x="-190" y="710"/>
			<point x="-131" y="710" type="curve" smooth="yes"/>
			<point x="-7" y="710" type="line"/>
		</contour>
	</outline>
</glyph>
<glyph name="braceleft_numbersign.cLig" format="2">
	<advance width="600"/>
	<outline>
		<contour>
			<point x="-485" y="265" type="line"/>
			<point x="-418" y="265" type="line" smooth="yes"/>
			<point x="-353" y="265"/>
			<point x="-331" y="228"/>
			<point x="-331" y="199" type="curve" smooth="yes"/>
			<point x="-331" y="132"/>
			<point x="-434" y="72"/>
			<point x="-434" y="-22" type="curve" smooth="yes"/>
			<point x="-434" y="-100"/>
			<point x="-379" y="-163"/>
			<point x="-264" y="-163" type="curve" smooth="yes"/>
			<point x="-104" y="-163" type="line"/>
			<point x="-104" y="-81" type="line"/>
			<point x="-229" y="-81" type="line" smooth="yes"/>
			<point x="-289" y="-81"/>
			<point x="-322" y="-57"/>
			<point x="-322" y="-9" type="curve" smooth="yes"/>
			<point x="-322" y="59"/>
			<point x="-220" y="114"/>
			<point x="-220" y="203" type="curve" smooth="yes"/>
			<point x="-220" y="258"/>
			<point x="-272" y="302"/>
			<point x="-342" y="313" type="curve"/>
			<point x="-272" y="324"/>
			<point x="-220" y="369"/>
			<point x="-220" y="424" type="curve" smooth="yes"/>
			<point x="-220" y="513"/>
			<point x="-322" y="569"/>
			<point x="-322" y="639" type="curve" smooth="yes"/>
			<point x="-322" y="688"/>
			<point x="-286" y="710"/>
			<point x="-232" y="710" type="curve" smooth="yes"/>
			<point x="-104" y="710" type="line"/>
			<point x="-104" y="792" type="line"/>
			<point x="-264" y="792" type="line" smooth="yes"/>
			<point x="-375" y="792"/>
			<point x="-434" y="728"/>
			<point x="-434" y="652" type="curve" smooth="yes"/>
			<point x="-434" y="557"/>
			<point x="-331" y="496"/>
			<point x="-331" y="428" type="curve" smooth="yes"/>
			<point x="-331" y="398"/>
			<point x="-353" y="362"/>
			<point x="-418" y="362" type="curve" smooth="yes"/>
			<point x="-485" y="362" type="line"/>
		</contour>
		<contour>
			<point x="-95" y="249" type="line"/>
			<point x="-95" y="163" type="line"/>
			<point x="29" y="163" type="line"/>
			<point x="13" y="0" type="line"/>
			<point x="103" y="0" type="line"/>
			<point x="118" y="163" type="line"/>
			<point x="247" y="163" type="line"/>
			<point x="231" y="0" type="line"/>
			<point x="319" y="0" type="line"/>
			<point x="335" y="163" type="line"/>
			<point x="445" y="163" type="line"/>
			<point x="445" y="249" type="line"/>
			<point x="343" y="249" type="line"/>
			<point x="362" y="444" type="line"/>
			<point x="469" y="444" type="line"/>
			<point x="469" y="531" type="line"/>
			<point x="370" y="531" type="line"/>
			<point x="385" y="684" type="line"/>
			<point x="296" y="684" type="line"/>
			<point x="281" y="531" type="line"/>
			<point x="153" y="531" type="line"/>
			<point x="167" y="684" type="line"/>
			<point x="79" y="684" type="line"/>
			<point x="64" y="531" type="line"/>
			<point x="-95" y="531" type="line"/>
			<point x="-95" y="444" type="line"/>
			<point x="56" y="444" type="line"/>
			<point x="37" y="249" type="line"/>
		</contour>
		<contour>
			<point x="126" y="249" type="line"/>
			<point x="145" y="444" type="line"/>
			<point x="273" y="444" type="line"/>
			<point x="255" y="249" type="line"/>
		</contour>
	</outline>
</glyph>
<glyph name="braceright_numbersign.cLig" format="2">
	<advance width="600"/>
	<outline>
		<contour>
			<point x="-500" y="-164" type="line"/>
			<point x="-343" y="-164" type="line" smooth="yes"/>
			<point x="-233" y="-164"/>
			<point x="-174" y="-99"/>
			<point x="-173" y="-23" type="curve" smooth="yes"/>
			<point x="-172" y="71"/>
			<point x="-278" y="133"/>
			<point x="-277" y="200" type="curve" smooth="yes"/>
			<point x="-276" y="231"/>
			<point x="-256" y="267"/>
			<point x="-190" y="267" type="curve" smooth="yes"/>
			<point x="-147" y="267" type="line"/>
			<point x="-147" y="364" type="line"/>
			<point x="-189" y="363" type="line" smooth="yes"/>
			<point x="-254" y="364"/>
			<point x="-276" y="401"/>
			<point x="-276" y="430" type="curve" smooth="yes"/>
			<point x="-277" y="496"/>
			<point x="-173" y="558"/>
			<point x="-173" y="652" type="curve" smooth="yes"/>
			<point x="-173" y="729"/>
			<point x="-229" y="791"/>
			<point x="-344" y="791" type="curve" smooth="yes"/>
			<point x="-501" y="791" type="line"/>
			<point x="-501" y="709" type="line"/>
			<point x="-379" y="709" type="line" smooth="yes"/>
			<point x="-321" y="709"/>
			<point x="-287" y="685"/>
			<point x="-287" y="638" type="curve" smooth="yes"/>
			<point x="-286" y="569"/>
			<point x="-390" y="515"/>
			<point x="-390" y="426" type="curve" smooth="yes"/>
			<point x="-390" y="371"/>
			<point x="-338" y="326"/>
			<point x="-267" y="315" type="curve"/>
			<point x="-338" y="304"/>
			<point x="-389" y="259"/>
			<point x="-389" y="205" type="curve" smooth="yes"/>
			<point x="-389" y="116"/>
			<point x="-286" y="59"/>
			<point x="-287" y="-10" type="curve" smooth="yes"/>
			<point x="-287" y="-59"/>
			<point x="-321" y="-81"/>
			<point x="-376" y="-81" type="curve" smooth="yes"/>
			<point x="-500" y="-81" type="line"/>
		</contour>
		<contour>
			<point x="-55" y="249" type="line"/>
			<point x="-55" y="163" type="line"/>
			<point x="68" y="163" type="line"/>
			<point x="53" y="0" type="line"/>
			<point x="143" y="0" type="line"/>
			<point x="158" y="163" type="line"/>
			<point x="286" y="163" type="line"/>
			<point x="271" y="0" type="line"/>
			<point x="359" y="0" type="line"/>
			<point x="374" y="163" type="line"/>
			<point x="485" y="163" type="line"/>
			<point x="485" y="249" type="line"/>
			<point x="383" y="249" type="line"/>
			<point x="401" y="444" type="line"/>
			<point x="508" y="444" type="line"/>
			<point x="508" y="531" type="line"/>
			<point x="410" y="531" type="line"/>
			<point x="424" y="684" type="line"/>
			<point x="335" y="684" type="line"/>
			<point x="321" y="531" type="line"/>
			<point x="192" y="531" type="line"/>
			<point x="207" y="684" type="line"/>
			<point x="118" y="684" type="line"/>
			<point x="104" y="531" type="line"/>
			<point x="-55" y="531" type="line"/>
			<point x="-55" y="444" type="line"/>
			<point x="95" y="444" type="line"/>
			<point x="77" y="249" type="line"/>
		</contour>
		<contour>
			<point x="166" y="249" type="line"/>
			<point x="184" y="444" type="line"/>
			<point x="313" y="444" type="line"/>
			<point x="294" y="249" type="line"/>
		</contour>
	</outline>
</glyph>
<glyph name="bracketleft_bracketleft_numbersign.cLig" format="2">
	<advance width="600"/>
	<outline>
		<contour>
			<point x="-133" y="249" type="line"/>
			<point x="-133" y="163" type="line"/>
			<point x="-9" y="163" type="line"/>
			<point x="-25" y="0" type="line"/>
			<point x="65" y="0" type="line"/>
			<point x="80" y="163" type="line"/>
			<point x="209" y="163" type="line"/>
			<point x="193" y="0" type="line"/>
			<point x="281" y="0" type="line"/>
			<point x="297" y="163" type="line"/>
			<point x="407" y="163" type="line"/>
			<point x="407" y="249" type="line"/>
			<point x="305" y="249" type="line"/>
			<point x="324" y="444" type="line"/>
			<point x="431" y="444" type="line"/>
			<point x="431" y="531" type="line"/>
			<point x="332" y="531" type="line"/>
			<point x="347" y="684" type="line"/>
			<point x="258" y="684" type="line"/>
			<point x="243" y="531" type="line"/>
			<point x="115" y="531" type="line"/>
			<point x="129" y="684" type="line"/>
			<point x="41" y="684" type="line"/>
			<point x="26" y="531" type="line"/>
			<point x="-133" y="531" type="line"/>
			<point x="-133" y="444" type="line"/>
			<point x="18" y="444" type="line"/>
			<point x="-1" y="249" type="line"/>
		</contour>
		<contour>
			<point x="88" y="249" type="line"/>
			<point x="107" y="444" type="line"/>
			<point x="235" y="444" type="line"/>
			<point x="217" y="249" type="line"/>
		</contour>
		<contour>
			<point x="-995" y="-163" type="line"/>
			<point x="-601" y="-163" type="line"/>
			<point x="-601" y="-81" type="line"/>
			<point x="-890" y="-81" type="line"/>
			<point x="-890" y="710" type="line"/>
			<point x="-601" y="710" type="line"/>
			<point x="-601" y="792" type="line"/>
			<point x="-995" y="792" type="line"/>
		</contour>
		<contour>
			<point x="-518" y="-163" type="line"/>
			<point x="-183" y="-163" type="line"/>
			<point x="-183" y="-81" type="line"/>
			<point x="-413" y="-81" type="line"/>
			<point x="-413" y="710" type="line"/>
			<point x="-183" y="710" type="line"/>
			<point x="-183" y="792" type="line"/>
			<point x="-518" y="792" type="line"/>
		</contour>
	</outline>
</glyph>
<glyph name="caron.cap" format="2">
	<advance width="600"/>
	<outline>
		<contour>
			<point x="477" y="884" type="line"/>
			<point x="377" y="884" type="line"/>
			<point x="300" y="794" type="line"/>
			<point x="223" y="884" type="line"/>
			<point x="122" y="884" type="line"/>
			<point x="243" y="746" type="line"/>
			<point x="356" y="746" type="line"/>
		</contour>
	</outline>
	<anchor name="_top" x="301" y="684"/>
</glyph>
<glyph name="circumflex.cap" format="2">
	<advance width="600"/>
	<outline>
		<contour>
			<point x="122" y="746" type="line"/>
			<point x="223" y="746" type="line"/>
			<point x="300" y="836" type="line"/>
			<point x="376" y="746" type="line"/>
			<point x="477" y="746" type="line"/>
			<point x="356" y="884" type="line"/>
			<point x="243" y="884" type="line"/>
		</contour>
	</outline>
	<anchor name="_top" x="300" y="684"/>
</glyph>
<glyph name="colon_colon_equal.cLig" format="2">
	<advance width="600"/>
	<outline>
		<contour>
			<point x="-865" y="69" type="curve" smooth="yes"/>
			<point x="-809" y="69"/>
			<point x="-779" y="90"/>
			<point x="-779" y="148" type="curve" smooth="yes"/>
			<point x="-779" y="204"/>
			<point x="-809" y="224"/>
			<point x="-865" y="224" type="curve" smooth="yes"/>
			<point x="-921" y="224"/>
			<point x="-951" y="204"/>
			<point x="-951" y="148" type="curve" smooth="yes"/>
			<point x="-951" y="90"/>
			<point x="-921" y="69"/>
		</contour>
		<contour>
			<point x="-865" y="359" type="curve" smooth="yes"/>
			<point x="-809" y="359"/>
			<point x="-779" y="380"/>
			<point x="-779" y="438" type="curve" smooth="yes"/>
			<point x="-779" y="494"/>
			<point x="-809" y="514"/>
			<point x="-865" y="514" type="curve" smooth="yes"/>
			<point x="-921" y="514"/>
			<point x="-951" y="494"/>
			<point x="-951" y="438" type="curve" smooth="yes"/>
			<point x="-951" y="380"/>
			<point x="-921" y="359"/>
		</contour>
		<contour>
			<point x="-486" y="69" type="curve" smooth="yes"/>
			<point x="-430" y="69"/>
			<point x="-400" y="90"/>
			<point x="-400" y="148" type="curve" smooth="yes"/>
			<point x="-400" y="204"/>
			<point x="-430" y="224"/>
			<point x="-486" y="224" type="curve" smooth="yes"/>
			<point x="-542" y="224"/>
			<point x="-572" y="204"/>
			<point x="-572" y="148" type="curve" smooth="yes"/>
			<point x="-572" y="90"/>
			<point x="-542" y="69"/>
		</contour>
		<contour>
			<point x="-486" y="359" type="curve" smooth="yes"/>
			<point x="-430" y="359"/>
			<point x="-400" y="380"/>
			<point x="-400" y="438" type="curve" smooth="yes"/>
			<point x="-400" y="494"/>
			<point x="-430" y="514"/>
			<point x="-486" y="514" type="curve" smooth="yes"/>
			<point x="-542" y="514"/>
			<point x="-572" y="494"/>
			<point x="-572" y="438" type="curve" smooth="yes"/>
			<point x="-572" y="380"/>
			<point x="-542" y="359"/>
		</contour>
		<contour>
			<point x="-165.5287769776" y="355" type="line"/>
			<point x="360.0179856176" y="355" type="line"/>
			<point x="360.0179856176" y="450" type="line"/>
			<point x="-165.5287769776" y="450" type="line"/>
		</contour>
		<contour>
			<point x="-165.5287769776" y="138" type="line"/>
			<point x="360.0179856176" y="138" type="line"/>
			<point x="360.0179856176" y="233" type="line"/>
			<point x="-165.5287769776" y="233" type="line"/>
		</contour>
	</outline>
</glyph>
<glyph name="colon_equal.cLig" format="2">
	<advance width="600"/>
	<outline>
		<contour>
			<point x="-337" y="69" type="curve" smooth="yes"/>
			<point x="-281" y="69"/>
			<point x="-251" y="90"/>
			<point x="-251" y="148" type="curve" smooth="yes"/>
			<point x="-251" y="204"/>
			<point x="-281" y="224"/>
			<point x="-337" y="224" type="curve" smooth="yes"/>
			<point x="-393" y="224"/>
			<point x="-423" y="204"/>
			<point x="-423" y="148" type="curve" smooth="yes"/>
			<point x="-423" y="90"/>
			<point x="-393" y="69"/>
		</contour>
		<contour>
			<point x="-337" y="359" type="curve" smooth="yes"/>
			<point x="-281" y="359"/>
			<point x="-251" y="380"/>
			<point x="-251" y="438" type="curve" smooth="yes"/>
			<point x="-251" y="494"/>
			<point x="-281" y="514"/>
			<point x="-337" y="514" type="curve" smooth="yes"/>
			<point x="-393" y="514"/>
			<point x="-423" y="494"/>
			<point x="-423" y="438" type="curve" smooth="yes"/>
			<point x="-423" y="380"/>
			<point x="-393" y="359"/>
		</contour>
		<contour>
			<point x="-71.7172661894" y="355" type="line"/>
			<point x="426.8107913494" y="355" type="line"/>
			<point x="426.8107913494" y="450" type="line"/>
			<point x="-71.7172661894" y="450" type="line"/>
		</contour>
		<contour>
			<point x="-71.7172661894" y="138" type="line"/>
			<point x="426.8107913494" y="138" type="line"/>
			<point x="426.8107913494" y="233" type="line"/>
			<point x="-71.7172661894" y="233" type="line"/>
		</contour>
	</outline>
</glyph>
<glyph name="colon_greater.cLig.x" format="2">
	<advance width="600"/>
	<outline>
		<contour>
			<point x="-9" y="-8" type="line"/>
			<point x="436" y="253" type="line"/>
			<point x="436" y="375" type="line"/>
			<point x="-9" y="637" type="line"/>
			<point x="-9" y="524" type="line"/>
			<point x="356" y="314" type="line"/>
			<point x="-9" y="102" type="line"/>
		</contour>
		<contour>
			<point x="-301" y="423" type="curve" smooth="yes"/>
			<point x="-245" y="423"/>
			<point x="-215" y="444"/>
			<point x="-215" y="502" type="curve" smooth="yes"/>
			<point x="-215" y="558"/>
			<point x="-245" y="578"/>
			<point x="-301" y="578" type="curve" smooth="yes"/>
			<point x="-357" y="578"/>
			<point x="-387" y="558"/>
			<point x="-387" y="502" type="curve" smooth="yes"/>
			<point x="-387" y="444"/>
			<point x="-357" y="423"/>
		</contour>
		<contour>
			<point x="-301" y="42" type="curve" smooth="yes"/>
			<point x="-245" y="42"/>
			<point x="-215" y="63"/>
			<point x="-215" y="121" type="curve" smooth="yes"/>
			<point x="-215" y="177"/>
			<point x="-245" y="197"/>
			<point x="-301" y="197" type="curve" smooth="yes"/>
			<point x="-357" y="197"/>
			<point x="-387" y="177"/>
			<point x="-387" y="121" type="curve" smooth="yes"/>
			<point x="-387" y="63"/>
			<point x="-357" y="42"/>
		</contour>
	</outline>
</glyph>
<glyph name="colon_less.cLig.x" format="2">
	<advance width="600"/>
	<outline>
		<contour>
			<point x="428" y="-8" type="line"/>
			<point x="428" y="104" type="line"/>
			<point x="64" y="315" type="line"/>
			<point x="428" y="526" type="line"/>
			<point x="428" y="637" type="line"/>
			<point x="-18" y="375" type="line"/>
			<point x="-18" y="253" type="line"/>
		</contour>
		<contour>
			<point x="-301" y="423" type="curve" smooth="yes"/>
			<point x="-245" y="423"/>
			<point x="-215" y="444"/>
			<point x="-215" y="502" type="curve" smooth="yes"/>
			<point x="-215" y="558"/>
			<point x="-245" y="578"/>
			<point x="-301" y="578" type="curve" smooth="yes"/>
			<point x="-357" y="578"/>
			<point x="-387" y="558"/>
			<point x="-387" y="502" type="curve" smooth="yes"/>
			<point x="-387" y="444"/>
			<point x="-357" y="423"/>
		</contour>
		<contour>
			<point x="-301" y="42" type="curve" smooth="yes"/>
			<point x="-245" y="42"/>
			<point x="-215" y="63"/>
			<point x="-215" y="121" type="curve" smooth="yes"/>
			<point x="-215" y="177"/>
			<point x="-245" y="197"/>
			<point x="-301" y="197" type="curve" smooth="yes"/>
			<point x="-357" y="197"/>
			<point x="-387" y="177"/>
			<point x="-387" y="121" type="curve" smooth="yes"/>
			<point x="-387" y="63"/>
			<point x="-357" y="42"/>
		</contour>
	</outline>
</glyph>
<glyph name="cordinal" format="2">
	<advance width="600"/>
	<outline>
		<contour>
			<point x="363" y="225" type="curve" smooth="yes"/>
			<point x="409" y="225"/>
			<point x="451" y="235"/>
			<point x="481" y="249" type="curve"/>
			<point x="481" y="321" type="line"/>
			<point x="453" y="309"/>
			<point x="414" y="299"/>
			<point x="373" y="299" type="curve" smooth="yes"/>
			<point x="274" y="299"/>
			<point x="211" y="356"/>
			<point x="211" y="463" type="curve" smooth="yes"/>
			<point x="211" y="567"/>
			<point x="274" y="622"/>
			<point x="371" y="622" type="curve" smooth="yes"/>
			<point x="412" y="622"/>
			<point x="451" y="612"/>
			<point x="481" y="597" type="curve"/>
			<point x="481" y="673" type="line"/>
			<point x="449" y="688"/>
			<point x="408" y="695"/>
			<point x="361" y="695" type="curve" smooth="yes"/>
			<point x="216" y="695"/>
			<point x="115" y="609"/>
			<point x="115" y="461" type="curve" smooth="yes"/>
			<point x="115" y="311"/>
			<point x="212" y="225"/>
		</contour>
	</outline>
</glyph>
<glyph name="dieresis.cap" format="2">
	<advance width="600"/>
	<outline>
		<contour>
			<point x="399" y="867" type="curve" smooth="yes"/>
			<point x="352" y="867"/>
			<point x="336" y="848"/>
			<point x="336" y="810" type="curve" smooth="yes"/>
			<point x="336" y="774"/>
			<point x="352" y="755"/>
			<point x="399" y="755" type="curve" smooth="yes"/>
			<point x="447" y="755"/>
			<point x="463" y="775"/>
			<point x="463" y="810" type="curve" smooth="yes"/>
			<point x="463" y="848"/>
			<point x="447" y="867"/>
		</contour>
		<contour>
			<point x="201" y="755" type="curve" smooth="yes"/>
			<point x="249" y="755"/>
			<point x="264" y="775"/>
			<point x="264" y="810" type="curve" smooth="yes"/>
			<point x="264" y="848"/>
			<point x="249" y="867"/>
			<point x="201" y="867" type="curve" smooth="yes"/>
			<point x="154" y="867"/>
			<point x="137" y="848"/>
			<point x="137" y="810" type="curve" smooth="yes"/>
			<point x="137" y="774"/>
			<point x="154" y="755"/>
		</contour>
	</outline>
	<anchor name="_top" x="300" y="684"/>
</glyph>
<glyph name="dollar_greater.cLig" format="2">
	<advance width="600"/>
	<outline>
		<contour>
			<point x="-383" y="-93" type="line"/>
			<point x="-305" y="-93" type="line"/>
			<point x="-292" y="-11" type="line"/>
			<point x="-282" y="-11"/>
			<point x="-272" y="-12"/>
			<point x="-261" y="-12" type="curve" smooth="yes"/>
			<point x="-120" y="-12"/>
			<point x="-23" y="64"/>
			<point x="-23" y="207" type="curve" smooth="yes"/>
			<point x="-23" y="339"/>
			<point x="-122" y="370"/>
			<point x="-235" y="390" type="curve"/>
			<point x="-201" y="599" type="line"/>
			<point x="-117" y="585"/>
			<point x="-32" y="543"/>
			<point x="85" y="486" type="curve" smooth="yes"/>
			<point x="427" y="315" type="line"/>
			<point x="88" y="147" type="line"/>
			<point x="88" y="38" type="line"/>
			<point x="512" y="253" type="line"/>
			<point x="512" y="375" type="line"/>
			<point x="130" y="573" type="line" smooth="yes"/>
			<point x="37" y="622"/>
			<point x="-72" y="670"/>
			<point x="-179" y="688" type="curve"/>
			<point x="-165" y="774" type="line"/>
			<point x="-243" y="774" type="line"/>
			<point x="-256" y="695" type="line"/>
			<point x="-259" y="696"/>
			<point x="-262" y="696"/>
			<point x="-265" y="696" type="curve" smooth="yes"/>
			<point x="-415" y="696"/>
			<point x="-523" y="622"/>
			<point x="-523" y="484" type="curve" smooth="yes"/>
			<point x="-523" y="348"/>
			<point x="-431" y="316"/>
			<point x="-314" y="295" type="curve"/>
			<point x="-347" y="91" type="line"/>
			<point x="-408" y="104"/>
			<point x="-464" y="132"/>
			<point x="-514" y="172" type="curve"/>
			<point x="-514" y="66" type="line"/>
			<point x="-474" y="37"/>
			<point x="-427" y="13"/>
			<point x="-369" y="0" type="curve"/>
		</contour>
		<contour>
			<point x="-412" y="496" type="curve" smooth="yes"/>
			<point x="-412" y="570"/>
			<point x="-352" y="605"/>
			<point x="-265" y="605" type="curve" smooth="yes"/>
			<point x="-264" y="605" type="line"/>
			<point x="-297" y="400" type="line"/>
			<point x="-366" y="413"/>
			<point x="-412" y="431"/>
		</contour>
		<contour>
			<point x="-135" y="191" type="curve" smooth="yes"/>
			<point x="-135" y="116"/>
			<point x="-185" y="81"/>
			<point x="-261" y="81" type="curve" smooth="yes"/>
			<point x="-269" y="81"/>
			<point x="-277" y="82"/>
			<point x="-285" y="82" type="curve"/>
			<point x="-252" y="285" type="line"/>
			<point x="-181" y="273"/>
			<point x="-135" y="256"/>
		</contour>
	</outline>
</glyph>
<glyph name="dotaccent.cap" format="2">
	<advance width="600"/>
	<outline>
		<contour>
			<point x="300" y="755" type="curve" smooth="yes"/>
			<point x="354" y="755"/>
			<point x="371" y="776"/>
			<point x="371" y="816" type="curve" smooth="yes"/>
			<point x="371" y="854"/>
			<point x="353" y="875"/>
			<point x="300" y="875" type="curve" smooth="yes"/>
			<point x="247" y="875"/>
			<point x="229" y="855"/>
			<point x="229" y="816" type="curve" smooth="yes"/>
			<point x="229" y="776"/>
			<point x="247" y="755"/>
		</contour>
	</outline>
	<anchor name="_top" x="300" y="684"/>
</glyph>
<glyph name="dotbelow" format="2">
	<advance width="600"/>
	<outline>
		<contour>
			<point x="300" y="-172" type="curve" smooth="yes"/>
			<point x="350" y="-172"/>
			<point x="371" y="-151"/>
			<point x="371" y="-106" type="curve" smooth="yes"/>
			<point x="371" y="-61"/>
			<point x="350" y="-40"/>
			<point x="300" y="-40" type="curve" smooth="yes"/>
			<point x="250" y="-40"/>
			<point x="228" y="-61"/>
			<point x="228" y="-106" type="curve" smooth="yes"/>
			<point x="228" y="-151"/>
			<point x="251" y="-172"/>
		</contour>
	</outline>
	<anchor name="bottom" x="301" y="0"/>
</glyph>
<glyph name="equal.init" format="2">
	<advance width="600"/>
	<outline>
		<contour>
			<point x="168" y="375" type="line"/>
			<point x="600" y="375" type="line"/>
			<point x="600" y="471" type="line"/>
			<point x="168" y="471" type="line"/>
		</contour>
		<contour>
			<point x="168" y="158" type="line"/>
			<point x="600" y="158" type="line"/>
			<point x="600" y="254" type="line"/>
			<point x="168" y="254" type="line"/>
		</contour>
	</outline>
	<guideline x="375.5251798561" y="583.5755395683" angle="0" identifier="c2Y1Sn7BVk"/>
</glyph>
<glyph name="equal_colon_equal.rem" format="2">
	<advance width="600"/>
	<outline>
		<contour>
			<point x="-300" y="69" type="curve" smooth="yes"/>
			<point x="-244" y="69"/>
			<point x="-214" y="90"/>
			<point x="-214" y="148" type="curve" smooth="yes"/>
			<point x="-214" y="204"/>
			<point x="-244" y="224"/>
			<point x="-300" y="224" type="curve" smooth="yes"/>
			<point x="-356" y="224"/>
			<point x="-386" y="204"/>
			<point x="-386" y="148" type="curve" smooth="yes"/>
			<point x="-386" y="90"/>
			<point x="-356" y="69"/>
		</contour>
		<contour>
			<point x="-300" y="359" type="curve" smooth="yes"/>
			<point x="-244" y="359"/>
			<point x="-214" y="380"/>
			<point x="-214" y="438" type="curve" smooth="yes"/>
			<point x="-214" y="494"/>
			<point x="-244" y="514"/>
			<point x="-300" y="514" type="curve" smooth="yes"/>
			<point x="-356" y="514"/>
			<point x="-386" y="494"/>
			<point x="-386" y="438" type="curve" smooth="yes"/>
			<point x="-386" y="380"/>
			<point x="-356" y="359"/>
		</contour>
		<contour>
			<point x="-1032.8115107882" y="355" type="line"/>
			<point x="-547.7928057318" y="355" type="line"/>
			<point x="-547.7928057318" y="450" type="line"/>
			<point x="-1032.8115107882" y="450" type="line"/>
		</contour>
		<contour>
			<point x="-1032.8115107882" y="138" type="line"/>
			<point x="-547.7928057318" y="138" type="line"/>
			<point x="-547.7928057318" y="233" type="line"/>
			<point x="-1032.8115107882" y="233" type="line"/>
		</contour>
		<contour>
			<point x="-51.8115107882" y="355" type="line"/>
			<point x="433.2071942682" y="355" type="line"/>
			<point x="433.2071942682" y="450" type="line"/>
			<point x="-51.8115107882" y="450" type="line"/>
		</contour>
		<contour>
			<point x="-51.8115107882" y="138" type="line"/>
			<point x="433.2071942682" y="138" type="line"/>
			<point x="433.2071942682" y="233" type="line"/>
			<point x="-51.8115107882" y="233" type="line"/>
		</contour>
	</outline>
</glyph>
<glyph name="equal_equal.cLig" format="2">
	<advance width="600"/>
	<outline>
		<contour>
			<point x="-432" y="355" type="line"/>
			<point x="432" y="355" type="line"/>
			<point x="432" y="450" type="line"/>
			<point x="-432" y="450" type="line"/>
		</contour>
		<contour>
			<point x="-432" y="138" type="line"/>
			<point x="432" y="138" type="line"/>
			<point x="432" y="233" type="line"/>
			<point x="-432" y="233" type="line"/>
		</contour>
	</outline>
</glyph>
<glyph name="equal_equal_equal.cLig" format="2">
	<advance width="600"/>
	<outline>
		<contour>
			<point x="-1050" y="473" type="line"/>
			<point x="450" y="473" type="line"/>
			<point x="450" y="563" type="line"/>
			<point x="-1050" y="563" type="line"/>
		</contour>
		<contour>
			<point x="-1050" y="268" type="line"/>
			<point x="450" y="268" type="line"/>
			<point x="450" y="358" type="line"/>
			<point x="-1050" y="358" type="line"/>
		</contour>
		<contour>
			<point x="-1050" y="63" type="line"/>
			<point x="450" y="63" type="line"/>
			<point x="450" y="153" type="line"/>
			<point x="-1050" y="153" type="line"/>
		</contour>
	</outline>
</glyph>
<glyph name="equal_exclam_equal.rem" format="2">
	<advance width="600"/>
	<outline>
		<contour>
			<point x="-341" y="212" type="line"/>
			<point x="-261" y="212" type="line"/>
			<point x="-239" y="547" type="line"/>
			<point x="-239" y="684" type="line"/>
			<point x="-362" y="684" type="line"/>
			<point x="-362" y="548" type="line"/>
		</contour>
		<contour>
			<point x="-299" y="-12" type="curve" smooth="yes"/>
			<point x="-248" y="-12"/>
			<point x="-222" y="8"/>
			<point x="-222" y="58" type="curve" smooth="yes"/>
			<point x="-222" y="109"/>
			<point x="-248" y="129"/>
			<point x="-299" y="129" type="curve" smooth="yes"/>
			<point x="-352" y="129"/>
			<point x="-378" y="109"/>
			<point x="-378" y="58" type="curve" smooth="yes"/>
			<point x="-378" y="8"/>
			<point x="-352" y="-12"/>
		</contour>
		<contour>
			<point x="-1032.8115107882" y="355" type="line"/>
			<point x="-547.7928057318" y="355" type="line"/>
			<point x="-547.7928057318" y="450" type="line"/>
			<point x="-1032.8115107882" y="450" type="line"/>
		</contour>
		<contour>
			<point x="-1032.8115107882" y="138" type="line"/>
			<point x="-547.7928057318" y="138" type="line"/>
			<point x="-547.7928057318" y="233" type="line"/>
			<point x="-1032.8115107882" y="233" type="line"/>
		</contour>
		<contour>
			<point x="-51.8115107882" y="355" type="line"/>
			<point x="433.2071942682" y="355" type="line"/>
			<point x="433.2071942682" y="450" type="line"/>
			<point x="-51.8115107882" y="450" type="line"/>
		</contour>
		<contour>
			<point x="-51.8115107882" y="138" type="line"/>
			<point x="433.2071942682" y="138" type="line"/>
			<point x="433.2071942682" y="233" type="line"/>
			<point x="-51.8115107882" y="233" type="line"/>
		</contour>
	</outline>
</glyph>
<glyph name="equal_less.rem" format="2">
	<advance width="600"/>
	<outline>
		<contour>
			<point x="-80" y="629" type="line"/>
			<point x="-209" y="629" type="line"/>
			<point x="-480" y="316" type="line"/>
			<point x="-206" y="0" type="line"/>
			<point x="-77" y="0" type="line"/>
			<point x="-215" y="158" type="line"/>
			<point x="432" y="158" type="line"/>
			<point x="432" y="254" type="line"/>
			<point x="-299" y="254" type="line"/>
			<point x="-352" y="314" type="line"/>
			<point x="-299" y="375" type="line"/>
			<point x="432" y="375" type="line"/>
			<point x="432" y="471" type="line"/>
			<point x="-217" y="471" type="line"/>
		</contour>
	</outline>
</glyph>
<glyph name="equal_less_less.rem" format="2">
	<advance width="600"/>
	<outline>
		<contour>
			<point x="504" y="629" type="line"/>
			<point x="372" y="629" type="line"/>
			<point x="99" y="316" type="line"/>
			<point x="375" y="0" type="line"/>
			<point x="507" y="0" type="line"/>
			<point x="228" y="315" type="line"/>
		</contour>
		<contour>
			<point x="116" y="629" type="line"/>
			<point x="-14" y="629" type="line"/>
			<point x="-146" y="471" type="line"/>
			<point x="-1032" y="471" type="line"/>
			<point x="-1032" y="375" type="line"/>
			<point x="-99" y="375" type="line"/>
		</contour>
		<contour>
			<point x="-98" y="254" type="line"/>
			<point x="-1032" y="254" type="line"/>
			<point x="-1032" y="158" type="line"/>
			<point x="-145" y="158" type="line"/>
			<point x="-11" y="0" type="line"/>
			<point x="119" y="0" type="line"/>
		</contour>
	</outline>
</glyph>
<glyph name="equal_slash_equal.rem" format="2">
	<advance width="600"/>
	<outline>
		<contour>
			<point x="-1032" y="143" type="line"/>
			<point x="-445" y="143" type="line"/>
			<point x="-583" y="-76" type="line"/>
			<point x="-479" y="-76" type="line"/>
			<point x="-342" y="143" type="line"/>
			<point x="432" y="143" type="line"/>
			<point x="432" y="238" type="line"/>
			<point x="-282" y="238" type="line"/>
			<point x="-205" y="360" type="line"/>
			<point x="432" y="360" type="line"/>
			<point x="432" y="455" type="line"/>
			<point x="-145" y="455" type="line"/>
			<point x="-23" y="648" type="line"/>
			<point x="-127" y="648" type="line"/>
			<point x="-248" y="455" type="line"/>
			<point x="-1032" y="455" type="line"/>
			<point x="-1032" y="360" type="line"/>
			<point x="-308" y="360" type="line"/>
			<point x="-385" y="238" type="line"/>
			<point x="-1032" y="238" type="line"/>
		</contour>
	</outline>
</glyph>
<glyph name="exclam_asciitilde.cLig" format="2">
	<advance width="600"/>
	<outline>
		<contour>
			<point x="-320" y="138" type="line"/>
			<point x="-147" y="138" type="line"/>
			<point x="-282" y="-76" type="line"/>
			<point x="-181" y="-76" type="line"/>
			<point x="-45" y="138" type="line"/>
			<point x="320" y="138" type="line"/>
			<point x="320" y="234" type="line"/>
			<point x="15" y="234" type="line"/>
			<point x="71" y="324" type="line"/>
			<point x="97" y="315"/>
			<point x="126" y="310"/>
			<point x="157" y="310" type="curve" smooth="yes"/>
			<point x="228" y="310"/>
			<point x="288" y="339"/>
			<point x="320" y="387" type="curve"/>
			<point x="320" y="495" type="line"/>
			<point x="267" y="425"/>
			<point x="216" y="406"/>
			<point x="150" y="407" type="curve" smooth="yes"/>
			<point x="142" y="407"/>
			<point x="133" y="408"/>
			<point x="125" y="410" type="curve"/>
			<point x="275" y="648" type="line"/>
			<point x="174" y="648" type="line"/>
			<point x="43" y="439" type="line"/>
			<point x="-17" y="468"/>
			<point x="-79" y="505"/>
			<point x="-159" y="505" type="curve" smooth="yes"/>
			<point x="-226" y="505"/>
			<point x="-289" y="476"/>
			<point x="-320" y="429" type="curve"/>
			<point x="-320" y="320" type="line"/>
			<point x="-278" y="382"/>
			<point x="-219" y="408"/>
			<point x="-158" y="408" type="curve" smooth="yes"/>
			<point x="-105" y="408"/>
			<point x="-59" y="383"/>
			<point x="-9" y="358" type="curve"/>
			<point x="-87" y="234" type="line"/>
			<point x="-320" y="234" type="line"/>
		</contour>
	</outline>
</glyph>
<glyph name="exclam_equal.cLig" format="2">
	<advance width="600"/>
	<outline>
		<contour>
			<point x="-432" y="138" type="line"/>
			<point x="-145" y="138" type="line"/>
			<point x="-280" y="-76" type="line"/>
			<point x="-176" y="-76" type="line"/>
			<point x="-42" y="138" type="line"/>
			<point x="432" y="138" type="line"/>
			<point x="432" y="233" type="line"/>
			<point x="18" y="233" type="line"/>
			<point x="95" y="355" type="line"/>
			<point x="432" y="355" type="line"/>
			<point x="432" y="450" type="line"/>
			<point x="155" y="450" type="line"/>
			<point x="280" y="648" type="line"/>
			<point x="176" y="648" type="line"/>
			<point x="52" y="450" type="line"/>
			<point x="-432" y="450" type="line"/>
			<point x="-432" y="355" type="line"/>
			<point x="-8" y="355" type="line"/>
			<point x="-85" y="233" type="line"/>
			<point x="-432" y="233" type="line"/>
		</contour>
	</outline>
</glyph>
<glyph name="exclam_equal.med" format="2">
	<advance width="600"/>
	<outline>
		<contour>
			<point x="259" y="212" type="line"/>
			<point x="339" y="212" type="line"/>
			<point x="361" y="547" type="line"/>
			<point x="361" y="684" type="line"/>
			<point x="238" y="684" type="line"/>
			<point x="238" y="548" type="line"/>
		</contour>
		<contour>
			<point x="498" y="375" type="line"/>
			<point x="600" y="375" type="line"/>
			<point x="600" y="471" type="line"/>
			<point x="498" y="471" type="line"/>
		</contour>
		<contour>
			<point x="0" y="375" type="line"/>
			<point x="102" y="375" type="line"/>
			<point x="102" y="471" type="line"/>
			<point x="0" y="471" type="line"/>
		</contour>
		<contour>
			<point x="498" y="158" type="line"/>
			<point x="600" y="158" type="line"/>
			<point x="600" y="254" type="line"/>
			<point x="498" y="254" type="line"/>
		</contour>
		<contour>
			<point x="0" y="158" type="line"/>
			<point x="102" y="158" type="line"/>
			<point x="102" y="254" type="line"/>
			<point x="0" y="254" type="line"/>
		</contour>
		<contour>
			<point x="301" y="-12" type="curve" smooth="yes"/>
			<point x="352" y="-12"/>
			<point x="378" y="8"/>
			<point x="378" y="58" type="curve" smooth="yes"/>
			<point x="378" y="109"/>
			<point x="352" y="129"/>
			<point x="301" y="129" type="curve" smooth="yes"/>
			<point x="248" y="129"/>
			<point x="222" y="109"/>
			<point x="222" y="58" type="curve" smooth="yes"/>
			<point x="222" y="8"/>
			<point x="248" y="-12"/>
		</contour>
	</outline>
</glyph>
<glyph name="exclam_exclam_exclam.rem" format="2">
	<advance width="600"/>
	<outline>
		<contour>
			<point x="-825" y="212" type="line"/>
			<point x="-745" y="212" type="line"/>
			<point x="-723" y="547" type="line"/>
			<point x="-723" y="684" type="line"/>
			<point x="-846" y="684" type="line"/>
			<point x="-846" y="548" type="line"/>
		</contour>
		<contour>
			<point x="-783" y="-12" type="curve" smooth="yes"/>
			<point x="-732" y="-12"/>
			<point x="-706" y="8"/>
			<point x="-706" y="58" type="curve" smooth="yes"/>
			<point x="-706" y="109"/>
			<point x="-732" y="129"/>
			<point x="-783" y="129" type="curve" smooth="yes"/>
			<point x="-836" y="129"/>
			<point x="-862" y="109"/>
			<point x="-862" y="58" type="curve" smooth="yes"/>
			<point x="-862" y="8"/>
			<point x="-836" y="-12"/>
		</contour>
		<contour>
			<point x="-341" y="212" type="line"/>
			<point x="-261" y="212" type="line"/>
			<point x="-239" y="547" type="line"/>
			<point x="-239" y="684" type="line"/>
			<point x="-362" y="684" type="line"/>
			<point x="-362" y="548" type="line"/>
		</contour>
		<contour>
			<point x="-299" y="-12" type="curve" smooth="yes"/>
			<point x="-248" y="-12"/>
			<point x="-222" y="8"/>
			<point x="-222" y="58" type="curve" smooth="yes"/>
			<point x="-222" y="109"/>
			<point x="-248" y="129"/>
			<point x="-299" y="129" type="curve" smooth="yes"/>
			<point x="-352" y="129"/>
			<point x="-378" y="109"/>
			<point x="-378" y="58" type="curve" smooth="yes"/>
			<point x="-378" y="8"/>
			<point x="-352" y="-12"/>
		</contour>
		<contour>
			<point x="144" y="212" type="line"/>
			<point x="224" y="212" type="line"/>
			<point x="246" y="547" type="line"/>
			<point x="246" y="684" type="line"/>
			<point x="123" y="684" type="line"/>
			<point x="123" y="548" type="line"/>
		</contour>
		<contour>
			<point x="186" y="-12" type="curve" smooth="yes"/>
			<point x="237" y="-12"/>
			<point x="263" y="8"/>
			<point x="263" y="58" type="curve" smooth="yes"/>
			<point x="263" y="109"/>
			<point x="237" y="129"/>
			<point x="186" y="129" type="curve" smooth="yes"/>
			<point x="133" y="129"/>
			<point x="107" y="109"/>
			<point x="107" y="58" type="curve" smooth="yes"/>
			<point x="107" y="8"/>
			<point x="133" y="-12"/>
		</contour>
	</outline>
</glyph>
<glyph name="five.den" format="2">
	<advance width="600"/>
	<outline>
		<contour>
			<point x="295" y="-8" type="curve" smooth="yes"/>
			<point x="388" y="-8"/>
			<point x="448" y="48"/>
			<point x="448" y="134" type="curve" smooth="yes"/>
			<point x="448" y="213"/>
			<point x="402" y="252"/>
			<point x="313" y="252" type="curve" smooth="yes"/>
			<point x="288" y="252"/>
			<point x="265" y="250"/>
			<point x="241" y="245" type="curve"/>
			<point x="242" y="347" type="line"/>
			<point x="438" y="347" type="line"/>
			<point x="438" y="410" type="line"/>
			<point x="171" y="410" type="line"/>
			<point x="171" y="176" type="line"/>
			<point x="211" y="189"/>
			<point x="243" y="195"/>
			<point x="279" y="195" type="curve" smooth="yes"/>
			<point x="345" y="195"/>
			<point x="368" y="171"/>
			<point x="368" y="130" type="curve" smooth="yes"/>
			<point x="368" y="84"/>
			<point x="341" y="56"/>
			<point x="288" y="56" type="curve" smooth="yes"/>
			<point x="246" y="56"/>
			<point x="199" y="70"/>
			<point x="156" y="102" type="curve"/>
			<point x="156" y="34" type="line"/>
			<point x="192" y="8"/>
			<point x="238" y="-8"/>
		</contour>
	</outline>
</glyph>
<glyph name="five.numr" format="2">
	<advance width="600"/>
	<outline>
		<contour>
			<point x="295" y="366" type="curve" smooth="yes"/>
			<point x="374" y="366"/>
			<point x="425" y="413"/>
			<point x="425" y="486" type="curve" smooth="yes"/>
			<point x="425" y="553"/>
			<point x="386" y="586"/>
			<point x="309" y="586" type="curve" smooth="yes"/>
			<point x="287" y="586"/>
			<point x="268" y="583"/>
			<point x="250" y="579" type="curve"/>
			<point x="250" y="660" type="line"/>
			<point x="418" y="660" type="line"/>
			<point x="418" y="718" type="line"/>
			<point x="191" y="718" type="line"/>
			<point x="191" y="519" type="line"/>
			<point x="223" y="529"/>
			<point x="250" y="534"/>
			<point x="281" y="534" type="curve" smooth="yes"/>
			<point x="334" y="534"/>
			<point x="355" y="515"/>
			<point x="355" y="482" type="curve" smooth="yes"/>
			<point x="355" y="446"/>
			<point x="332" y="423"/>
			<point x="288" y="423" type="curve" smooth="yes"/>
			<point x="253" y="423"/>
			<point x="216" y="433"/>
			<point x="177" y="460" type="curve"/>
			<point x="177" y="399" type="line"/>
			<point x="207" y="378"/>
			<point x="246" y="366"/>
		</contour>
	</outline>
</glyph>
<glyph name="four.numr" format="2">
	<advance width="600"/>
	<outline>
		<contour>
			<point x="328" y="372" type="line"/>
			<point x="396" y="372" type="line"/>
			<point x="396" y="436" type="line"/>
			<point x="432" y="436" type="line"/>
			<point x="432" y="492" type="line"/>
			<point x="396" y="492" type="line"/>
			<point x="396" y="718" type="line"/>
			<point x="293" y="718" type="line"/>
			<point x="157" y="492" type="line"/>
			<point x="157" y="436" type="line"/>
			<point x="328" y="436" type="line"/>
		</contour>
		<contour>
			<point x="222" y="492" type="line"/>
			<point x="328" y="672" type="line"/>
			<point x="328" y="492" type="line"/>
		</contour>
	</outline>
</glyph>
<glyph name="greater_colon.cLig.x" format="2">
	<advance width="600"/>
	<outline>
		<contour>
			<point x="-428" y="-8" type="line"/>
			<point x="18" y="253" type="line"/>
			<point x="18" y="375" type="line"/>
			<point x="-428" y="637" type="line"/>
			<point x="-428" y="524" type="line"/>
			<point x="-63" y="314" type="line"/>
			<point x="-428" y="102" type="line"/>
		</contour>
		<contour>
			<point x="306" y="423" type="curve" smooth="yes"/>
			<point x="362" y="423"/>
			<point x="392" y="444"/>
			<point x="392" y="502" type="curve" smooth="yes"/>
			<point x="392" y="558"/>
			<point x="362" y="578"/>
			<point x="306" y="578" type="curve" smooth="yes"/>
			<point x="250" y="578"/>
			<point x="220" y="558"/>
			<point x="220" y="502" type="curve" smooth="yes"/>
			<point x="220" y="444"/>
			<point x="250" y="423"/>
		</contour>
		<contour>
			<point x="306" y="42" type="curve" smooth="yes"/>
			<point x="362" y="42"/>
			<point x="392" y="63"/>
			<point x="392" y="121" type="curve" smooth="yes"/>
			<point x="392" y="177"/>
			<point x="362" y="197"/>
			<point x="306" y="197" type="curve" smooth="yes"/>
			<point x="250" y="197"/>
			<point x="220" y="177"/>
			<point x="220" y="121" type="curve" smooth="yes"/>
			<point x="220" y="63"/>
			<point x="250" y="42"/>
		</contour>
	</outline>
</glyph>
<glyph name="greater_equal.init" format="2">
	<advance width="600"/>
	<outline>
		<contour>
			<point x="268" y="375" type="line"/>
			<point x="600" y="375" type="line"/>
			<point x="600" y="471" type="line"/>
			<point x="315" y="471" type="line"/>
			<point x="181" y="629" type="line"/>
			<point x="51" y="629" type="line"/>
		</contour>
		<contour>
			<point x="54" y="0" type="line"/>
			<point x="184" y="0" type="line"/>
			<point x="316" y="158" type="line"/>
			<point x="600" y="158" type="line"/>
			<point x="600" y="254" type="line"/>
			<point x="269" y="254" type="line"/>
		</contour>
	</outline>
</glyph>
<glyph name="greater_greater_equal.fina" format="2">
	<advance width="600"/>
	<outline>
		<contour>
			<point x="79" y="0" type="line"/>
			<point x="208" y="0" type="line"/>
			<point x="482" y="314" type="line"/>
			<point x="206" y="629" type="line"/>
			<point x="76" y="629" type="line"/>
			<point x="352" y="316" type="line"/>
		</contour>
		<contour>
			<point x="-600" y="158" type="line"/>
			<point x="-163" y="158" type="line"/>
			<point x="-300" y="0" type="line"/>
			<point x="-171" y="0" type="line"/>
			<point x="101" y="313" type="line"/>
			<point x="-174" y="629" type="line"/>
			<point x="-303" y="629" type="line"/>
			<point x="-164" y="471" type="line"/>
			<point x="-600" y="471" type="line"/>
			<point x="-600" y="375" type="line"/>
			<point x="-80" y="375" type="line"/>
			<point x="-27" y="315" type="line"/>
			<point x="-80" y="254" type="line"/>
			<point x="-600" y="254" type="line"/>
		</contour>
	</outline>
</glyph>
<glyph name="greater_greater_equal.init" format="2">
	<advance width="600"/>
	<outline>
		<contour>
			<point x="-524" y="0" type="line"/>
			<point x="-392" y="0" type="line"/>
			<point x="-119" y="313" type="line"/>
			<point x="-395" y="629" type="line"/>
			<point x="-527" y="629" type="line"/>
			<point x="-248" y="314" type="line"/>
		</contour>
		<contour>
			<point x="78" y="375" type="line"/>
			<point x="600" y="375" type="line"/>
			<point x="600" y="471" type="line"/>
			<point x="125" y="471" type="line"/>
			<point x="-9" y="629" type="line"/>
			<point x="-139" y="629" type="line"/>
		</contour>
		<contour>
			<point x="-136" y="0" type="line"/>
			<point x="-6" y="0" type="line"/>
			<point x="126" y="158" type="line"/>
			<point x="600" y="158" type="line"/>
			<point x="600" y="254" type="line"/>
			<point x="79" y="254" type="line"/>
		</contour>
	</outline>
</glyph>
<glyph name="greater_greater_equal.rem" format="2">
	<advance width="600"/>
	<outline>
		<contour>
			<point x="-1104" y="0" type="line"/>
			<point x="-972" y="0" type="line"/>
			<point x="-699" y="313" type="line"/>
			<point x="-975" y="629" type="line"/>
			<point x="-1107" y="629" type="line"/>
			<point x="-828" y="314" type="line"/>
		</contour>
		<contour>
			<point x="-502" y="375" type="line"/>
			<point x="432" y="375" type="line"/>
			<point x="432" y="471" type="line"/>
			<point x="-455" y="471" type="line"/>
			<point x="-589" y="629" type="line"/>
			<point x="-719" y="629" type="line"/>
		</contour>
		<contour>
			<point x="-716" y="0" type="line"/>
			<point x="-586" y="0" type="line"/>
			<point x="-454" y="158" type="line"/>
			<point x="432" y="158" type="line"/>
			<point x="432" y="254" type="line"/>
			<point x="-501" y="254" type="line"/>
		</contour>
	</outline>
</glyph>
<glyph name="greater_hyphen.fina" format="2">
	<advance width="600"/>
	<outline>
		<contour>
			<point x="113" y="629" type="line"/>
			<point x="354" y="365" type="line"/>
			<point x="0" y="365" type="line"/>
			<point x="0" y="264" type="line"/>
			<point x="355" y="264" type="line"/>
			<point x="116" y="0" type="line"/>
			<point x="247" y="0" type="line"/>
			<point x="522" y="314" type="line"/>
			<point x="244" y="629" type="line"/>
		</contour>
	</outline>
</glyph>
<glyph name="greater_hyphen.init" format="2">
	<advance width="600"/>
	<outline>
		<contour>
			<point x="88" y="0" type="line"/>
			<point x="219" y="0" type="line"/>
			<point x="449" y="264" type="line"/>
			<point x="600" y="264" type="line"/>
			<point x="600" y="365" type="line"/>
			<point x="447" y="365" type="line"/>
			<point x="216" y="629" type="line"/>
			<point x="85" y="629" type="line"/>
			<point x="359" y="314" type="line"/>
		</contour>
	</outline>
</glyph>
<glyph name="greater_hyphen.rem" format="2">
	<advance width="600"/>
	<outline>
		<contour>
			<point x="-480" y="0" type="line"/>
			<point x="-349" y="0" type="line"/>
			<point x="-119" y="264" type="line"/>
			<point x="464" y="264" type="line"/>
			<point x="464" y="365" type="line"/>
			<point x="-121" y="365" type="line"/>
			<point x="-352" y="629" type="line"/>
			<point x="-483" y="629" type="line"/>
			<point x="-209" y="314" type="line"/>
		</contour>
	</outline>
</glyph>
<glyph name="less_asciitilde_asciitilde.cLig" format="2">
	<advance width="600"/>
	<outline>
		<contour>
			<point x="-692" y="0" type="line"/>
			<point x="-934" y="264" type="line"/>
			<point x="-591" y="264" type="line"/>
			<point x="-561" y="218"/>
			<point x="-520" y="197"/>
			<point x="-476" y="197" type="curve" smooth="yes"/>
			<point x="-360" y="197"/>
			<point x="-355" y="330"/>
			<point x="-274" y="330" type="curve" smooth="yes"/>
			<point x="-198" y="330"/>
			<point x="-185" y="199"/>
			<point x="-73" y="199" type="curve" smooth="yes"/>
			<point x="41" y="199"/>
			<point x="52" y="330"/>
			<point x="126" y="330" type="curve"/>
			<point x="203" y="330"/>
			<point x="216" y="199"/>
			<point x="336" y="199" type="curve" smooth="yes"/>
			<point x="429" y="199"/>
			<point x="496" y="274"/>
			<point x="514" y="412" type="curve"/>
			<point x="422" y="412" type="line"/>
			<point x="412" y="342"/>
			<point x="380" y="302"/>
			<point x="332" y="302" type="curve" smooth="yes"/>
			<point x="254" y="302"/>
			<point x="242" y="431"/>
			<point x="127" y="431" type="curve"/>
			<point x="12" y="431"/>
			<point x="9" y="302"/>
			<point x="-71" y="302" type="curve" smooth="yes"/>
			<point x="-149" y="302"/>
			<point x="-156" y="431"/>
			<point x="-272" y="431" type="curve" smooth="yes"/>
			<point x="-389" y="431"/>
			<point x="-389" y="298"/>
			<point x="-469" y="298" type="curve" smooth="yes"/>
			<point x="-507" y="298"/>
			<point x="-529" y="322"/>
			<point x="-548" y="365" type="curve"/>
			<point x="-935" y="365" type="line"/>
			<point x="-696" y="629" type="line"/>
			<point x="-826" y="629" type="line"/>
			<point x="-1102" y="315" type="line"/>
			<point x="-823" y="0" type="line"/>
		</contour>
	</outline>
</glyph>
<glyph name="less_asterisk.cLig" format="2">
	<advance width="600"/>
	<outline>
		<contour>
			<point x="-54" y="-8" type="line"/>
			<point x="-54" y="104" type="line"/>
			<point x="-420" y="315" type="line"/>
			<point x="-54" y="525" type="line"/>
			<point x="-54" y="637" type="line"/>
			<point x="-500" y="375" type="line"/>
			<point x="-500" y="253" type="line"/>
		</contour>
		<contour>
			<point x="432" y="149" type="line"/>
			<point x="487" y="244" type="line"/>
			<point x="306" y="317" type="line"/>
			<point x="488" y="390" type="line"/>
			<point x="433" y="485" type="line"/>
			<point x="278" y="364" type="line"/>
			<point x="305" y="559" type="line"/>
			<point x="195" y="559" type="line"/>
			<point x="222" y="365" type="line"/>
			<point x="67" y="486" type="line"/>
			<point x="12" y="391" type="line"/>
			<point x="195" y="317" type="line"/>
			<point x="13" y="243" type="line"/>
			<point x="68" y="147" type="line"/>
			<point x="222" y="268" type="line"/>
			<point x="196" y="74" type="line"/>
			<point x="306" y="74" type="line"/>
			<point x="278" y="269" type="line"/>
		</contour>
	</outline>
</glyph>
<glyph name="less_asterisk_greater.cLig" format="2">
	<advance width="600"/>
	<outline>
		<contour>
			<point x="38" y="-8" type="line"/>
			<point x="484" y="253" type="line"/>
			<point x="484" y="375" type="line"/>
			<point x="38" y="637" type="line"/>
			<point x="38" y="525" type="line"/>
			<point x="405" y="315" type="line"/>
			<point x="38" y="104" type="line"/>
		</contour>
		<contour>
			<point x="-638" y="-8" type="line"/>
			<point x="-638" y="104" type="line"/>
			<point x="-1005" y="315" type="line"/>
			<point x="-638" y="525" type="line"/>
			<point x="-638" y="637" type="line"/>
			<point x="-1084" y="375" type="line"/>
			<point x="-1084" y="253" type="line"/>
		</contour>
		<contour>
			<point x="-117" y="149" type="line"/>
			<point x="-62" y="244" type="line"/>
			<point x="-243" y="317" type="line"/>
			<point x="-62" y="390" type="line"/>
			<point x="-117" y="485" type="line"/>
			<point x="-272" y="364" type="line"/>
			<point x="-245" y="559" type="line"/>
			<point x="-355" y="559" type="line"/>
			<point x="-327" y="365" type="line"/>
			<point x="-482" y="486" type="line"/>
			<point x="-538" y="391" type="line"/>
			<point x="-354" y="317" type="line"/>
			<point x="-537" y="243" type="line"/>
			<point x="-482" y="147" type="line"/>
			<point x="-327" y="268" type="line"/>
			<point x="-354" y="74" type="line"/>
			<point x="-244" y="74" type="line"/>
			<point x="-271" y="269" type="line"/>
		</contour>
	</outline>
</glyph>
<glyph name="less_bar.cLig" format="2">
	<advance width="600"/>
	<outline>
		<contour>
			<point x="279" y="708" type="line"/>
			<point x="174" y="708" type="line"/>
			<point x="-362" y="376" type="line"/>
			<point x="-362" y="253" type="line"/>
			<point x="174" y="-79" type="line"/>
			<point x="279" y="-79" type="line"/>
		</contour>
		<contour>
			<point x="174" y="41" type="line"/>
			<point x="-273" y="313" type="line"/>
			<point x="174" y="589" type="line"/>
		</contour>
	</outline>
</glyph>
<glyph name="less_bar_bar.cLig" format="2">
	<advance width="600"/>
	<outline>
		<contour>
			<point x="266" y="-79" type="line"/>
			<point x="266" y="708" type="line"/>
			<point x="162" y="708" type="line"/>
			<point x="162" y="-79" type="line"/>
		</contour>
		<contour>
			<point x="-294" y="708" type="line"/>
			<point x="-398" y="708" type="line"/>
			<point x="-934" y="376" type="line"/>
			<point x="-934" y="253" type="line"/>
			<point x="-398" y="-79" type="line"/>
			<point x="-294" y="-79" type="line"/>
		</contour>
		<contour>
			<point x="-398" y="41" type="line"/>
			<point x="-845" y="313" type="line"/>
			<point x="-398" y="589" type="line"/>
		</contour>
	</outline>
</glyph>
<glyph name="less_bar_bar_bar.cLig" format="2">
	<advance width="600"/>
	<outline>
		<contour>
			<point x="-314" y="708" type="line"/>
			<point x="-418" y="708" type="line"/>
			<point x="-418" y="-79" type="line"/>
			<point x="-314" y="-79" type="line"/>
		</contour>
		<contour>
			<point x="258" y="708" type="line"/>
			<point x="154" y="708" type="line"/>
			<point x="154" y="-79" type="line"/>
			<point x="258" y="-79" type="line"/>
		</contour>
		<contour>
			<point x="-885" y="708" type="line"/>
			<point x="-990" y="708" type="line"/>
			<point x="-1526" y="376" type="line"/>
			<point x="-1526" y="253" type="line"/>
			<point x="-990" y="-79" type="line"/>
			<point x="-885" y="-79" type="line"/>
		</contour>
		<contour>
			<point x="-990" y="41" type="line"/>
			<point x="-1437" y="313" type="line"/>
			<point x="-990" y="589" type="line"/>
		</contour>
	</outline>
</glyph>
<glyph name="less_dollar.cLig" format="2">
	<advance width="600"/>
	<outline>
		<contour>
			<point x="156" y="-93" type="line"/>
			<point x="234" y="-93" type="line"/>
			<point x="247" y="-11" type="line"/>
			<point x="253" y="-12"/>
			<point x="260" y="-12"/>
			<point x="266" y="-12" type="curve" smooth="yes"/>
			<point x="414" y="-10"/>
			<point x="519" y="65"/>
			<point x="519" y="207" type="curve" smooth="yes"/>
			<point x="519" y="340"/>
			<point x="419" y="370"/>
			<point x="305" y="390" type="curve"/>
			<point x="339" y="599" type="line"/>
			<point x="397" y="588"/>
			<point x="455" y="567"/>
			<point x="500" y="532" type="curve"/>
			<point x="500" y="633" type="line"/>
			<point x="468" y="656"/>
			<point x="420" y="676"/>
			<point x="361" y="687" type="curve"/>
			<point x="375" y="774" type="line"/>
			<point x="297" y="774" type="line"/>
			<point x="284" y="695" type="line"/>
			<point x="278" y="695"/>
			<point x="272" y="696"/>
			<point x="266" y="696" type="curve" smooth="yes"/>
			<point x="120" y="696"/>
			<point x="19" y="622"/>
			<point x="19" y="484" type="curve" smooth="yes"/>
			<point x="19" y="349"/>
			<point x="110" y="316"/>
			<point x="226" y="295" type="curve"/>
			<point x="192" y="87" type="line"/>
			<point x="118" y="98"/>
			<point x="34" y="126"/>
			<point x="-68" y="167" type="curve" smooth="yes"/>
			<point x="-423" y="317" type="line"/>
			<point x="-92" y="482" type="line"/>
			<point x="-92" y="591" type="line"/>
			<point x="-516" y="375" type="line"/>
			<point x="-516" y="253" type="line"/>
			<point x="-109" y="75" type="line" smooth="yes"/>
			<point x="-7" y="32"/>
			<point x="84" y="6"/>
			<point x="170" y="-6" type="curve"/>
		</contour>
		<contour>
			<point x="129" y="496" type="curve" smooth="yes"/>
			<point x="129" y="570"/>
			<point x="185" y="606"/>
			<point x="263" y="606" type="curve" smooth="yes"/>
			<point x="268" y="606"/>
			<point x="272" y="605"/>
			<point x="276" y="605" type="curve"/>
			<point x="243" y="401" type="line"/>
			<point x="175" y="413"/>
			<point x="129" y="431"/>
		</contour>
		<contour>
			<point x="407" y="191" type="curve" smooth="yes"/>
			<point x="407" y="116"/>
			<point x="350" y="81"/>
			<point x="263" y="81" type="curve" smooth="yes"/>
			<point x="255" y="81" type="line"/>
			<point x="288" y="285" type="line"/>
			<point x="360" y="273"/>
			<point x="407" y="256"/>
		</contour>
	</outline>
</glyph>
<glyph name="less_equal.cLig" format="2">
	<advance width="600"/>
	<outline>
		<contour>
			<point x="291" y="175" type="line"/>
			<point x="-303" y="397" type="line"/>
			<point x="-303" y="520" type="line"/>
			<point x="291" y="744" type="line"/>
			<point x="291" y="640" type="line"/>
			<point x="-212" y="460" type="line"/>
			<point x="291" y="279" type="line"/>
		</contour>
		<contour>
			<point x="291" y="-66" type="line"/>
			<point x="-303" y="156" type="line"/>
			<point x="-303" y="254" type="line"/>
			<point x="291" y="32" type="line"/>
		</contour>
	</outline>
</glyph>
<glyph name="less_equal.rem" format="2">
	<advance width="600"/>
	<outline>
		<contour>
			<point x="505" y="629" type="line"/>
			<point x="375" y="629" type="line"/>
			<point x="243" y="471" type="line"/>
			<point x="-438" y="471" type="line"/>
			<point x="-438" y="375" type="line"/>
			<point x="290" y="375" type="line"/>
		</contour>
		<contour>
			<point x="291" y="254" type="line"/>
			<point x="-438" y="254" type="line"/>
			<point x="-438" y="158" type="line"/>
			<point x="244" y="158" type="line"/>
			<point x="378" y="0" type="line"/>
			<point x="508" y="0" type="line"/>
		</contour>
	</outline>
</glyph>
<glyph name="less_equal_less.rem" format="2">
	<advance width="600"/>
	<outline>
		<contour>
			<point x="264" y="254" type="line"/>
			<point x="-904" y="254" type="line"/>
			<point x="-957" y="314" type="line"/>
			<point x="-904" y="375" type="line"/>
			<point x="263" y="375" type="line"/>
			<point x="478" y="629" type="line"/>
			<point x="348" y="629" type="line"/>
			<point x="216" y="471" type="line"/>
			<point x="-822" y="471" type="line"/>
			<point x="-685" y="629" type="line"/>
			<point x="-814" y="629" type="line"/>
			<point x="-1085" y="316" type="line"/>
			<point x="-811" y="0" type="line"/>
			<point x="-682" y="0" type="line"/>
			<point x="-820" y="158" type="line"/>
			<point x="217" y="158" type="line"/>
			<point x="351" y="0" type="line"/>
			<point x="481" y="0" type="line"/>
		</contour>
	</outline>
</glyph>
<glyph name="less_hyphen_bar.rem" format="2">
	<advance width="600"/>
	<outline>
		<contour>
			<point x="432" y="629" type="line"/>
			<point x="328" y="629" type="line"/>
			<point x="328" y="365" type="line"/>
			<point x="-880" y="365" type="line"/>
			<point x="-641" y="629" type="line"/>
			<point x="-771" y="629" type="line"/>
			<point x="-1047" y="315" type="line"/>
			<point x="-768" y="0" type="line"/>
			<point x="-637" y="0" type="line"/>
			<point x="-879" y="264" type="line"/>
			<point x="328" y="264" type="line"/>
			<point x="328" y="0" type="line"/>
			<point x="432" y="0" type="line"/>
		</contour>
	</outline>
</glyph>
<glyph name="less_hyphen_less.rem" format="2">
	<advance width="600"/>
	<outline>
		<contour>
			<point x="-661" y="0" type="line"/>
			<point x="-902" y="264" type="line"/>
			<point x="109" y="264" type="line"/>
			<point x="340" y="0" type="line"/>
			<point x="471" y="0" type="line"/>
			<point x="197" y="315" type="line"/>
			<point x="468" y="629" type="line"/>
			<point x="337" y="629" type="line"/>
			<point x="107" y="365" type="line"/>
			<point x="-903" y="365" type="line"/>
			<point x="-664" y="629" type="line"/>
			<point x="-795" y="629" type="line"/>
			<point x="-1070" y="315" type="line"/>
			<point x="-792" y="0" type="line"/>
		</contour>
	</outline>
</glyph>
<glyph name="less_less_equal.fina" format="2">
	<advance width="600"/>
	<outline>
		<contour>
			<point x="524" y="629" type="line"/>
			<point x="392" y="629" type="line"/>
			<point x="119" y="316" type="line"/>
			<point x="395" y="0" type="line"/>
			<point x="527" y="0" type="line"/>
			<point x="248" y="315" type="line"/>
		</contour>
		<contour>
			<point x="-78" y="254" type="line"/>
			<point x="-600" y="254" type="line"/>
			<point x="-600" y="158" type="line"/>
			<point x="-125" y="158" type="line"/>
			<point x="9" y="0" type="line"/>
			<point x="139" y="0" type="line"/>
		</contour>
		<contour>
			<point x="136" y="629" type="line"/>
			<point x="6" y="629" type="line"/>
			<point x="-126" y="471" type="line"/>
			<point x="-600" y="471" type="line"/>
			<point x="-600" y="375" type="line"/>
			<point x="-79" y="375" type="line"/>
		</contour>
	</outline>
</glyph>
<glyph name="less_less_hyphen.init" format="2">
	<advance width="600"/>
	<outline>
		<contour>
			<point x="-79" y="629" type="line"/>
			<point x="-208" y="629" type="line"/>
			<point x="-482" y="315" type="line"/>
			<point x="-205" y="0" type="line"/>
			<point x="-76" y="0" type="line"/>
			<point x="-351" y="313" type="line"/>
		</contour>
		<contour>
			<point x="600" y="365" type="line"/>
			<point x="62" y="365" type="line"/>
			<point x="301" y="629" type="line"/>
			<point x="171" y="629" type="line"/>
			<point x="-105" y="315" type="line"/>
			<point x="174" y="0" type="line"/>
			<point x="305" y="0" type="line"/>
			<point x="63" y="264" type="line"/>
			<point x="600" y="264" type="line"/>
		</contour>
	</outline>
</glyph>
<glyph name="less_less_hyphen.med" format="2">
	<advance width="600"/>
	<outline>
		<contour>
			<point x="65" y="629" type="line"/>
			<point x="-65" y="629" type="line"/>
			<point x="-285" y="376" type="line"/>
			<point x="-600" y="376" type="line"/>
			<point x="-600" y="276" type="line"/>
			<point x="-305" y="276" type="line"/>
			<point x="-62" y="0" type="line"/>
			<point x="68" y="0" type="line"/>
			<point x="-208" y="314" type="line"/>
		</contour>
		<contour>
			<point x="600" y="365" type="line"/>
			<point x="208" y="365" type="line"/>
			<point x="447" y="629" type="line"/>
			<point x="317" y="629" type="line"/>
			<point x="41" y="315" type="line"/>
			<point x="320" y="0" type="line"/>
			<point x="450" y="0" type="line"/>
			<point x="209" y="264" type="line"/>
			<point x="600" y="264" type="line"/>
		</contour>
	</outline>
</glyph>
<glyph name="less_less_hyphen_greater_greater.rem" format="2">
	<advance width="600"/>
	<outline>
		<contour>
			<point x="-1275" y="0" type="line"/>
			<point x="-1545" y="315" type="line"/>
			<point x="-1272" y="629" type="line"/>
			<point x="-1402" y="629" type="line"/>
			<point x="-1676" y="313" type="line"/>
			<point x="-1405" y="0" type="line"/>
		</contour>
		<contour>
			<point x="-864" y="629" type="line"/>
			<point x="-995" y="629" type="line"/>
			<point x="-1274" y="314" type="line"/>
			<point x="-998" y="0" type="line"/>
			<point x="-868" y="0" type="line"/>
			<point x="-1107" y="264" type="line"/>
			<point x="-93" y="264" type="line"/>
			<point x="-332" y="0" type="line"/>
			<point x="-202" y="0" type="line"/>
			<point x="74" y="314" type="line"/>
			<point x="-205" y="629" type="line"/>
			<point x="-336" y="629" type="line"/>
			<point x="-94" y="365" type="line"/>
			<point x="-1106" y="365" type="line"/>
		</contour>
		<contour>
			<point x="75" y="0" type="line"/>
			<point x="205" y="0" type="line"/>
			<point x="476" y="313" type="line"/>
			<point x="202" y="629" type="line"/>
			<point x="72" y="629" type="line"/>
			<point x="345" y="315" type="line"/>
		</contour>
	</outline>
</glyph>
<glyph name="less_less_less.cLig" format="2">
	<advance width="600"/>
	<outline>
		<contour>
			<point x="-657" y="29" type="line"/>
			<point x="-657" y="139" type="line"/>
			<point x="-1024" y="299" type="line"/>
			<point x="-657" y="460" type="line"/>
			<point x="-657" y="569" type="line"/>
			<point x="-1115" y="360" type="line"/>
			<point x="-1115" y="238" type="line"/>
		</contour>
		<contour>
			<point x="-74" y="29" type="line"/>
			<point x="-74" y="139" type="line"/>
			<point x="-441" y="299" type="line"/>
			<point x="-74" y="460" type="line"/>
			<point x="-74" y="569" type="line"/>
			<point x="-532" y="360" type="line"/>
			<point x="-532" y="238" type="line"/>
		</contour>
		<contour>
			<point x="509" y="29" type="line"/>
			<point x="509" y="139" type="line"/>
			<point x="142" y="299" type="line"/>
			<point x="509" y="460" type="line"/>
			<point x="509" y="569" type="line"/>
			<point x="51" y="360" type="line"/>
			<point x="51" y="238" type="line"/>
		</contour>
	</outline>
</glyph>
<glyph name="less_plus.cLig" format="2">
	<advance width="600"/>
	<outline>
		<contour>
			<point x="-42" y="-8" type="line"/>
			<point x="-42" y="104" type="line"/>
			<point x="-409" y="313" type="line"/>
			<point x="-42" y="525" type="line"/>
			<point x="-42" y="637" type="line"/>
			<point x="-488" y="375" type="line"/>
			<point x="-488" y="253" type="line"/>
		</contour>
		<contour>
			<point x="212" y="528" type="line"/>
			<point x="212" y="346" type="line"/>
			<point x="32" y="346" type="line"/>
			<point x="32" y="251" type="line"/>
			<point x="212" y="251" type="line"/>
			<point x="212" y="68" type="line"/>
			<point x="310" y="68" type="line"/>
			<point x="310" y="251" type="line"/>
			<point x="490" y="251" type="line"/>
			<point x="490" y="346" type="line"/>
			<point x="310" y="346" type="line"/>
			<point x="310" y="528" type="line"/>
		</contour>
	</outline>
</glyph>
<glyph name="less_plus_greater.cLig" format="2">
	<advance width="600"/>
	<outline>
		<contour>
			<point x="34" y="-8" type="line"/>
			<point x="480" y="253" type="line"/>
			<point x="480" y="375" type="line"/>
			<point x="34" y="637" type="line"/>
			<point x="34" y="525" type="line"/>
			<point x="400" y="315" type="line"/>
			<point x="34" y="104" type="line"/>
		</contour>
		<contour>
			<point x="-634" y="-8" type="line"/>
			<point x="-634" y="104" type="line"/>
			<point x="-1000" y="314" type="line"/>
			<point x="-634" y="525" type="line"/>
			<point x="-634" y="637" type="line"/>
			<point x="-1080" y="376" type="line"/>
			<point x="-1080" y="254" type="line"/>
		</contour>
		<contour>
			<point x="-353" y="528" type="line"/>
			<point x="-353" y="346" type="line"/>
			<point x="-533" y="346" type="line"/>
			<point x="-533" y="251" type="line"/>
			<point x="-353" y="251" type="line"/>
			<point x="-353" y="68" type="line"/>
			<point x="-255" y="68" type="line"/>
			<point x="-255" y="251" type="line"/>
			<point x="-75" y="251" type="line"/>
			<point x="-75" y="346" type="line"/>
			<point x="-255" y="346" type="line"/>
			<point x="-255" y="528" type="line"/>
		</contour>
	</outline>
</glyph>
<glyph name="less_slash.cLig" format="2">
	<advance width="600"/>
	<outline>
		<contour>
			<point x="-46" y="588" type="line"/>
			<point x="-492" y="376" type="line"/>
			<point x="-492" y="253" type="line"/>
			<point x="79" y="-25" type="line"/>
			<point x="26" y="-163" type="line"/>
			<point x="135" y="-163" type="line"/>
			<point x="500" y="792" type="line"/>
			<point x="390" y="792" type="line"/>
			<point x="114" y="67" type="line"/>
			<point x="-399" y="316" type="line"/>
			<point x="-46" y="479" type="line"/>
		</contour>
	</outline>
</glyph>
<glyph name="lslashcomb" format="2">
	<advance width="600"/>
	<outline>
		<contour>
			<point x="28" y="361" type="line"/>
			<point x="456" y="524" type="line"/>
			<point x="456" y="606" type="line"/>
			<point x="28" y="441" type="line"/>
		</contour>
	</outline>
	<anchor name="_center" x="240" y="480"/>
</glyph>
<glyph name="macron.cap" format="2">
	<advance width="600"/>
	<outline>
		<contour>
			<point x="158" y="767" type="line"/>
			<point x="442" y="767" type="line"/>
			<point x="442" y="835" type="line"/>
			<point x="158" y="835" type="line"/>
		</contour>
	</outline>
	<anchor name="_top" x="301" y="684"/>
</glyph>
<glyph name="nine.numr" format="2">
	<advance width="600"/>
	<outline>
		<contour>
			<point x="278" y="366" type="curve" smooth="yes"/>
			<point x="401" y="366"/>
			<point x="435" y="452"/>
			<point x="435" y="557" type="curve" smooth="yes"/>
			<point x="435" y="658"/>
			<point x="405" y="724"/>
			<point x="300" y="724" type="curve" smooth="yes"/>
			<point x="213" y="724"/>
			<point x="166" y="670"/>
			<point x="166" y="599" type="curve" smooth="yes"/>
			<point x="166" y="535"/>
			<point x="198" y="490"/>
			<point x="267" y="490" type="curve" smooth="yes"/>
			<point x="315" y="490"/>
			<point x="346" y="512"/>
			<point x="363" y="553" type="curve"/>
			<point x="362" y="466"/>
			<point x="342" y="423"/>
			<point x="269" y="423" type="curve" smooth="yes"/>
			<point x="236" y="423"/>
			<point x="197" y="436"/>
			<point x="175" y="453" type="curve"/>
			<point x="175" y="392" type="line"/>
			<point x="197" y="377"/>
			<point x="240" y="366"/>
		</contour>
		<contour>
			<point x="297" y="539" type="curve" smooth="yes"/>
			<point x="258" y="539"/>
			<point x="236" y="559"/>
			<point x="236" y="602" type="curve" smooth="yes"/>
			<point x="236" y="647"/>
			<point x="260" y="671"/>
			<point x="300" y="671" type="curve" smooth="yes"/>
			<point x="340" y="671"/>
			<point x="363" y="644"/>
			<point x="363" y="602" type="curve" smooth="yes"/>
			<point x="363" y="559"/>
			<point x="336" y="539"/>
		</contour>
	</outline>
</glyph>
